<svg width="306" height="274" viewBox="0 0 306 274" fill="none" xmlns="http://www.w3.org/2000/svg">
<path fill-rule="evenodd" clip-rule="evenodd" d="M64.7775 210.723H86.3204L129.277 189.235L177.429 242.917H211.991L229.521 234.152L234.865 242.455C234.865 242.455 244.813 242.455 254.263 242.455C265.247 242.455 276.083 239.903 285.921 234.984C291.764 232.062 298.218 228.845 303.118 226.385C304.616 225.646 305.559 224.111 305.559 222.428C305.559 220.764 304.616 219.229 303.118 218.471C282.5 208.171 228.707 181.265 228.707 181.265L129.277 156.154L88.7983 151.364L64.7775 210.723Z" fill="#505050"/>
<path fill-rule="evenodd" clip-rule="evenodd" d="M64.5557 210.631C64.5187 210.705 64.5372 210.797 64.5742 210.852C64.6112 210.926 64.6851 210.963 64.7776 210.963H86.3205C86.3575 210.963 86.3945 210.963 86.4315 210.945L129.24 189.55L177.263 243.102C177.3 243.158 177.374 243.176 177.448 243.176H212.009C212.046 243.176 212.083 243.176 212.12 243.158C212.12 243.158 227.561 235.447 229.465 234.485L234.699 242.603C234.736 242.677 234.81 242.714 234.902 242.714C234.902 242.714 244.851 242.714 254.3 242.714C265.321 242.714 276.194 240.143 286.05 235.225C291.894 232.303 298.347 229.085 303.248 226.626C304.819 225.831 305.818 224.222 305.818 222.465C305.818 220.709 304.819 219.081 303.248 218.305C282.629 208.005 228.837 181.099 228.837 181.099C228.818 181.099 228.8 181.081 228.781 181.081L129.351 155.932C129.332 155.932 129.332 155.932 129.314 155.932L88.8354 151.143C88.7244 151.124 88.632 151.198 88.5765 151.29L64.5557 210.631ZM65.1289 210.483L88.9463 151.623L129.24 156.394C130.627 156.746 226.84 181.062 228.633 181.506L303.026 218.711C304.45 219.414 305.337 220.875 305.337 222.447C305.337 224.037 304.45 225.479 303.026 226.182C298.125 228.623 291.672 231.859 285.828 234.781C276.028 239.681 265.229 242.233 254.281 242.233H235.013L229.724 234.041C229.65 233.93 229.521 233.893 229.41 233.949L211.935 242.695C211.935 242.695 179.63 242.695 177.54 242.695C175.488 240.402 129.462 189.088 129.462 189.088C129.388 189.014 129.277 188.977 129.184 189.032C129.184 189.032 87.9108 209.669 86.265 210.483H65.1289Z" fill="#505050"/>
<path fill-rule="evenodd" clip-rule="evenodd" d="M64.7772 113.918L0.259399 81.3535V178.158L64.7772 210.722V113.918Z" fill="white"/>
<path fill-rule="evenodd" clip-rule="evenodd" d="M65.0172 113.919C65.0172 113.827 64.9617 113.753 64.8877 113.697L0.369903 81.1332C0.295936 81.0962 0.203468 81.0962 0.129501 81.1517C0.0555337 81.1887 0.0185547 81.2811 0.0185547 81.3551V178.16C0.0185547 178.252 0.0740323 178.326 0.147999 178.381L64.6658 210.945C64.7398 210.982 64.8323 210.982 64.9062 210.927C64.9802 210.89 65.0172 210.798 65.0172 210.724V113.919ZM64.5364 114.067V210.335L0.499337 178.012C0.499337 173.98 0.499337 88.234 0.499337 81.7434C5.56609 84.3138 64.5364 114.067 64.5364 114.067Z" fill="#505050"/>
<path fill-rule="evenodd" clip-rule="evenodd" d="M55.513 177.067L45.1021 171.815V186.793L55.513 192.045V177.067ZM38.1677 168.302L27.7568 163.05V178.047L38.1677 183.298V168.302ZM19.9348 159.093L9.52393 153.841V168.838L19.9348 174.09V159.093ZM55.513 150.975L45.1021 145.723V160.72L55.513 165.972V150.975ZM38.1677 142.228L27.7568 136.977V151.973L38.1677 157.225V142.228ZM19.9348 133.019L9.52393 127.768V142.764L19.9348 148.016V133.019ZM55.513 124.014L45.1021 118.762V133.759L55.513 139.011V124.014ZM38.1677 115.249L27.7568 109.997V124.994L38.1677 130.246V115.249ZM19.9348 106.04L9.52393 100.788V115.785L19.9348 121.037V106.04Z" fill="#D5D5D5"/>
<path fill-rule="evenodd" clip-rule="evenodd" d="M55.7531 177.067C55.7531 176.975 55.6976 176.901 55.6236 176.845L45.2127 171.594C45.1388 171.557 45.0463 171.557 44.9723 171.612C44.8984 171.649 44.8614 171.742 44.8614 171.816V186.794C44.8614 186.886 44.9169 186.96 44.9908 187.016L55.4017 192.268C55.4757 192.305 55.5681 192.305 55.6421 192.249C55.7161 192.212 55.7531 192.12 55.7531 192.046V177.067ZM55.2723 177.215V191.676L45.3422 186.665V172.185L55.2723 177.215ZM38.4078 168.302C38.4078 168.21 38.3523 168.136 38.2783 168.08L27.8674 162.829C27.7935 162.792 27.701 162.792 27.627 162.847C27.5531 162.884 27.5161 162.977 27.5161 163.051V178.047C27.5161 178.14 27.5716 178.214 27.6455 178.269L38.0564 183.521C38.1304 183.558 38.2228 183.558 38.2968 183.502C38.3708 183.465 38.4078 183.373 38.4078 183.299V168.302ZM37.927 168.45V182.911L27.9969 177.899V163.439L37.927 168.45ZM20.1749 159.093C20.1749 159.001 20.1194 158.927 20.0454 158.871L9.63455 153.62C9.56058 153.583 9.46812 153.583 9.39415 153.638C9.32019 153.675 9.2832 153.768 9.2832 153.842V168.838C9.2832 168.931 9.33868 169.005 9.41264 169.06L19.8235 174.312C19.8975 174.349 19.9899 174.349 20.0639 174.294C20.1379 174.257 20.1749 174.164 20.1749 174.09V159.093ZM19.6941 159.241V173.702L9.76399 168.691V154.23L19.6941 159.241ZM55.7531 150.975C55.7531 150.883 55.6976 150.809 55.6236 150.753L45.2127 145.502C45.1388 145.465 45.0463 145.465 44.9723 145.52C44.8984 145.557 44.8614 145.65 44.8614 145.724V160.721C44.8614 160.813 44.9169 160.887 44.9908 160.942L55.4017 166.194C55.4757 166.231 55.5681 166.231 55.6421 166.176C55.7161 166.139 55.7531 166.046 55.7531 165.972V150.975ZM55.2723 151.123V165.584L45.3422 160.573V146.112L55.2723 151.123ZM38.4078 142.229C38.4078 142.136 38.3523 142.062 38.2783 142.007L27.8674 136.755C27.7935 136.718 27.701 136.718 27.627 136.774C27.5531 136.811 27.5161 136.903 27.5161 136.977V151.974C27.5161 152.066 27.5716 152.14 27.6455 152.196L38.0564 157.448C38.1304 157.484 38.2228 157.484 38.2968 157.429C38.3708 157.392 38.4078 157.3 38.4078 157.226V142.229ZM37.927 142.377V156.837L27.9969 151.826V137.365L37.927 142.377ZM20.1749 133.02C20.1749 132.927 20.1194 132.853 20.0454 132.798L9.63455 127.546C9.56058 127.509 9.46812 127.509 9.39415 127.565C9.32019 127.602 9.2832 127.694 9.2832 127.768V142.765C9.2832 142.857 9.33868 142.931 9.41264 142.987L19.8235 148.239C19.8975 148.276 19.9899 148.276 20.0639 148.22C20.1379 148.183 20.1749 148.091 20.1749 148.017V133.02ZM19.6941 133.168V147.628L9.76399 142.617V128.157L19.6941 133.168ZM55.7531 124.014C55.7531 123.922 55.6976 123.848 55.6236 123.792L45.2127 118.541C45.1388 118.504 45.0463 118.504 44.9723 118.559C44.8984 118.596 44.8614 118.689 44.8614 118.763V133.76C44.8614 133.852 44.9169 133.926 44.9908 133.981L55.4017 139.233C55.4757 139.27 55.5681 139.27 55.6421 139.215C55.7161 139.178 55.7531 139.085 55.7531 139.011V124.014ZM55.2723 124.162V138.623L45.3422 133.612V119.151L55.2723 124.162ZM38.4078 115.249C38.4078 115.157 38.3523 115.083 38.2783 115.027L27.8674 109.776C27.7935 109.739 27.701 109.739 27.627 109.794C27.5531 109.831 27.5161 109.924 27.5161 109.998V124.994C27.5161 125.087 27.5716 125.161 27.6455 125.216L38.0564 130.468C38.1304 130.505 38.2228 130.505 38.2968 130.45C38.3708 130.413 38.4078 130.32 38.4078 130.246V115.249ZM37.927 115.397V129.858L27.9969 124.847V110.386L37.927 115.397ZM20.1749 106.04C20.1749 105.948 20.1194 105.874 20.0454 105.818L9.63455 100.567C9.56058 100.53 9.46812 100.53 9.39415 100.585C9.32019 100.622 9.2832 100.715 9.2832 100.789V115.786C9.2832 115.878 9.33868 115.952 9.41264 116.007L19.8235 121.259C19.8975 121.296 19.9899 121.296 20.0639 121.241C20.1379 121.204 20.1749 121.111 20.1749 121.037V106.04ZM19.6941 106.188V120.649L9.76399 115.638V101.177L19.6941 106.188Z" fill="#505050"/>
<path fill-rule="evenodd" clip-rule="evenodd" d="M64.7775 113.918L129.277 81.3535V178.158L64.7775 210.722V113.918Z" fill="#D5D5D5"/>
<path fill-rule="evenodd" clip-rule="evenodd" d="M64.6661 113.695C64.5921 113.732 64.5366 113.824 64.5366 113.916V210.721C64.5366 210.813 64.5736 210.887 64.6476 210.924C64.7215 210.961 64.814 210.98 64.888 210.943L129.406 178.379C129.48 178.342 129.535 178.249 129.535 178.157V81.3524C129.535 81.26 129.498 81.186 129.424 81.149C129.35 81.112 129.258 81.0935 129.184 81.1305L64.6661 113.695ZM65.0174 114.064C68.087 112.511 124.117 84.2371 129.054 81.7407C129.054 81.7407 129.054 173.811 129.054 178.009L65.0174 210.333V114.064Z" fill="#505050"/>
<path fill-rule="evenodd" clip-rule="evenodd" d="M74.0227 177.067L84.4336 171.815V186.793L74.0227 192.045V177.067ZM91.368 168.302L101.779 163.05V178.047L91.368 183.298V168.302ZM109.619 159.093L120.03 153.841V168.838L109.619 174.09V159.093ZM74.0227 150.975L84.4336 145.723V160.72L74.0227 165.972V150.975ZM91.368 142.228L101.779 136.977V151.973L91.368 157.207V142.228ZM109.619 133.019L120.03 127.768V142.764L109.619 148.016V133.019ZM74.0227 124.014L84.4336 118.762V133.759L74.0227 139.011V124.014ZM91.368 115.249L101.779 109.997V124.994L91.368 130.246V115.249ZM109.619 106.04L120.03 100.788V115.785L109.619 121.037V106.04Z" fill="#505050"/>
<path fill-rule="evenodd" clip-rule="evenodd" d="M73.9113 176.846C73.8373 176.883 73.7819 176.975 73.7819 177.068V192.064C73.7819 192.138 73.8188 192.231 73.8928 192.268C73.9668 192.305 74.0592 192.323 74.1332 192.286L84.5441 187.035C84.618 186.998 84.6735 186.905 84.6735 186.813V171.816C84.6735 171.742 84.6365 171.65 84.5626 171.613C84.4886 171.576 84.3961 171.557 84.3222 171.594L73.9113 176.846ZM74.2626 177.216L84.1927 172.204V186.665L74.2626 191.676V177.216ZM91.2566 168.099C91.1826 168.136 91.1272 168.229 91.1272 168.321V183.318C91.1272 183.392 91.1641 183.484 91.2381 183.521C91.3121 183.558 91.4045 183.577 91.4785 183.54L101.889 178.288C101.963 178.251 102.019 178.159 102.019 178.066V163.069C102.019 162.977 101.982 162.903 101.908 162.866C101.834 162.829 101.741 162.81 101.667 162.847L91.2566 168.099ZM91.6079 168.45L101.538 163.439V177.9L91.6079 182.911V168.45ZM109.508 158.89C109.434 158.927 109.379 159.02 109.379 159.112V174.109C109.379 174.183 109.416 174.275 109.489 174.312C109.563 174.349 109.656 174.368 109.73 174.331L120.141 169.079C120.215 169.042 120.27 168.95 120.27 168.857V153.86C120.27 153.768 120.233 153.694 120.159 153.657C120.085 153.62 119.993 153.602 119.919 153.639L109.508 158.89ZM109.859 159.242L119.789 154.23V168.691L109.859 173.702V159.242ZM73.9113 150.754C73.8373 150.791 73.7819 150.883 73.7819 150.976V165.973C73.7819 166.047 73.8188 166.139 73.8928 166.176C73.9668 166.213 74.0592 166.231 74.1332 166.194L84.5441 160.943C84.618 160.906 84.6735 160.813 84.6735 160.721V145.724C84.6735 145.632 84.6365 145.558 84.5626 145.521C84.4886 145.484 84.3961 145.465 84.3222 145.502L73.9113 150.754ZM74.2626 151.124L84.1927 146.112V160.573L74.2626 165.584V151.124ZM91.2566 142.007C91.1826 142.044 91.1272 142.137 91.1272 142.229V157.207C91.1272 157.281 91.1641 157.374 91.2381 157.411C91.3121 157.448 91.4045 157.466 91.4785 157.429L101.889 152.178C101.963 152.141 102.019 152.048 102.019 151.956V136.959C102.019 136.885 101.982 136.792 101.908 136.756C101.834 136.719 101.741 136.7 101.667 136.737L91.2566 142.007ZM91.6079 142.377L101.538 137.347V151.808L91.6079 156.819V142.377ZM109.508 132.798C109.434 132.835 109.379 132.928 109.379 133.02V148.017C109.379 148.091 109.416 148.183 109.489 148.22C109.563 148.257 109.656 148.276 109.73 148.239L120.141 142.987C120.215 142.95 120.27 142.858 120.27 142.765V127.769C120.27 127.695 120.233 127.602 120.159 127.565C120.085 127.528 119.993 127.51 119.919 127.547L109.508 132.798ZM109.859 133.168L119.789 128.157V142.599L109.859 147.61V133.168ZM73.9113 123.793C73.8373 123.83 73.7819 123.922 73.7819 124.015V139.012C73.7819 139.104 73.8188 139.178 73.8928 139.215C73.9668 139.252 74.0592 139.27 74.1332 139.233L84.5441 133.982C84.618 133.945 84.6735 133.852 84.6735 133.76V118.745C84.6735 118.671 84.6365 118.578 84.5626 118.541C84.4886 118.504 84.3961 118.486 84.3222 118.523L73.9113 123.793ZM74.2626 124.163L84.1927 119.151V133.612L74.2626 138.623V124.163ZM91.2566 115.046C91.1826 115.083 91.1272 115.176 91.1272 115.268V130.265C91.1272 130.339 91.1641 130.431 91.2381 130.468C91.3121 130.505 91.4045 130.524 91.4785 130.487L101.889 125.235C101.963 125.198 102.019 125.106 102.019 125.013V110.016C102.019 109.942 101.982 109.85 101.908 109.813C101.834 109.776 101.741 109.758 101.667 109.794L91.2566 115.046ZM91.6079 115.398L101.538 110.386V124.847L91.6079 129.858V115.398ZM109.508 105.837C109.434 105.874 109.379 105.967 109.379 106.059V121.056C109.379 121.148 109.416 121.222 109.489 121.259C109.563 121.296 109.656 121.315 109.73 121.278L120.141 116.026C120.215 115.989 120.27 115.897 120.27 115.804V100.807C120.27 100.734 120.233 100.641 120.159 100.604C120.085 100.567 119.993 100.549 119.919 100.586L109.508 105.837ZM109.859 106.189L119.789 101.177V115.638C118.717 116.174 111.524 119.817 109.859 120.649V106.189Z" fill="#505050"/>
<path fill-rule="evenodd" clip-rule="evenodd" d="M64.7772 48.8096L0.259399 81.3551L64.7772 113.919L129.277 81.3551L64.7772 48.8096Z" fill="white"/>
<path fill-rule="evenodd" clip-rule="evenodd" d="M64.8695 48.5873C64.7956 48.5503 64.7216 48.5503 64.6476 48.5873L0.1298 81.1513C0.0558325 81.1883 0.000366211 81.2808 0.000366211 81.3732C0.000366211 81.4657 0.0558325 81.5397 0.1298 81.5951L64.6476 114.159C64.7216 114.196 64.7956 114.196 64.8695 114.159L129.387 81.5766C129.461 81.5397 129.517 81.4472 129.517 81.3547C129.517 81.2623 129.461 81.1883 129.387 81.1328L64.8695 48.5873ZM64.7771 49.0681L128.759 81.3547L64.7771 113.641L0.795511 81.3547L64.7771 49.0681Z" fill="#505050"/>
<path fill-rule="evenodd" clip-rule="evenodd" d="M64.8331 55.0947L14.2211 80.6504L66.183 106.872L116.795 81.3346L64.8331 55.0947Z" fill="white"/>
<path fill-rule="evenodd" clip-rule="evenodd" d="M64.9436 54.893C64.8696 54.856 64.7956 54.856 64.7217 54.893L14.1097 80.4301C14.0357 80.4671 13.9802 80.5596 13.9802 80.652C13.9802 80.7445 14.0357 80.8184 14.1097 80.8739L66.0716 107.095C66.1455 107.132 66.2195 107.132 66.2935 107.095L116.905 81.5581C116.979 81.5211 117.035 81.4287 117.035 81.3362C117.035 81.2438 116.979 81.1698 116.905 81.1143L64.9436 54.893ZM64.8326 55.3738L116.258 81.3362L66.1825 106.614C66.1825 106.614 19.6942 83.1484 14.7569 80.652L64.8326 55.3738Z" fill="#505050"/>
<path fill-rule="evenodd" clip-rule="evenodd" d="M64.8331 63.3421L108.64 85.4397L116.795 81.3346L64.8331 55.0947V63.3421Z" fill="white"/>
<path fill-rule="evenodd" clip-rule="evenodd" d="M64.5923 63.3427C64.5923 63.4351 64.6478 63.5091 64.7217 63.5646L108.529 85.6622C108.603 85.6992 108.677 85.6992 108.751 85.6622L116.906 81.5386C116.979 81.5016 117.035 81.4091 117.035 81.3167C117.035 81.2242 116.979 81.1503 116.906 81.0948L64.9436 54.8734C64.8697 54.8364 64.7772 54.8364 64.7032 54.8919C64.6293 54.9289 64.5923 55.0214 64.5923 55.0953V63.3427ZM65.0731 63.1947V55.4837L116.258 81.3352L108.64 85.1815L65.0731 63.1947Z" fill="#505050"/>
<path fill-rule="evenodd" clip-rule="evenodd" d="M64.8331 55.0947L14.2211 80.6504L22.3944 84.7555L64.8331 63.3421V55.0947Z" fill="#505050"/>
<path fill-rule="evenodd" clip-rule="evenodd" d="M65.073 55.0956C65.073 55.0216 65.036 54.9292 64.9621 54.8922C64.8881 54.8552 64.7956 54.8367 64.7217 54.8737L14.1097 80.4108C14.0357 80.4478 13.9802 80.5403 13.9802 80.6327C13.9802 80.7252 14.0357 80.7992 14.1097 80.8546L22.2645 84.9783C22.3385 85.0153 22.4125 85.0153 22.4864 84.9783L64.9436 63.5463C65.0175 63.5093 65.073 63.4169 65.073 63.3244V55.0956ZM64.5922 55.4839V63.1765C64.5922 63.1765 24.7239 83.2955 22.3755 84.479L14.7384 80.6327C19.3798 78.3213 60.3946 57.6105 64.5922 55.4839Z" fill="#505050"/>
<path fill-rule="evenodd" clip-rule="evenodd" d="M177.43 65.359L112.931 32.7949V211.167L177.43 243.712V65.359Z" fill="white"/>
<path fill-rule="evenodd" clip-rule="evenodd" d="M177.669 65.3596C177.669 65.2672 177.614 65.1932 177.54 65.1377L113.022 32.5922C112.948 32.5552 112.856 32.5552 112.782 32.6107C112.708 32.6477 112.671 32.7401 112.671 32.8141V211.167C112.671 211.26 112.726 211.334 112.8 211.389L177.318 243.935C177.392 243.972 177.484 243.972 177.558 243.916C177.632 243.879 177.669 243.787 177.669 243.713V65.3596ZM177.188 65.5076V243.325L113.17 211.019C113.17 211.019 113.17 42.3743 113.17 33.2024L177.188 65.5076Z" fill="#505050"/>
<path fill-rule="evenodd" clip-rule="evenodd" d="M168.184 209.3L157.773 204.048V219.045L168.184 224.296V209.3ZM150.838 200.535L140.427 195.283V210.28L150.838 215.531V200.535ZM132.587 191.344L122.176 186.092V201.089L132.587 206.341V191.344ZM168.184 182.32L157.773 177.068V192.065L168.184 197.317V182.32ZM150.838 173.574L140.427 168.322V183.319L150.838 188.57V173.574ZM132.587 164.365L122.176 159.113V174.11L132.587 179.361V164.365ZM168.184 155.47L157.773 150.218V165.215L168.184 170.467V155.47ZM150.838 146.723L140.427 141.472V156.469L150.838 161.72V146.723ZM132.587 137.515L122.176 132.263V147.26L132.587 152.511V137.515ZM168.184 128.509L157.773 123.257V138.254L168.184 143.506V128.509ZM150.838 119.744L140.427 114.492V129.489L150.838 134.741V119.744ZM132.587 110.554L122.176 105.302V120.299L132.587 125.55V110.554ZM168.184 102.417L157.773 97.1655V112.162L168.184 117.414V102.417ZM150.838 93.6705L140.427 88.4189V103.397L150.838 108.649V93.6705ZM132.587 84.4616L122.176 79.21V94.2068L132.587 99.4585V84.4616ZM168.184 75.4561L157.773 70.2045V85.2013L168.184 90.453V75.4561ZM150.838 66.691L140.427 61.4394V76.4362L150.838 81.6879V66.691ZM132.587 57.4821L122.176 52.2305V67.2273L132.587 72.479V57.4821Z" fill="#D5D5D5"/>
<path fill-rule="evenodd" clip-rule="evenodd" d="M168.423 209.298C168.423 209.206 168.368 209.132 168.294 209.076L157.883 203.825C157.809 203.788 157.717 203.788 157.643 203.843C157.569 203.88 157.532 203.973 157.532 204.047V219.044C157.532 219.136 157.587 219.21 157.661 219.265L168.072 224.517C168.146 224.554 168.238 224.554 168.312 224.499C168.386 224.462 168.423 224.369 168.423 224.295V209.298ZM167.943 209.446V223.907L158.013 218.896V204.435L167.943 209.446ZM151.078 200.533C151.078 200.441 151.023 200.367 150.949 200.311L140.538 195.06C140.464 195.023 140.371 195.023 140.297 195.078C140.223 195.115 140.186 195.208 140.186 195.282V210.278C140.186 210.371 140.242 210.445 140.316 210.5L150.727 215.752C150.801 215.789 150.893 215.789 150.967 215.734C151.041 215.697 151.078 215.604 151.078 215.53V200.533ZM150.597 200.681V215.142L140.667 210.131V195.67L150.597 200.681ZM132.827 191.343C132.827 191.25 132.771 191.176 132.697 191.121L122.286 185.869C122.212 185.832 122.12 185.832 122.046 185.888C121.972 185.925 121.935 186.017 121.935 186.091V201.088C121.935 201.18 121.991 201.254 122.065 201.31L132.475 206.562C132.549 206.599 132.642 206.599 132.716 206.543C132.79 206.506 132.827 206.414 132.827 206.34V191.343ZM132.346 191.472V205.933L122.416 200.922V186.461L132.346 191.472ZM168.423 182.319C168.423 182.226 168.368 182.152 168.294 182.097L157.883 176.845C157.809 176.808 157.717 176.808 157.643 176.864C157.569 176.901 157.532 176.993 157.532 177.067V192.064C157.532 192.157 157.587 192.23 157.661 192.286L168.072 197.538C168.146 197.575 168.238 197.575 168.312 197.519C168.386 197.482 168.423 197.39 168.423 197.316V182.319ZM167.943 182.467V196.927L158.013 191.916V177.456L167.943 182.467ZM151.078 173.572C151.078 173.48 151.023 173.406 150.949 173.35L140.538 168.099C140.464 168.062 140.371 168.062 140.297 168.117C140.223 168.154 140.186 168.247 140.186 168.321V183.317C140.186 183.41 140.242 183.484 140.316 183.539L150.727 188.791C150.801 188.828 150.893 188.828 150.967 188.773C151.041 188.736 151.078 188.643 151.078 188.569V173.572ZM150.597 173.72V188.181L140.667 183.17V168.709L150.597 173.72ZM132.827 164.363C132.827 164.271 132.771 164.197 132.697 164.141L122.286 158.89C122.212 158.853 122.12 158.853 122.046 158.908C121.972 158.945 121.935 159.038 121.935 159.112V174.109C121.935 174.201 121.991 174.275 122.065 174.33L132.475 179.582C132.549 179.619 132.642 179.619 132.716 179.564C132.79 179.527 132.827 179.434 132.827 179.36V164.363ZM132.346 164.511V178.972L122.416 173.961V159.5L132.346 164.511ZM168.423 155.469C168.423 155.376 168.368 155.302 168.294 155.247L157.883 149.995C157.809 149.958 157.717 149.958 157.643 150.014C157.569 150.051 157.532 150.143 157.532 150.217V165.214C157.532 165.306 157.587 165.38 157.661 165.436L168.072 170.688C168.146 170.725 168.238 170.725 168.312 170.669C168.386 170.632 168.423 170.54 168.423 170.466V155.469ZM167.943 155.617V170.077L158.013 165.066V150.605L167.943 155.617ZM151.078 146.722C151.078 146.63 151.023 146.556 150.949 146.5L140.538 141.249C140.464 141.212 140.371 141.212 140.297 141.267C140.223 141.304 140.186 141.397 140.186 141.471V156.467C140.186 156.56 140.242 156.634 140.316 156.689L150.727 161.941C150.801 161.978 150.893 161.978 150.967 161.922C151.041 161.885 151.078 161.793 151.078 161.719V146.722ZM150.597 146.87V161.331L140.667 156.319V141.859L150.597 146.87ZM132.827 137.513C132.827 137.421 132.771 137.347 132.697 137.291L122.286 132.04C122.212 132.003 122.12 132.003 122.046 132.058C121.972 132.095 121.935 132.188 121.935 132.262V147.258C121.935 147.351 121.991 147.425 122.065 147.48L132.475 152.732C132.549 152.769 132.642 152.769 132.716 152.714C132.79 152.677 132.827 152.584 132.827 152.51V137.513ZM132.346 137.661V152.122L122.416 147.111V132.65L132.346 137.661ZM168.423 128.508C168.423 128.415 168.368 128.341 168.294 128.286L157.883 123.034C157.809 122.997 157.717 122.997 157.643 123.053C157.569 123.09 157.532 123.182 157.532 123.256V138.253C157.532 138.345 157.587 138.419 157.661 138.475L168.072 143.727C168.146 143.764 168.238 143.764 168.312 143.708C168.386 143.671 168.423 143.579 168.423 143.505V128.508ZM167.943 128.656V143.116L158.013 138.105V123.644L167.943 128.656ZM151.078 119.743C151.078 119.65 151.023 119.576 150.949 119.521L140.538 114.269C140.464 114.232 140.371 114.232 140.297 114.288C140.223 114.325 140.186 114.417 140.186 114.491V129.488C140.186 129.58 140.242 129.654 140.316 129.71L150.727 134.961C150.801 134.998 150.893 134.998 150.967 134.943C151.041 134.906 151.078 134.813 151.078 134.74V119.743ZM150.597 119.891V134.351L140.667 129.34V114.879L150.597 119.891ZM132.827 110.552C132.827 110.46 132.771 110.386 132.697 110.33L122.286 105.079C122.212 105.042 122.12 105.042 122.046 105.097C121.972 105.134 121.935 105.227 121.935 105.301V120.297C121.935 120.39 121.991 120.464 122.065 120.519L132.475 125.771C132.549 125.808 132.642 125.808 132.716 125.753C132.79 125.716 132.827 125.623 132.827 125.549V110.552ZM132.346 110.682V125.142L122.416 120.131V105.67L132.346 110.682ZM168.423 102.416C168.423 102.323 168.368 102.249 168.294 102.194L157.883 96.9423C157.809 96.9053 157.717 96.9053 157.643 96.9608C157.569 96.9978 157.532 97.0903 157.532 97.1642V112.161C157.532 112.254 157.587 112.327 157.661 112.383L168.072 117.635C168.146 117.672 168.238 117.672 168.312 117.616C168.386 117.579 168.423 117.487 168.423 117.413V102.416ZM167.943 102.564V117.024L158.013 112.013V97.5525L167.943 102.564ZM151.078 93.6693C151.078 93.5768 151.023 93.5028 150.949 93.4474L140.538 88.1957C140.464 88.1587 140.371 88.1587 140.297 88.2142C140.223 88.2512 140.186 88.3436 140.186 88.4176V103.396C140.186 103.488 140.242 103.562 140.316 103.618L150.727 108.87C150.801 108.907 150.893 108.907 150.967 108.851C151.041 108.814 151.078 108.722 151.078 108.648V93.6693ZM150.597 93.8172V108.278L140.667 103.267V88.7874L150.597 93.8172ZM132.827 84.4604C132.827 84.3679 132.771 84.2939 132.697 84.2385L122.286 78.9868C122.212 78.9498 122.12 78.9498 122.046 79.0053C121.972 79.0423 121.935 79.1347 121.935 79.2087V94.2055C121.935 94.298 121.991 94.372 122.065 94.4274L132.475 99.6791C132.549 99.7161 132.642 99.7161 132.716 99.6606C132.79 99.6236 132.827 99.5312 132.827 99.4572V84.4604ZM132.346 84.6083V99.0689L122.416 94.0576V79.597L132.346 84.6083ZM168.423 75.4549C168.423 75.3624 168.368 75.2884 168.294 75.233L157.883 69.9813C157.809 69.9443 157.717 69.9443 157.643 69.9998C157.569 70.0368 157.532 70.1292 157.532 70.2032V85.2C157.532 85.2925 157.587 85.3665 157.661 85.4219L168.072 90.6736C168.146 90.7106 168.238 90.7106 168.312 90.6551C168.386 90.6181 168.423 90.5257 168.423 90.4517V75.4549ZM167.943 75.6028V90.0634L158.013 85.0521V70.5915L167.943 75.6028ZM151.078 66.6898C151.078 66.5973 151.023 66.5233 150.949 66.4679L140.538 61.2347C140.464 61.1977 140.371 61.1977 140.297 61.2532C140.223 61.2902 140.186 61.3826 140.186 61.4566V76.4534C140.186 76.5459 140.242 76.6198 140.316 76.6753L150.727 81.927C150.801 81.964 150.893 81.964 150.967 81.9085C151.041 81.8715 151.078 81.7791 151.078 81.7051V66.6898ZM150.597 66.8377V81.2983L140.667 76.287V61.8264L150.597 66.8377ZM132.827 57.4809C132.827 57.3884 132.771 57.3144 132.697 57.259L122.286 52.0258C122.212 51.9888 122.12 51.9888 122.046 52.0443C121.972 52.0813 121.935 52.1737 121.935 52.2477V67.2445C121.935 67.337 121.991 67.4109 122.065 67.4664L132.475 72.7181C132.549 72.7551 132.642 72.7551 132.716 72.6996C132.79 72.6441 132.827 72.5701 132.827 72.4962V57.4809ZM132.346 57.6288V72.0894L122.416 67.0781V52.6175L132.346 57.6288Z" fill="#505050"/>
<path fill-rule="evenodd" clip-rule="evenodd" d="M177.429 65.359L241.947 32.7949V211.167L177.429 243.712V65.359Z" fill="#D5D5D5"/>
<path fill-rule="evenodd" clip-rule="evenodd" d="M177.318 65.1554C177.244 65.1924 177.189 65.2849 177.189 65.3773V243.731C177.189 243.805 177.226 243.897 177.3 243.934C177.374 243.971 177.466 243.989 177.54 243.952L242.058 211.388C242.132 211.351 242.187 211.259 242.187 211.167V32.7948C242.187 32.7208 242.15 32.6284 242.076 32.5914C242.002 32.5544 241.91 32.5359 241.836 32.5729L177.318 65.1554ZM177.67 65.5068L241.707 33.2016V211.019C238.637 212.572 182.607 240.846 177.67 243.342V65.5068Z" fill="#505050"/>
<path fill-rule="evenodd" clip-rule="evenodd" d="M186.693 209.3L197.104 204.048V219.045L186.693 224.296V209.3ZM204.038 200.535L214.449 195.283V210.28L204.038 215.531V200.535ZM222.271 191.344L232.682 186.092V201.089L222.271 206.341V191.344ZM186.693 182.32L197.104 177.068V192.065L186.693 197.317V182.32ZM204.038 173.574L214.449 168.322V183.319L204.038 188.57V173.574ZM222.271 164.365L232.682 159.113V174.11L222.271 179.361V164.365ZM186.693 155.47L197.104 150.218V165.215L186.693 170.467V155.47ZM204.038 146.723L214.449 141.472V156.469L204.038 161.72V146.723ZM222.271 137.515L232.682 132.263V147.26L222.271 152.511V137.515ZM186.693 128.509L197.104 123.257V138.254L186.693 143.506V128.509ZM204.038 119.744L214.449 114.492V129.489L204.038 134.741V119.744ZM222.271 110.554L232.682 105.302V120.299L222.271 125.55V110.554ZM186.693 102.417L197.104 97.1655V112.162L186.693 117.414V102.417ZM204.038 93.6705L214.449 88.4189V103.397L204.038 108.649V93.6705ZM222.271 84.4616L232.682 79.21V94.2068L222.271 99.4585V84.4616ZM186.693 75.4561L197.104 70.2045V85.2013L186.693 90.453V75.4561ZM204.038 66.691L214.449 61.4394V76.4362L204.038 81.6879V66.691ZM222.271 57.4821L232.682 52.2305V67.2273L222.271 72.479V57.4821Z" fill="#505050"/>
<path fill-rule="evenodd" clip-rule="evenodd" d="M186.582 209.078C186.508 209.115 186.452 209.207 186.452 209.3V224.296C186.452 224.389 186.489 224.463 186.563 224.5C186.637 224.537 186.73 224.555 186.803 224.518L197.214 219.267C197.288 219.23 197.344 219.137 197.344 219.045V204.048C197.344 203.955 197.307 203.881 197.233 203.844C197.159 203.807 197.066 203.789 196.992 203.826L186.582 209.078ZM186.933 209.447L196.863 204.436V218.897L186.933 223.908V209.447ZM203.927 200.331C203.853 200.368 203.797 200.46 203.797 200.553V215.55C203.797 215.642 203.834 215.716 203.908 215.753C203.982 215.79 204.075 215.809 204.149 215.772L214.56 210.52C214.634 210.483 214.689 210.391 214.689 210.298V195.301C214.689 195.209 214.652 195.135 214.578 195.098C214.504 195.061 214.412 195.042 214.338 195.079L203.927 200.331ZM204.278 200.682L214.208 195.671V210.132L204.278 215.143V200.682ZM222.16 191.122C222.086 191.159 222.03 191.252 222.03 191.344V206.341C222.03 206.433 222.067 206.507 222.141 206.544C222.215 206.581 222.308 206.6 222.382 206.563L232.793 201.311C232.867 201.274 232.922 201.182 232.922 201.089V186.092C232.922 186 232.885 185.926 232.811 185.889C232.737 185.852 232.645 185.833 232.571 185.87L222.16 191.122ZM222.511 191.473L232.441 186.462V200.923L222.511 205.934V191.473ZM186.582 182.117C186.508 182.154 186.452 182.246 186.452 182.339V197.335C186.452 197.428 186.489 197.502 186.563 197.539C186.637 197.576 186.73 197.594 186.803 197.557L197.214 192.306C197.288 192.269 197.344 192.176 197.344 192.084V177.087C197.344 177.013 197.307 176.92 197.233 176.883C197.159 176.846 197.066 176.828 196.992 176.865L186.582 182.117ZM186.933 182.468L196.863 177.457V191.917L186.933 196.929V182.468ZM203.927 173.37C203.853 173.407 203.797 173.499 203.797 173.592V188.589C203.797 188.681 203.834 188.755 203.908 188.792C203.982 188.829 204.075 188.848 204.149 188.811L214.56 183.559C214.634 183.522 214.689 183.43 214.689 183.337V168.34C214.689 168.266 214.652 168.174 214.578 168.137C214.504 168.1 214.412 168.081 214.338 168.118L203.927 173.37ZM204.278 173.721L214.208 168.71V183.171L204.278 188.182V173.721ZM222.16 164.161C222.086 164.198 222.03 164.291 222.03 164.383V179.38C222.03 179.454 222.067 179.546 222.141 179.583C222.215 179.62 222.308 179.639 222.382 179.602L232.793 174.35C232.867 174.313 232.922 174.221 232.922 174.128V159.131C232.922 159.039 232.885 158.965 232.811 158.928C232.737 158.891 232.645 158.872 232.571 158.909L222.16 164.161ZM222.511 164.512L232.441 159.501V173.962L222.511 178.973V164.512ZM186.582 155.248C186.508 155.285 186.452 155.378 186.452 155.47V170.467C186.452 170.541 186.489 170.633 186.563 170.67C186.637 170.707 186.73 170.726 186.803 170.689L197.214 165.437C197.288 165.4 197.344 165.308 197.344 165.215V150.218C197.344 150.126 197.307 150.052 197.233 150.015C197.159 149.978 197.066 149.959 196.992 149.996L186.582 155.248ZM186.933 155.618L196.863 150.607V165.067L186.933 170.078V155.618ZM203.927 146.501C203.853 146.538 203.797 146.631 203.797 146.723V161.72C203.797 161.813 203.834 161.887 203.908 161.924C203.982 161.961 204.075 161.979 204.149 161.942L214.56 156.69C214.634 156.653 214.689 156.561 214.689 156.469V141.472C214.689 141.379 214.652 141.305 214.578 141.268C214.504 141.231 214.412 141.213 214.338 141.25L203.927 146.501ZM204.278 146.871L214.208 141.86V156.321L204.278 161.332V146.871ZM222.16 137.293C222.086 137.33 222.03 137.422 222.03 137.514V152.511C222.03 152.604 222.067 152.678 222.141 152.715C222.215 152.752 222.308 152.77 222.382 152.733L232.793 147.482C232.867 147.445 232.922 147.352 232.922 147.26V132.263C232.922 132.17 232.885 132.096 232.811 132.059C232.737 132.022 232.645 132.004 232.571 132.041L222.16 137.293ZM222.511 137.662L232.441 132.651V147.112L222.511 152.123V137.662ZM186.582 128.287C186.508 128.324 186.452 128.416 186.452 128.509V143.506C186.452 143.58 186.489 143.672 186.563 143.709C186.637 143.746 186.73 143.765 186.803 143.728L197.214 138.476C197.288 138.439 197.344 138.347 197.344 138.254V123.257C197.344 123.165 197.307 123.091 197.233 123.054C197.159 123.017 197.066 122.998 196.992 123.035L186.582 128.287ZM186.933 128.657L196.863 123.646V138.106L186.933 143.117V128.657ZM203.927 119.54C203.853 119.577 203.797 119.67 203.797 119.762V134.759C203.797 134.852 203.834 134.926 203.908 134.963C203.982 135 204.075 135.018 204.149 134.981L214.56 129.729C214.634 129.692 214.689 129.6 214.689 129.508V114.492C214.689 114.418 214.652 114.326 214.578 114.289C214.504 114.252 214.412 114.233 214.338 114.27L203.927 119.54ZM204.278 119.892L214.208 114.881V129.341L204.278 134.352V119.892ZM222.16 110.332C222.086 110.369 222.03 110.461 222.03 110.553V125.55C222.03 125.624 222.067 125.717 222.141 125.754C222.215 125.791 222.308 125.809 222.382 125.772L232.793 120.521C232.867 120.484 232.922 120.391 232.922 120.299V105.302C232.922 105.209 232.885 105.135 232.811 105.098C232.737 105.061 232.645 105.043 232.571 105.08L222.16 110.332ZM222.511 110.683L232.441 105.672V120.132L222.511 125.143V110.683ZM186.582 102.195C186.508 102.232 186.452 102.325 186.452 102.417V117.414C186.452 117.506 186.489 117.58 186.563 117.617C186.637 117.654 186.73 117.673 186.803 117.636L197.214 112.384C197.288 112.347 197.344 112.255 197.344 112.162V97.1654C197.344 97.0914 197.307 96.999 197.233 96.962C197.159 96.925 197.066 96.9065 196.992 96.9435L186.582 102.195ZM186.933 102.565L196.863 97.5537V112.014L186.933 117.026V102.565ZM203.927 93.4485C203.853 93.4855 203.797 93.578 203.797 93.6704V108.667C203.797 108.76 203.834 108.834 203.908 108.871C203.982 108.908 204.075 108.926 204.149 108.889L214.56 103.637C214.634 103.601 214.689 103.508 214.689 103.416V88.4188C214.689 88.3448 214.652 88.2523 214.578 88.2154C214.504 88.1784 214.412 88.1599 214.338 88.1969L203.927 93.4485ZM204.278 93.8184L214.208 88.8071V103.268L204.278 108.279V93.8184ZM222.16 84.2396C222.086 84.2766 222.03 84.3691 222.03 84.4615V99.4584C222.03 99.5323 222.067 99.6248 222.141 99.6618C222.215 99.6987 222.308 99.7172 222.382 99.6803L232.793 94.4286C232.867 94.3916 232.922 94.2992 232.922 94.2067V79.2099C232.922 79.1174 232.885 79.0434 232.811 79.0064C232.737 78.9695 232.645 78.951 232.571 78.988L222.16 84.2396ZM222.511 84.6095L232.441 79.5982V94.0588L222.511 99.07V84.6095ZM186.582 75.2341C186.508 75.2711 186.452 75.3636 186.452 75.456V90.4529C186.452 90.5453 186.489 90.6193 186.563 90.6563C186.637 90.6933 186.73 90.7117 186.803 90.6748L197.214 85.4231C197.288 85.3861 197.344 85.2937 197.344 85.2012V70.2044C197.344 70.1304 197.307 70.0379 197.233 70.0009C197.159 69.964 197.066 69.9455 196.992 69.9825L186.582 75.2341ZM186.933 75.604L196.863 70.5927V85.0533L186.933 90.0645V75.604ZM203.927 66.4875C203.853 66.5245 203.797 66.6169 203.797 66.7094V81.7062C203.797 81.7802 203.834 81.8727 203.908 81.9097C203.982 81.9466 204.075 81.9651 204.149 81.9281L214.56 76.6765C214.634 76.6395 214.689 76.547 214.689 76.4546V61.4392C214.689 61.3653 214.652 61.2728 214.578 61.2358C214.504 61.1989 214.412 61.1804 214.338 61.2173L203.927 66.4875ZM204.278 66.8389L214.208 61.8276V76.2882L204.278 81.2994V66.8389ZM222.16 57.2786C222.086 57.3156 222.03 57.408 222.03 57.5005V72.4973C222.03 72.5898 222.067 72.6638 222.141 72.7007C222.215 72.7377 222.308 72.7562 222.382 72.7192L232.793 67.4676C232.867 67.4306 232.922 67.3381 232.922 67.2457V52.2303C232.922 52.1564 232.885 52.0639 232.811 52.0269C232.737 51.9899 232.645 51.9715 232.571 52.0084L222.16 57.2786ZM222.511 57.6299L232.46 52.6187V67.0792L222.53 72.0905V57.6299H222.511Z" fill="#505050"/>
<path fill-rule="evenodd" clip-rule="evenodd" d="M177.43 0.249023L112.931 32.7946L177.43 65.3586L241.948 32.7946L177.43 0.249023Z" fill="white"/>
<path fill-rule="evenodd" clip-rule="evenodd" d="M177.541 0.0277377C177.467 -0.00924589 177.393 -0.00924589 177.319 0.0277377L112.819 32.5918C112.745 32.6287 112.69 32.7212 112.69 32.8137C112.69 32.9061 112.745 32.9801 112.819 33.0356L177.319 65.5811C177.393 65.6181 177.467 65.6181 177.541 65.5811L242.058 33.0171C242.132 32.9801 242.188 32.8876 242.188 32.7952C242.188 32.7027 242.132 32.6287 242.058 32.5733L177.541 0.0277377ZM177.43 0.508525L241.411 32.7952L177.43 65.0818L113.448 32.7952C118.885 30.0584 174.656 1.9139 177.43 0.508525Z" fill="#505050"/>
<path fill-rule="evenodd" clip-rule="evenodd" d="M177.503 6.53711L126.891 32.0928L178.853 58.3141L229.465 32.777L177.503 6.53711Z" fill="white"/>
<path fill-rule="evenodd" clip-rule="evenodd" d="M177.614 6.3334C177.54 6.29642 177.466 6.29642 177.392 6.3334L126.78 31.8706C126.706 31.9075 126.65 32 126.65 32.0925C126.65 32.1849 126.706 32.2589 126.78 32.3144L178.742 58.5357C178.816 58.5727 178.89 58.5727 178.964 58.5357L229.576 32.9801C229.65 32.9431 229.705 32.8506 229.705 32.7582C229.705 32.6657 229.65 32.5917 229.576 32.5363L177.614 6.3334ZM177.503 6.81419L228.928 32.7766L178.853 58.0364L127.427 32.0925L177.503 6.81419Z" fill="#505050"/>
<path fill-rule="evenodd" clip-rule="evenodd" d="M177.503 14.7844L221.31 36.8821L229.465 32.7769L177.503 6.53711V14.7844Z" fill="white"/>
<path fill-rule="evenodd" clip-rule="evenodd" d="M177.264 14.7851C177.264 14.8775 177.319 14.9515 177.393 15.007L221.2 37.1046C221.274 37.1416 221.348 37.1416 221.422 37.1046L229.577 32.981C229.651 32.944 229.706 32.8515 229.706 32.7591C229.706 32.6666 229.651 32.5926 229.577 32.5372L177.615 6.31581C177.541 6.27883 177.449 6.27883 177.375 6.33431C177.301 6.37129 177.264 6.46375 177.264 6.53771V14.7851ZM177.744 14.6371V6.94453C182.016 9.08958 224.233 30.4106 228.93 32.7776L221.311 36.6238L177.744 14.6371Z" fill="#505050"/>
<path fill-rule="evenodd" clip-rule="evenodd" d="M177.503 6.53711L126.891 32.0928L135.046 36.1979L177.503 14.7844V6.53711Z" fill="#505050"/>
<path fill-rule="evenodd" clip-rule="evenodd" d="M177.743 6.53698C177.743 6.46301 177.706 6.37056 177.632 6.33357C177.558 6.29659 177.466 6.2781 177.392 6.31508L126.78 31.8707C126.706 31.9077 126.65 32.0002 126.65 32.0926C126.65 32.1851 126.706 32.2591 126.78 32.3145L134.935 36.4382C135.009 36.4752 135.083 36.4752 135.157 36.4382L177.614 15.0062C177.688 14.9692 177.743 14.8768 177.743 14.7843V6.53698ZM177.262 6.9438V14.6364C174.766 15.8938 137.32 34.7924 135.046 35.9389L127.427 32.0926C132.272 29.6332 177.262 6.9438 177.262 6.9438Z" fill="#505050"/>
<path fill-rule="evenodd" clip-rule="evenodd" d="M241.947 211.166L205.463 229.565C196.476 224.554 190.743 213.015 190.743 196.908C190.743 168.32 208.791 136.107 231.019 124.994C234.791 123.108 238.452 121.943 241.929 121.462V211.166H241.947Z" fill="#505050"/>
<path fill-rule="evenodd" clip-rule="evenodd" d="M242.056 211.371C242.13 211.334 242.186 211.242 242.186 211.149V121.464C242.186 121.39 242.149 121.335 242.112 121.279C242.056 121.242 241.982 121.205 241.927 121.224C238.432 121.704 234.752 122.869 230.943 124.774C208.623 135.943 190.52 168.248 190.52 196.929C190.52 213.146 196.308 224.741 205.35 229.789C205.424 229.826 205.498 229.826 205.572 229.789L242.056 211.371ZM241.705 211.02L205.461 229.308C196.604 224.297 190.982 212.869 190.982 196.929C190.982 168.433 208.956 136.294 231.128 125.218C234.789 123.387 238.321 122.241 241.687 121.741C241.705 127.049 241.705 207.118 241.705 211.02Z" fill="#505050"/>
<path fill-rule="evenodd" clip-rule="evenodd" d="M251.396 135.184C273.624 124.071 291.672 138.254 291.672 166.824C291.672 195.412 273.624 227.624 251.396 238.738C229.169 249.852 211.121 235.668 211.121 207.099C211.121 178.529 229.169 146.298 251.396 135.184Z" fill="#65B770"/>
<path fill-rule="evenodd" clip-rule="evenodd" d="M251.303 134.98C229.002 146.112 210.88 178.436 210.88 207.117C210.88 221.503 215.429 232.247 222.771 238.016C230.13 243.804 240.282 244.581 251.507 238.978C273.808 227.827 291.911 195.504 291.911 166.842C291.911 152.455 287.362 141.711 280.021 135.942C272.661 130.154 262.509 129.359 251.303 134.98ZM251.507 135.406C262.528 129.895 272.495 130.635 279.725 136.312C286.974 142.007 291.431 152.64 291.431 166.823C291.431 195.319 273.457 227.458 251.285 238.534C240.264 244.045 230.297 243.305 223.066 237.628C215.818 231.933 211.361 221.3 211.361 207.117C211.361 178.621 229.354 146.482 251.507 135.406Z" fill="#505050"/>
<path fill-rule="evenodd" clip-rule="evenodd" d="M281.667 137.681C284.293 140.196 286.475 143.45 288.12 147.315L254.817 210.094C253.744 212.277 252.154 214.144 250.342 215.05C248.659 215.901 247.143 215.734 246.089 214.773L246.07 214.754L228.521 198.907C228.299 198.759 228.115 198.574 227.93 198.371C227.153 197.483 226.691 196.133 226.691 194.395C226.691 190.29 229.28 185.648 232.479 184.04C234.106 183.226 235.585 183.355 236.639 184.224C236.713 184.28 236.769 184.335 236.843 184.409L250.36 196.614L281.667 137.681Z" fill="#505050"/>
<path fill-rule="evenodd" clip-rule="evenodd" d="M236.658 184.464C236.658 184.446 236.88 184.094 236.825 184.039C235.697 183.114 234.143 182.948 232.405 183.817C229.132 185.444 226.469 190.178 226.469 194.376C226.469 196.188 226.969 197.593 227.764 198.518C227.949 198.74 228.17 198.925 228.392 199.091C228.873 199.535 245.923 214.939 245.923 214.939L245.941 214.957H245.923C247.051 215.956 248.659 216.159 250.453 215.272C252.284 214.347 253.948 212.461 255.039 210.223L288.361 147.462C288.398 147.407 288.398 147.314 288.361 147.259C286.697 143.357 284.496 140.084 281.852 137.532C281.797 137.477 281.723 137.458 281.649 137.477C281.575 137.495 281.501 137.532 281.482 137.606L250.305 196.225C248.548 194.635 237.231 184.446 237.01 184.224C236.936 184.15 236.862 184.094 236.788 184.039C236.862 184.094 236.899 184.205 236.862 184.298C236.843 184.39 236.751 184.464 236.658 184.464ZM254.595 210.001C253.56 212.128 251.988 213.959 250.231 214.846C248.659 215.641 247.236 215.494 246.237 214.606L246.218 214.587L228.67 198.74L228.651 198.721C228.448 198.574 228.263 198.407 228.097 198.222C227.357 197.372 226.913 196.059 226.913 194.394C226.913 190.363 229.446 185.833 232.572 184.261C234.106 183.503 235.493 183.595 236.473 184.427C236.547 184.483 236.603 184.538 236.658 184.594L250.176 196.798C250.231 196.854 250.305 196.872 250.379 196.854C250.453 196.835 250.509 196.798 250.546 196.724L281.686 138.087C284.164 140.528 286.235 143.634 287.825 147.314L254.595 210.001ZM246.052 214.791C246.052 214.902 246.052 214.994 246.052 214.994H246.071V215.013L246.015 214.994H246.034L246.071 215.013H246.052H246.034C245.96 214.939 245.719 214.698 245.941 214.587C245.997 214.532 246.034 214.661 246.052 214.791ZM254.817 210.334L254.706 209.89C254.762 209.854 254.817 210.334 254.817 210.334ZM227.93 198.592C227.93 198.592 227.764 198.167 227.727 198.222L227.93 198.592ZM236.64 184.464C236.64 184.464 236.455 184.057 236.436 184.113C236.307 184.335 236.64 184.464 236.64 184.464Z" fill="#505050"/>
<path fill-rule="evenodd" clip-rule="evenodd" d="M290.581 141.396C291.635 139.121 293.299 137.161 295.148 136.236C298.347 134.646 300.936 136.68 300.936 140.785C300.936 142.505 300.474 144.317 299.715 145.963C299.512 146.407 299.272 146.851 299.031 147.257L263.416 214.401C262.344 216.583 260.753 218.451 258.941 219.357C257.258 220.208 255.742 220.023 254.688 219.08L254.669 219.061L237.139 203.214C236.917 203.066 236.732 202.881 236.548 202.677C235.771 201.79 235.309 200.44 235.309 198.702C235.309 194.596 237.897 189.955 241.097 188.346C242.724 187.533 244.203 187.662 245.257 188.531C245.331 188.587 245.387 188.642 245.461 188.716L258.978 200.921L290.581 141.396Z" fill="white"/>
<path fill-rule="evenodd" clip-rule="evenodd" d="M290.377 141.287L258.904 200.517C257.147 198.926 245.831 188.737 245.609 188.515C245.535 188.442 245.461 188.386 245.387 188.331C245.461 188.386 245.498 188.497 245.461 188.589C245.424 188.682 245.331 188.756 245.239 188.756C245.239 188.737 245.461 188.386 245.405 188.331C244.277 187.406 242.724 187.24 240.986 188.109C237.713 189.736 235.05 194.47 235.05 198.667C235.05 200.48 235.549 201.885 236.344 202.81C236.529 203.032 236.751 203.216 236.973 203.383L254.503 219.23L254.522 219.249H254.503C255.631 220.247 257.24 220.451 259.034 219.563C260.864 218.639 262.529 216.752 263.62 214.515L299.253 147.39C299.512 146.964 299.734 146.539 299.956 146.077V146.095L299.753 146.225L299.974 146.095C300.751 144.413 301.213 142.563 301.213 140.807C301.213 138.662 300.511 137.053 299.42 136.202C298.31 135.333 296.775 135.185 295.074 136.036C293.151 136.96 291.45 138.957 290.377 141.287ZM299.512 145.873C299.309 146.317 299.087 146.743 298.828 147.149C298.828 147.149 298.828 147.149 298.828 147.168L263.194 214.293V214.312C262.159 216.457 260.587 218.269 258.83 219.156C257.258 219.952 255.835 219.804 254.836 218.916L254.818 218.897L237.269 203.05L237.25 203.032C237.047 202.884 236.862 202.717 236.696 202.532C235.956 201.682 235.512 200.369 235.512 198.704C235.512 194.673 238.045 190.143 241.171 188.571C242.705 187.813 244.092 187.905 245.072 188.737C245.146 188.793 245.202 188.848 245.257 188.904L258.775 201.108C258.83 201.164 258.904 201.182 258.978 201.164C259.052 201.145 259.108 201.108 259.145 201.034L290.747 141.528V141.509C291.783 139.272 293.391 137.367 295.204 136.461C296.701 135.703 298.07 135.795 299.05 136.572C300.048 137.367 300.659 138.828 300.659 140.807C300.714 142.471 300.27 144.246 299.512 145.873ZM254.651 219.082C254.651 219.193 254.651 219.286 254.651 219.286H254.67V219.304L254.614 219.286H254.633L254.67 219.304H254.651H254.633C254.559 219.23 254.318 218.99 254.54 218.879C254.614 218.842 254.633 218.971 254.651 219.082ZM263.416 214.644L263.305 214.201C263.379 214.145 263.416 214.626 263.416 214.644ZM236.529 202.902C236.529 202.902 236.363 202.477 236.326 202.532L236.529 202.902ZM245.257 188.756C245.257 188.756 245.072 188.349 245.054 188.405C244.906 188.645 245.257 188.756 245.257 188.756ZM299.937 146.077L299.734 146.206C299.827 146.206 299.9 146.151 299.937 146.077ZM299.512 145.873C299.494 145.91 299.494 145.929 299.494 145.947C299.494 146.003 299.494 146.058 299.531 146.095C299.568 146.169 299.66 146.206 299.734 146.206C299.697 146.206 299.66 146.206 299.623 146.188C299.586 146.169 299.549 146.132 299.531 146.095C299.494 146.058 299.494 146.003 299.494 145.947C299.494 145.929 299.512 145.892 299.512 145.873ZM299.734 146.206C299.716 146.206 299.494 146.114 299.494 145.947C299.494 145.91 299.512 145.892 299.512 145.855V145.836C299.549 145.799 299.734 146.188 299.734 146.206Z" fill="#505050"/>
<path fill-rule="evenodd" clip-rule="evenodd" d="M255.391 219.563L249.936 216.826C249.677 216.697 249.455 216.53 249.233 216.345L249.215 216.327L231.684 200.479C231.463 200.332 231.278 200.147 231.093 199.943C230.316 199.056 229.854 197.706 229.854 195.967C229.854 191.862 232.443 187.221 235.642 185.612C237.029 184.928 238.286 184.909 239.285 185.446L244.444 188.034C243.501 187.646 242.336 187.72 241.097 188.33C237.898 189.921 235.309 194.562 235.309 198.686C235.309 200.424 235.771 201.792 236.548 202.661C236.733 202.865 236.936 203.05 237.14 203.198L254.67 219.045L254.688 219.064C254.91 219.267 255.132 219.434 255.391 219.563ZM254.318 196.689L285.144 138.661C286.198 136.387 287.862 134.427 289.712 133.502C291.043 132.837 292.282 132.8 293.262 133.299L298.717 136.036C297.737 135.536 296.498 135.573 295.167 136.239C293.318 137.164 291.653 139.124 290.599 141.398L258.978 200.905L254.318 196.689Z" fill="white"/>
<path fill-rule="evenodd" clip-rule="evenodd" d="M255.373 219.804C255.503 219.804 255.595 219.73 255.614 219.619C255.632 219.582 255.614 219.527 255.614 219.49V219.471C255.595 219.416 255.558 219.379 255.503 219.36C255.262 219.249 255.04 219.101 254.855 218.916L254.837 218.898L237.288 203.05L237.27 203.032C237.066 202.884 236.881 202.718 236.715 202.533C235.975 201.682 235.532 200.369 235.532 198.705C235.532 194.674 238.065 190.143 241.19 188.571C242.374 187.98 243.446 187.906 244.352 188.275C244.371 188.275 244.371 188.275 244.389 188.294H244.408C244.408 188.294 244.408 188.294 244.426 188.294C244.537 188.294 244.63 188.22 244.667 188.109C244.685 188.072 244.667 188.017 244.667 187.98V187.961C244.648 187.906 244.611 187.869 244.556 187.85L239.396 185.261C238.342 184.688 236.992 184.688 235.532 185.428C232.259 187.055 229.596 191.789 229.596 195.987C229.596 197.799 230.076 199.204 230.89 200.129C231.075 200.351 231.297 200.535 231.519 200.702L249.049 216.549L249.068 216.568H249.049C249.289 216.771 249.53 216.956 249.807 217.086L255.262 219.822C255.318 219.785 255.355 219.785 255.373 219.804ZM254.615 218.898C254.597 218.861 254.597 218.861 254.578 218.861H254.56L254.615 218.898ZM239.174 185.65L242.965 187.554C242.337 187.591 241.689 187.776 240.987 188.109C237.714 189.736 235.051 194.47 235.051 198.668C235.051 200.48 235.55 201.885 236.345 202.81C236.53 203.032 236.752 203.217 236.974 203.383L253.543 218.362L250.048 216.605C249.807 216.494 249.585 216.346 249.4 216.161L249.382 216.143L231.833 200.295L231.815 200.277C231.611 200.129 231.426 199.962 231.26 199.777C230.52 198.927 230.076 197.614 230.076 195.95C230.076 191.918 232.61 187.388 235.735 185.816C237.029 185.169 238.231 185.15 239.174 185.65ZM250.159 216.882C250.14 216.993 250.029 217.067 249.918 217.067C250.029 217.067 250.122 216.993 250.159 216.882ZM249.197 216.364C249.197 216.475 249.197 216.568 249.197 216.568H249.215V216.586L249.16 216.568H249.179L249.215 216.586H249.197H249.179C249.105 216.512 248.864 216.272 249.086 216.161C249.16 216.124 249.179 216.235 249.197 216.364ZM236.53 202.902L236.327 202.533C236.364 202.477 236.53 202.902 236.53 202.902ZM298.699 136.258C298.81 136.258 298.903 136.203 298.94 136.11C298.94 136.092 298.958 136.073 298.958 136.073C298.977 135.962 298.94 135.851 298.829 135.796L293.374 133.059C292.338 132.541 291.025 132.56 289.602 133.262C287.697 134.205 286.014 136.203 284.923 138.533L254.097 196.578C254.042 196.671 254.06 196.8 254.153 196.874L258.813 201.09C258.868 201.146 258.942 201.164 259.016 201.146C259.09 201.127 259.146 201.09 259.183 201.016L290.785 141.51V141.491C291.821 139.254 293.429 137.349 295.242 136.443C296.499 135.814 297.664 135.777 298.589 136.24C298.644 136.24 298.663 136.258 298.699 136.258ZM293.152 133.503L297.035 135.444C296.407 135.481 295.741 135.666 295.038 136.018C293.133 136.961 291.451 138.958 290.36 141.288L258.905 200.517L254.597 196.634L285.348 138.773V138.754C286.384 136.517 287.993 134.612 289.805 133.706C291.062 133.096 292.227 133.04 293.152 133.503ZM231.075 200.166C231.075 200.166 230.909 199.74 230.872 199.796L231.075 200.166ZM239.507 185.372C239.526 185.428 239.285 185.687 239.285 185.687C239.396 185.687 239.489 185.613 239.526 185.502C239.526 185.446 239.526 185.409 239.507 185.372ZM239.396 185.224L239.285 185.668C239.285 185.65 239.415 185.15 239.507 185.335C239.47 185.298 239.433 185.261 239.396 185.224ZM293.263 133.54C293.263 133.54 293.096 133.114 293.059 133.17C292.912 133.392 293.263 133.521 293.263 133.54Z" fill="#505050"/>
<path fill-rule="evenodd" clip-rule="evenodd" d="M226.71 240.218L213.119 233.432C203.632 228.698 197.53 216.937 197.53 200.331C197.53 171.743 215.578 139.53 237.805 128.417C247.107 123.757 255.687 123.535 262.51 126.956L276.102 133.724C269.278 130.321 260.716 130.525 251.397 135.185C229.169 146.298 211.121 178.53 211.121 207.118C211.121 223.723 217.224 235.484 226.71 240.218Z" fill="#FBDFC0"/>
<path fill-rule="evenodd" clip-rule="evenodd" d="M276.083 133.963C276.193 133.963 276.267 133.907 276.304 133.833C276.304 133.815 276.323 133.796 276.323 133.796C276.341 133.686 276.304 133.575 276.193 133.519L262.602 126.733C255.723 123.293 247.069 123.497 237.694 128.193C215.393 139.344 197.289 171.668 197.289 200.33C197.289 217.065 203.465 228.881 213.007 233.652L226.599 240.439C226.636 240.457 226.654 240.457 226.691 240.457H226.709C226.802 240.457 226.894 240.402 226.931 240.309C226.931 240.291 226.95 240.272 226.95 240.272C226.968 240.161 226.931 240.05 226.82 239.995C217.408 235.279 211.38 223.611 211.38 207.098C211.38 178.602 229.354 146.463 251.525 135.387C260.753 130.782 269.241 130.542 276.009 133.926C276.027 133.944 276.046 133.963 276.083 133.963ZM262.417 127.139L271.922 131.892C265.875 130.32 258.83 131.189 251.304 134.961C229.002 146.112 210.881 178.436 210.881 207.116C210.881 221.448 215.411 232.173 222.715 237.961L213.229 233.208C203.817 228.493 197.788 216.825 197.788 200.311C197.788 171.816 215.762 139.677 237.934 128.6C247.143 123.996 255.649 123.755 262.417 127.139ZM213.118 233.652C213.118 233.652 212.933 233.245 212.896 233.319C212.804 233.56 213.118 233.652 213.118 233.652ZM262.51 127.176C262.51 127.176 262.325 126.77 262.288 126.844C262.195 127.065 262.51 127.158 262.51 127.176Z" fill="#505050"/>
<path fill-rule="evenodd" clip-rule="evenodd" d="M101.372 235.336C113.817 235.336 123.913 240.384 123.913 246.616C123.913 252.848 113.817 257.896 101.372 257.896C88.9266 257.896 78.8301 252.848 78.8301 246.616C78.8301 240.403 88.9266 235.336 101.372 235.336Z" fill="#505050"/>
<path fill-rule="evenodd" clip-rule="evenodd" d="M101.372 235.096C93.8459 235.096 87.1704 236.926 83.0467 239.756C80.236 241.679 78.5902 244.046 78.5902 246.616C78.5902 249.168 80.236 251.553 83.0467 253.477C87.1889 256.287 93.8459 258.136 101.372 258.136C108.898 258.136 115.574 256.306 119.697 253.477C122.508 251.553 124.154 249.186 124.154 246.616C124.154 244.064 122.508 241.679 119.697 239.756C115.574 236.945 108.898 235.096 101.372 235.096ZM101.372 235.576C108.787 235.576 115.352 237.37 119.439 240.144C122.101 241.956 123.692 244.175 123.692 246.598C123.692 249.02 122.101 251.239 119.439 253.051C115.37 255.825 108.787 257.619 101.372 257.619C93.9569 257.619 87.3923 255.825 83.3056 253.051C80.6428 251.239 79.0525 249.02 79.0525 246.598C79.0525 244.175 80.6428 241.956 83.3056 240.144C87.3923 237.389 93.9569 235.576 101.372 235.576Z" fill="#505050"/>
<path fill-rule="evenodd" clip-rule="evenodd" d="M94.1782 226.551C106.623 226.551 116.72 231.599 116.72 237.831C116.72 244.062 106.623 249.111 94.1782 249.111C81.7332 249.111 71.6367 244.062 71.6367 237.831C71.6367 231.618 81.7332 226.551 94.1782 226.551Z" fill="#FBDFC0"/>
<path fill-rule="evenodd" clip-rule="evenodd" d="M94.1777 226.312C86.6516 226.312 79.9761 228.143 75.8524 230.972C73.0416 232.896 71.3959 235.263 71.3959 237.833C71.3959 240.385 73.0416 242.77 75.8524 244.693C79.9946 247.504 86.6516 249.353 94.1777 249.353C101.704 249.353 108.379 247.523 112.503 244.693C115.314 242.77 116.96 240.403 116.96 237.833C116.96 235.281 115.314 232.896 112.503 230.972C108.379 228.162 101.704 226.312 94.1777 226.312ZM94.1777 226.793C101.593 226.793 108.158 228.587 112.244 231.361C114.907 233.173 116.497 235.392 116.497 237.814C116.497 240.237 114.907 242.456 112.244 244.268C108.176 247.042 101.593 248.835 94.1777 248.835C86.7625 248.835 80.198 247.042 76.1113 244.268C73.4485 242.456 71.8582 240.237 71.8582 237.814C71.8582 235.392 73.4485 233.173 76.1113 231.361C80.198 228.587 86.781 226.793 94.1777 226.793Z" fill="#505050"/>
<path fill-rule="evenodd" clip-rule="evenodd" d="M71.637 237.869C71.674 244.082 81.7705 249.112 94.1785 249.112C106.605 249.112 116.683 244.082 116.72 237.869V237.832V245.987C116.72 252.219 106.623 257.267 94.1785 257.267H94.0306C81.6596 257.23 71.6185 252.182 71.6185 245.987V237.832L71.637 237.869Z" fill="#65B770"/>
<path fill-rule="evenodd" clip-rule="evenodd" d="M71.6366 238.054C71.6736 237.961 71.8585 237.647 71.8585 237.832V237.869C71.877 240.273 73.4673 242.51 76.1301 244.304C80.1983 247.078 86.7628 248.871 94.1596 248.871C101.556 248.871 108.121 247.078 112.189 244.304C114.852 242.492 116.442 240.273 116.461 237.869V237.832L116.701 238.072L116.941 237.832V245.987C116.941 248.538 115.296 250.924 112.485 252.847C108.343 255.676 101.686 257.507 94.1596 257.507H94.0116C86.5225 257.488 79.9024 255.639 75.7972 252.828C73.005 250.905 71.3777 248.538 71.3777 246.005V237.832L71.6181 238.072L71.6366 238.054ZM116.498 240.199V245.987C116.498 248.409 114.907 250.628 112.245 252.44C108.176 255.214 101.593 257.008 94.1781 257.008H94.0301C86.6519 256.989 80.1243 255.177 76.0746 252.403C73.4303 250.591 71.8585 248.372 71.8585 245.968V240.18C72.5427 241.844 73.9296 243.379 75.8527 244.692C79.9949 247.503 86.6519 249.334 94.1596 249.334C101.667 249.334 108.324 247.503 112.466 244.692C114.427 243.379 115.813 241.863 116.498 240.199Z" fill="#505050"/>
<path fill-rule="evenodd" clip-rule="evenodd" d="M111.691 182.265C108.51 196.17 96.4534 201.94 96.4534 207.303C96.4534 213.405 111.728 217.159 112.393 237.611C112.171 233.875 104.09 230.88 94.1789 230.88C84.2673 230.88 76.1864 233.875 75.9645 237.611C76.6487 217.159 91.9044 213.423 91.9229 207.303C91.9229 201.94 79.8662 196.17 76.6857 182.265C80.7908 184.169 87.0411 185.408 94.0494 185.427H94.1974C101.243 185.427 107.548 184.206 111.691 182.265Z" fill="white" fill-opacity="0.5"/>
<path fill-rule="evenodd" clip-rule="evenodd" d="M111.931 182.32C111.95 182.228 111.913 182.135 111.857 182.08C111.783 182.024 111.691 182.006 111.598 182.043C107.493 183.947 101.206 185.168 94.1974 185.168H94.0495C87.0781 185.149 80.8648 183.929 76.7966 182.043C76.7227 182.006 76.6117 182.024 76.5378 182.08C76.4638 182.135 76.4268 182.228 76.4638 182.32C78.3869 190.715 83.5092 196.152 87.3 200.331C88.7978 201.977 90.0922 203.419 90.8874 204.788C91.3867 205.657 91.701 206.489 91.701 207.302C91.701 208.467 91.1093 209.54 90.1662 210.686C89.1861 211.87 87.8362 213.109 86.3569 214.551C81.8634 218.952 76.1679 225.258 75.7611 237.61C75.7611 237.74 75.8536 237.851 75.983 237.851C76.1125 237.851 76.2234 237.758 76.2419 237.629C76.3344 236.205 77.6473 234.911 79.7553 233.857C83.0469 232.192 88.2985 231.138 94.1974 231.138C100.096 231.138 105.348 232.211 108.639 233.857C110.766 234.929 112.079 236.205 112.153 237.629C112.153 237.758 112.264 237.851 112.412 237.851C112.541 237.851 112.652 237.74 112.634 237.61C112.227 225.258 106.531 218.952 102.038 214.551C100.559 213.109 99.2087 211.87 98.2286 210.686C97.2855 209.558 96.6938 208.467 96.6938 207.302C96.6938 206.489 96.9897 205.657 97.5074 204.788C98.3026 203.438 99.597 201.995 101.095 200.331C104.886 196.17 110.008 190.715 111.931 182.32ZM111.339 182.69C109.361 190.715 104.405 195.967 100.725 200.017C99.2087 201.699 97.8958 203.16 97.0821 204.547C96.5274 205.49 96.213 206.415 96.213 207.302C96.213 208.32 96.6198 209.281 97.304 210.261C98.3026 211.667 99.9114 213.127 101.705 214.884C105.94 219.026 111.247 224.87 112.06 235.983C111.45 235.04 110.341 234.153 108.843 233.413C105.496 231.73 100.17 230.639 94.1789 230.639C88.1876 230.639 82.862 231.73 79.5149 233.413C78.0171 234.171 76.9076 235.04 76.2974 235.983C77.111 224.87 82.4366 219.008 86.6528 214.884C88.4465 213.127 90.0553 211.667 91.0538 210.261C91.738 209.281 92.1448 208.32 92.1448 207.302C92.1448 206.396 91.8305 205.49 91.2757 204.547C90.4621 203.16 89.1677 201.699 87.6328 200.017C83.953 195.967 78.9787 190.715 77.0186 182.69C81.1422 184.502 87.2445 185.649 94.031 185.667H94.1789C101.039 185.667 107.179 184.521 111.339 182.69Z" fill="#505050"/>
<path fill-rule="evenodd" clip-rule="evenodd" d="M94.1789 228.717C104.238 228.717 112.393 232.803 112.393 237.833C112.393 242.863 104.238 246.95 94.1789 246.95C84.1194 246.95 75.9645 242.863 75.9645 237.833C75.9645 232.803 84.1378 228.717 94.1789 228.717Z" fill="#FBDFC0"/>
<path fill-rule="evenodd" clip-rule="evenodd" d="M94.1784 228.494C88.0946 228.494 82.695 229.992 79.348 232.266C77.055 233.82 75.7236 235.761 75.7236 237.851C75.7236 239.941 77.055 241.864 79.348 243.436C82.695 245.71 88.0946 247.208 94.1784 247.208C100.262 247.208 105.662 245.71 109.009 243.436C111.302 241.882 112.633 239.941 112.633 237.851C112.633 235.761 111.302 233.838 109.009 232.266C105.68 229.973 100.281 228.494 94.1784 228.494ZM94.1784 228.956C100.151 228.956 105.458 230.399 108.75 232.636C110.877 234.097 112.171 235.872 112.171 237.814C112.171 239.756 110.895 241.531 108.75 242.992C105.458 245.229 100.17 246.672 94.1784 246.672C88.2056 246.672 82.8984 245.229 79.6069 242.992C77.4804 241.531 76.1859 239.756 76.1859 237.814C76.1859 235.872 77.4619 234.097 79.6069 232.636C82.8984 230.417 88.2056 228.956 94.1784 228.956Z" fill="#505050"/>
<path fill-rule="evenodd" clip-rule="evenodd" d="M106.014 237.426C106.033 237.352 106.033 237.278 106.051 237.204C106.107 234.061 94.1611 222.892 94.1611 222.892C94.1611 222.892 82.4558 234.061 82.3264 237.204C82.3079 237.334 82.3079 237.463 82.3079 237.593C82.3079 240.866 87.615 243.528 94.1796 243.528C100.726 243.528 106.051 240.866 106.051 237.593C106.033 237.537 106.033 237.482 106.014 237.426Z" fill="#65B770"/>
<path fill-rule="evenodd" clip-rule="evenodd" d="M82.0855 237.185C82.067 237.315 82.067 237.444 82.067 237.592C82.067 238.979 82.9546 240.255 84.4525 241.29C86.6345 242.788 90.1664 243.768 94.1606 243.768C98.1364 243.768 101.687 242.788 103.869 241.29C105.385 240.255 106.254 238.979 106.254 237.592C106.254 237.537 106.254 237.5 106.254 237.444C106.273 237.37 106.273 237.296 106.273 237.204C106.273 236.797 106.106 236.261 105.792 235.65C105.348 234.781 104.59 233.709 103.684 232.581C100.189 228.217 94.3271 222.743 94.3271 222.743C94.2346 222.651 94.0867 222.651 93.9942 222.743C93.9942 222.743 88.2433 228.217 84.7483 232.599C83.8422 233.727 83.0841 234.8 82.6218 235.669C82.2889 236.261 82.104 236.797 82.0855 237.185ZM105.792 237.37C105.792 237.389 105.792 237.426 105.792 237.444C105.792 237.5 105.792 237.537 105.792 237.592C105.792 238.831 104.978 239.959 103.61 240.902C101.483 242.344 98.0439 243.288 94.1791 243.288C90.3144 243.288 86.8749 242.344 84.7483 240.902C83.3799 239.978 82.5663 238.831 82.5663 237.592C82.5663 237.481 82.5663 237.352 82.5848 237.241L82.3444 237.444L82.5848 237.204C82.6033 236.852 82.7697 236.39 83.0656 235.872C83.5279 235.022 84.2675 233.986 85.1551 232.877C88.2803 228.956 93.2361 224.149 94.1976 223.224C95.1777 224.149 100.207 228.956 103.351 232.877C104.239 233.986 104.978 235.022 105.404 235.872C105.681 236.409 105.847 236.852 105.829 237.204C105.81 237.259 105.81 237.315 105.792 237.37ZM82.0855 237.204C82.0855 237.426 82.3259 237.444 82.3259 237.444L82.0855 237.204ZM82.104 237.204L82.3074 237.444C82.3259 237.444 82.178 237.259 82.104 237.204Z" fill="#505050"/>
<path fill-rule="evenodd" clip-rule="evenodd" d="M91.8315 243.417C92.5897 243.491 93.3664 243.528 94.18 243.528C100.726 243.528 106.052 240.866 106.052 237.593C106.052 237.537 106.052 237.482 106.052 237.426C106.07 237.352 106.07 237.278 106.089 237.204C106.144 234.061 94.1985 222.892 94.1985 222.892C96.0477 227.496 103.87 242.363 91.8315 243.417Z" fill="#505050"/>
<path fill-rule="evenodd" clip-rule="evenodd" d="M91.8125 243.177C91.683 243.195 91.5906 243.288 91.5906 243.417C91.5906 243.547 91.683 243.639 91.8125 243.658C92.5706 243.731 93.3658 243.768 94.1794 243.768C98.1552 243.768 101.706 242.788 103.888 241.291C105.404 240.255 106.273 238.979 106.273 237.592C106.273 237.537 106.273 237.5 106.273 237.444C106.292 237.37 106.292 237.296 106.292 237.204C106.292 236.797 106.125 236.261 105.811 235.651C105.367 234.781 104.609 233.709 103.703 232.581C100.189 228.217 94.3274 222.743 94.3274 222.743C94.2534 222.669 94.124 222.651 94.0315 222.725C93.939 222.78 93.902 222.91 93.939 223.021C94.8821 225.295 97.3045 230.14 97.9702 234.541C98.3771 237.111 98.1737 239.534 96.6758 241.18C95.6958 242.234 94.1424 242.973 91.8125 243.177ZM93.9205 243.288C95.2889 242.899 96.306 242.271 97.0457 241.475C98.6359 239.737 98.8763 237.185 98.451 234.449C97.8593 230.602 95.9546 226.442 94.8451 223.89C96.5834 225.573 100.652 229.548 103.314 232.895C104.202 234.005 104.942 235.04 105.367 235.891C105.644 236.427 105.811 236.871 105.792 237.222C105.792 237.278 105.792 237.333 105.774 237.389C105.774 237.407 105.774 237.444 105.774 237.463C105.774 237.518 105.774 237.555 105.774 237.611C105.774 238.85 104.96 239.978 103.592 240.921C101.465 242.363 98.0257 243.306 94.1609 243.306C94.087 243.288 94.013 243.288 93.9205 243.288Z" fill="#505050"/>
<path fill-rule="evenodd" clip-rule="evenodd" d="M93.7907 190.419C93.8647 190.419 93.9572 190.419 94.0311 190.419C94.0866 190.419 94.1236 190.419 94.1791 190.419C97.9884 190.53 101.354 192.083 101.354 194.006C101.354 194.043 101.354 194.08 101.354 194.099C101.372 194.136 101.372 194.191 101.372 194.228C101.409 196.133 95.1221 202.42 94.1791 205.656C93.236 202.42 86.9488 196.133 86.9858 194.228C86.9858 194.191 86.9858 194.136 87.0043 194.099C87.0043 194.062 87.0043 194.043 87.0043 194.006C86.9858 192.083 89.9999 190.511 93.7907 190.419Z" fill="#65B770"/>
<path fill-rule="evenodd" clip-rule="evenodd" d="M93.9761 190.271C93.9391 190.215 93.8651 190.16 93.7727 190.16C93.8466 190.16 93.9391 190.16 94.0131 190.16C94.0685 190.16 94.1055 190.16 94.161 190.16C94.087 190.178 94.0316 190.215 93.9761 190.271C93.9946 190.308 94.0131 190.345 94.0131 190.382C94.0131 190.4 94.0131 190.419 94.0131 190.437C94.0685 190.511 94.161 190.604 94.1795 190.622C94.1795 190.622 94.3829 190.234 94.4199 190.345C94.4014 190.234 94.3089 190.141 94.198 190.141C96.528 190.197 98.71 190.807 100.078 191.713C101.058 192.342 101.613 193.137 101.613 193.969C101.613 193.988 101.613 194.025 101.613 194.043C101.632 194.099 101.632 194.136 101.632 194.191C101.632 194.45 101.539 194.783 101.373 195.153C101.132 195.67 100.726 196.318 100.226 197.02C98.3401 199.702 95.0856 203.437 94.4199 205.674C94.4199 205.674 94.4199 205.674 94.4199 205.693C94.4199 205.693 94.4199 205.711 94.4014 205.711L94.3829 205.73C94.3829 205.73 94.3829 205.73 94.3644 205.73C94.3644 205.73 94.3644 205.73 94.3459 205.73C94.3459 205.73 94.3274 205.73 94.3274 205.748C94.3274 205.748 94.3274 205.748 94.3089 205.748C94.3089 205.748 94.3089 205.748 94.2904 205.748H94.272L94.0501 205.582C93.4028 203.326 90.1298 199.609 88.2436 196.928C87.7444 196.225 87.3375 195.578 87.0971 195.06C86.9122 194.672 86.8198 194.357 86.8383 194.099C86.8383 194.043 86.8383 194.006 86.8568 193.951C86.8568 193.932 86.8568 193.895 86.8568 193.877C86.8568 193.044 87.356 192.249 88.2621 191.621C89.5196 190.715 91.5537 190.104 93.8836 190.049V190.53C93.8836 190.53 93.9761 190.363 94.0316 190.271C93.9391 190.345 93.9576 190.308 93.9761 190.271ZM93.7912 190.641C93.8651 190.641 93.9391 190.641 94.0316 190.641H94.1795C96.417 190.696 98.4881 191.269 99.801 192.138C100.615 192.675 101.132 193.303 101.132 194.006C101.132 194.043 101.132 194.062 101.132 194.099C101.132 194.117 101.132 194.154 101.132 194.173C101.132 194.191 101.151 194.228 101.151 194.246C101.151 194.524 101.003 194.894 100.763 195.356C100.356 196.096 99.7085 197.02 98.9504 198.019C97.2306 200.312 95.0301 203.03 94.198 204.972C93.3659 203.03 91.1653 200.312 89.4456 198.019C88.6874 197.02 88.0402 196.096 87.6334 195.356C87.393 194.912 87.2266 194.524 87.2451 194.246C87.2451 194.228 87.2451 194.191 87.2636 194.173C87.2636 194.154 87.2636 194.117 87.2636 194.099C87.2636 194.062 87.2636 194.043 87.2636 194.006C87.2636 193.303 87.7259 192.675 88.4655 192.138C89.6305 191.288 91.5722 190.715 93.7912 190.641ZM94.4199 190.419C94.4199 190.474 94.1795 190.659 94.1795 190.659C94.3089 190.659 94.4199 190.548 94.4199 190.419ZM93.9761 190.548C94.0131 190.604 94.087 190.641 94.161 190.659C94.1425 190.641 94.0501 190.622 93.9761 190.548ZM94.0131 190.382C94.0131 190.308 93.9761 190.345 93.9391 190.382V190.4V190.419C93.9391 190.456 93.9391 190.474 93.9576 190.493C93.9021 190.548 93.8282 190.622 93.7912 190.641C93.8651 190.641 93.9391 190.604 93.9761 190.53C93.9576 190.511 93.9576 190.493 93.9576 190.493C93.9391 190.474 93.9391 190.437 93.9391 190.419V190.4C93.9391 190.382 93.9576 190.4 93.9946 190.437C94.0131 190.437 94.0131 190.419 94.0131 190.382Z" fill="#505050"/>
<path fill-rule="evenodd" clip-rule="evenodd" d="M94.1789 190.4C98.1361 190.4 101.372 192.009 101.372 193.988C101.372 195.966 98.1546 197.575 94.1789 197.575C90.2217 197.575 86.9856 195.966 86.9856 193.988C87.0041 192.009 90.2217 190.4 94.1789 190.4Z" fill="#505050"/>
<path fill-rule="evenodd" clip-rule="evenodd" d="M94.1783 190.161C91.7374 190.161 89.5924 190.753 88.2425 191.677C87.2994 192.325 86.7446 193.138 86.7446 193.989C86.7446 194.84 87.2809 195.653 88.2425 196.3C89.5739 197.207 91.7374 197.817 94.1783 197.817C96.6192 197.817 98.7643 197.225 100.114 196.3C101.057 195.653 101.612 194.84 101.612 193.989C101.612 193.138 101.076 192.325 100.114 191.677C98.7828 190.771 96.6192 190.161 94.1783 190.161ZM94.1783 190.642C96.5083 190.642 98.5609 191.197 99.8368 192.066C100.632 192.602 101.113 193.268 101.113 193.989C101.113 194.71 100.632 195.376 99.8368 195.912C98.5609 196.781 96.4898 197.336 94.1783 197.336C91.8484 197.336 89.7958 196.781 88.5198 195.912C87.7247 195.376 87.2439 194.71 87.2439 193.989C87.2439 193.268 87.7247 192.602 88.5198 192.066C89.7958 191.215 91.8669 190.642 94.1783 190.642Z" fill="#505050"/>
<path fill-rule="evenodd" clip-rule="evenodd" d="M94.1782 156.801C106.623 156.801 116.72 161.849 116.72 168.081C116.72 174.312 106.623 179.361 94.1782 179.361C81.7332 179.361 71.6367 174.312 71.6367 168.081C71.6367 161.868 81.7332 156.801 94.1782 156.801Z" fill="#FBDFC0"/>
<path fill-rule="evenodd" clip-rule="evenodd" d="M94.1777 156.58C86.6516 156.58 79.9761 158.411 75.8524 161.24C73.0416 163.163 71.3959 165.53 71.3959 168.1C71.3959 170.652 73.0416 173.038 75.8524 174.961C79.9946 177.772 86.6516 179.621 94.1777 179.621C101.704 179.621 108.379 177.79 112.503 174.961C115.314 173.038 116.96 170.671 116.96 168.1C116.96 165.549 115.314 163.163 112.503 161.24C108.379 158.411 101.704 156.58 94.1777 156.58ZM94.1777 157.042C101.593 157.042 108.158 158.836 112.244 161.61C114.907 163.422 116.497 165.641 116.497 168.063C116.497 170.486 114.907 172.705 112.244 174.517C108.176 177.291 101.593 179.085 94.1777 179.085C86.7625 179.085 80.198 177.291 76.1113 174.517C73.4485 172.705 71.8582 170.486 71.8582 168.063C71.8582 165.641 73.4485 163.422 76.1113 161.61C80.198 158.855 86.781 157.042 94.1777 157.042Z" fill="#505050"/>
<path fill-rule="evenodd" clip-rule="evenodd" d="M71.637 168.118C71.674 174.331 81.7705 179.361 94.1785 179.361C106.623 179.361 116.72 174.313 116.72 168.081V176.236C116.72 182.468 106.623 187.516 94.1785 187.516H94.0306C81.6596 187.479 71.6185 182.449 71.6185 176.236V168.081L71.637 168.118Z" fill="#65B770"/>
<path fill-rule="evenodd" clip-rule="evenodd" d="M71.6366 168.303L71.6181 168.322L71.3777 168.081V176.236C71.3777 178.788 73.005 181.155 75.7972 183.06C79.9024 185.87 86.5225 187.72 94.0116 187.738H94.1596C101.686 187.738 108.361 185.907 112.485 183.078C115.296 181.155 116.941 178.788 116.941 176.218V168.063H116.461C116.461 170.485 114.87 172.704 112.208 174.516C108.139 177.29 101.556 179.084 94.1411 179.084C86.7444 179.084 80.1798 177.29 76.1116 174.516C73.4488 172.704 71.8585 170.485 71.84 168.081V168.044C71.877 167.896 71.692 168.229 71.6366 168.303ZM116.498 170.448V176.236C116.498 178.659 114.907 180.878 112.245 182.69C108.176 185.464 101.593 187.257 94.1781 187.257H94.0301C86.6519 187.239 80.1243 185.427 76.0746 182.653C73.4303 180.841 71.8585 178.622 71.8585 176.218V170.43C72.5427 172.094 73.9296 173.629 75.8527 174.942C79.9949 177.752 86.6519 179.583 94.1596 179.583C101.686 179.583 108.361 177.752 112.485 174.923C114.445 173.629 115.813 172.094 116.498 170.448Z" fill="#505050"/>
</svg>
