<svg width="172" height="206" viewBox="0 0 172 206" fill="none" xmlns="http://www.w3.org/2000/svg">
<path d="M95.6835 169.298C88.1149 172.303 78.9215 174.077 69.0241 174.077C64.7997 174.077 51.2602 174.443 47.3608 173.847C27.3899 170.746 22.123 159.576 22.123 147.147C22.123 132.281 43.1364 120.217 69.0241 120.217C94.9117 120.217 115.925 132.281 115.925 147.147C115.925 154.364 110.97 160.917 102.927 165.75L106.813 167.727C106.908 167.686 107.003 167.659 107.097 167.632C110.13 166.644 115.614 167.01 118.647 168.499L167.051 193.114C170.503 194.928 172.358 198.123 171.343 200.872C170.273 203.81 162.285 207.547 155.731 204.27C155.461 204.135 106.705 179.358 106.705 179.358C104.376 178.125 102.697 176.298 102.25 174.348C102.115 173.766 102.101 173.184 102.182 172.601L95.6835 169.298Z" fill="#505050"/>
<path fill-rule="evenodd" clip-rule="evenodd" d="M95.6699 169.582L101.885 172.751C101.83 173.292 101.857 173.847 101.979 174.402C102.44 176.42 104.159 178.315 106.583 179.588C106.583 179.588 155.325 204.365 155.609 204.501C159.617 206.505 164.153 205.936 167.375 204.514C169.569 203.553 171.139 202.172 171.586 200.953C172.629 198.097 170.747 194.752 167.159 192.87L118.755 168.242C115.668 166.725 110.089 166.36 107.002 167.362C106.935 167.375 106.881 167.402 106.813 167.43L103.455 165.724C111.362 160.863 116.169 154.31 116.169 147.147C116.169 141.122 112.77 135.557 107.016 131.035C98.4455 124.32 84.608 119.946 69.0105 119.946C53.4129 119.946 39.5755 124.32 31.0049 131.035C25.2371 135.544 21.8522 141.122 21.8522 147.147C21.8522 153.43 23.1926 159.387 27.0378 164.166C30.8831 168.946 37.2467 172.547 47.3201 174.105C51.2195 174.714 64.7861 174.348 69.024 174.348C78.9079 174.335 88.0877 172.575 95.6699 169.582ZM95.8053 169.054C95.7376 169.014 95.6563 169.014 95.5886 169.041C88.0471 172.047 78.8943 173.793 69.024 173.793C64.8132 173.793 51.3007 174.159 47.4013 173.563C37.5039 172.033 31.2351 168.513 27.4576 163.814C23.68 159.13 22.3802 153.281 22.3802 147.134C22.3802 141.271 25.7109 135.842 31.3299 131.441C39.8327 124.78 53.5483 120.474 69.0105 120.474C84.4726 120.474 98.1882 124.793 106.691 131.441C112.31 135.842 115.641 141.258 115.641 147.134C115.641 154.269 110.726 160.727 102.765 165.507C102.683 165.561 102.629 165.642 102.629 165.751C102.629 165.845 102.683 165.94 102.778 165.981L106.664 167.958C106.732 167.985 106.799 167.998 106.881 167.971C106.975 167.944 107.07 167.903 107.165 167.876C110.144 166.915 115.532 167.267 118.511 168.729C118.85 168.905 166.563 193.168 166.901 193.344C170.219 195.091 172.033 198.137 171.072 200.777C170.665 201.901 169.163 203.133 167.145 204.027C164.045 205.394 159.685 205.95 155.826 204.027C155.555 203.892 107.151 179.29 106.799 179.114C104.538 177.923 102.914 176.163 102.48 174.281C102.358 173.725 102.331 173.184 102.413 172.642C102.426 172.534 102.372 172.412 102.264 172.358L95.8053 169.054Z" fill="#505050"/>
<path fill-rule="evenodd" clip-rule="evenodd" d="M54.4693 104.173C84.1886 104.173 108.33 116.237 108.33 131.103C108.33 145.956 84.2021 158.02 54.4693 158.02C24.7499 158.02 0.622437 145.956 0.622437 131.103C0.622437 116.237 24.7499 104.173 54.4693 104.173Z" fill="white"/>
<path fill-rule="evenodd" clip-rule="evenodd" d="M54.4691 103.901C36.5698 103.901 20.7014 108.275 10.8581 114.977C4.23729 119.485 0.337891 125.077 0.337891 131.102C0.337891 137.127 4.22375 142.706 10.8581 147.228C20.7014 153.93 36.5833 158.29 54.4691 158.29C72.3684 158.29 88.2367 153.917 98.08 147.214C104.701 142.706 108.6 137.114 108.6 131.089C108.6 125.064 104.714 119.485 98.08 114.963C88.2503 108.261 72.3684 103.901 54.4691 103.901ZM54.4691 104.429C72.2465 104.429 88.0065 108.749 97.7821 115.41C104.227 119.81 108.059 125.226 108.059 131.089C108.059 136.951 104.227 142.367 97.7821 146.768C88.0065 153.429 72.2465 157.748 54.4691 157.748C36.6916 157.748 20.9316 153.429 11.156 146.768C4.71117 142.367 0.879473 136.951 0.879473 131.089C0.879473 125.226 4.71117 119.81 11.156 115.41C20.9316 108.762 36.7052 104.429 54.4691 104.429Z" fill="#505050"/>
<path fill-rule="evenodd" clip-rule="evenodd" d="M54.469 107.693C80.3025 107.693 101.289 118.187 101.289 131.103C101.289 144.02 80.316 154.513 54.469 154.513C28.6355 154.5 7.66272 144.02 7.66272 131.103C7.66272 118.173 28.6355 107.693 54.469 107.693Z" fill="white" fill-opacity="0.5"/>
<path fill-rule="evenodd" clip-rule="evenodd" d="M54.4689 107.423C38.8984 107.423 25.1016 111.227 16.5446 117.063C10.7767 120.989 7.39185 125.864 7.39185 131.104C7.39185 136.343 10.7767 141.218 16.5446 145.144C25.1016 150.98 38.9119 154.771 54.4689 154.771C70.0259 154.771 83.8362 150.966 92.3932 145.131C98.1611 141.204 101.546 136.33 101.546 131.09C101.546 125.85 98.1611 120.976 92.3932 117.049C83.8497 111.227 70.0394 107.423 54.4689 107.423ZM54.4689 107.951C69.904 107.951 83.606 111.701 92.0953 117.496C97.6872 121.314 101.018 126.013 101.018 131.09C101.018 136.181 97.6872 140.879 92.0953 144.684C83.606 150.465 69.904 154.229 54.4689 154.229C39.0338 154.229 25.3318 150.479 16.8425 144.684C11.2506 140.866 7.91989 136.167 7.91989 131.09C7.91989 125.999 11.2506 121.301 16.8425 117.496C25.3318 111.715 39.0338 107.951 54.4689 107.951Z" fill="#505050"/>
<path fill-rule="evenodd" clip-rule="evenodd" d="M62.877 129.356C74.9678 129.356 84.7704 132.85 84.7704 137.155C84.7704 141.461 74.9543 144.954 62.877 144.954C50.7997 144.954 40.97 141.474 40.97 137.155C40.97 132.836 50.7862 129.356 62.877 129.356Z" fill="#505050"/>
<path fill-rule="evenodd" clip-rule="evenodd" d="M62.877 129.086C55.5792 129.086 49.1073 130.359 45.086 132.308C43.7185 132.972 42.6354 133.716 41.8907 134.502C41.1189 135.328 40.6992 136.221 40.6992 137.156C40.6992 138.076 41.1054 138.97 41.8907 139.809C42.6354 140.608 43.7185 141.353 45.086 142.003C49.0937 143.952 55.5792 145.225 62.877 145.225C70.1748 145.225 76.6468 143.952 80.668 142.003C82.0355 141.339 83.1187 140.595 83.8633 139.809C84.6351 138.983 85.0548 138.09 85.0548 137.156C85.0548 136.235 84.6486 135.341 83.8633 134.502C83.1187 133.703 82.0355 132.958 80.668 132.308C76.6468 130.359 70.1748 129.086 62.877 129.086ZM62.877 129.628C70.0801 129.628 76.4707 130.873 80.4378 132.796C81.7376 133.419 82.7666 134.123 83.4707 134.881C84.1477 135.598 84.5132 136.37 84.5132 137.169C84.5132 137.968 84.1341 138.726 83.4707 139.457C82.7666 140.215 81.7376 140.906 80.4378 141.542C76.4843 143.465 70.0936 144.711 62.877 144.711C55.6604 144.711 49.2698 143.451 45.3162 141.529C44.0164 140.906 42.9874 140.202 42.2833 139.444C41.6064 138.726 41.2408 137.954 41.2408 137.156C41.2408 136.357 41.6199 135.598 42.2833 134.867C42.9874 134.109 44.0164 133.419 45.3162 132.782C49.2698 130.873 55.674 129.628 62.877 129.628Z" fill="#505050"/>
<path fill-rule="evenodd" clip-rule="evenodd" d="M8.00121 133.906C7.78458 132.985 7.66272 132.051 7.66272 131.103C7.66272 118.187 28.6355 107.693 54.4825 107.693C80.316 107.693 101.302 118.187 101.302 131.103C101.302 132.051 101.194 132.985 100.964 133.906C98.1882 122.303 78.4205 113.312 54.4825 113.312C30.5446 113.312 10.7768 122.316 8.00121 133.906Z" fill="#505050"/>
<path fill-rule="evenodd" clip-rule="evenodd" d="M7.73033 133.974C7.75741 134.096 7.86573 134.177 7.98759 134.177C8.10944 134.177 8.21776 134.096 8.24484 133.974C9.34154 129.398 13.1326 125.241 18.7922 121.883C27.3492 116.806 40.1576 113.583 54.4689 113.583C68.7802 113.583 81.5886 116.806 90.1456 121.883C95.8052 125.241 99.5962 129.398 100.693 133.974C100.72 134.096 100.828 134.177 100.95 134.177C101.072 134.177 101.18 134.096 101.207 133.974C101.438 133.026 101.546 132.078 101.546 131.104C101.546 125.864 98.1611 120.989 92.3932 117.063C83.8362 111.227 70.0259 107.423 54.4689 107.423C38.9119 107.423 25.1016 111.227 16.5446 117.063C10.7767 120.989 7.39185 125.864 7.39185 131.104C7.39185 132.065 7.5137 133.026 7.73033 133.974ZM8.04174 132.755C7.96051 132.2 7.91989 131.659 7.91989 131.09C7.91989 125.999 11.2506 121.301 16.8425 117.496C25.3318 111.715 39.0338 107.951 54.4689 107.951C69.904 107.951 83.606 111.701 92.0953 117.496C97.6872 121.314 101.018 126.013 101.018 131.09C101.018 131.645 100.977 132.2 100.896 132.755C99.4744 128.477 95.7646 124.591 90.4164 121.409C81.7917 116.291 68.8885 113.028 54.4689 113.028C40.0493 113.028 27.1461 116.291 18.5214 121.409C13.1732 124.591 9.47694 128.49 8.04174 132.755Z" fill="#505050"/>
<path fill-rule="evenodd" clip-rule="evenodd" d="M108.329 147.148C108.329 162.014 84.202 174.078 54.4691 174.078H54.1171C47.4286 174.051 41.0379 173.428 35.1346 172.25L34.9315 172.209C26.6183 170.598 19.2934 167.985 13.5932 164.641C5.49655 159.956 0.608765 153.836 0.608765 147.148V131.103C0.622304 145.956 24.7498 158.02 54.4691 158.02C84.1885 158.02 108.329 145.956 108.329 131.09V147.148Z" fill="url(#paint0_linear_392_8333)"/>
<path fill-rule="evenodd" clip-rule="evenodd" d="M0.893013 131.239C0.947172 137.047 4.77887 142.409 11.1695 146.782C20.9451 153.444 36.7051 157.763 54.4826 157.763C72.26 157.763 88.0201 153.444 97.7957 146.782C104.24 142.382 108.072 136.966 108.072 131.104H108.6V147.148C108.6 153.173 104.714 158.751 98.08 163.274C88.2367 169.976 72.3684 174.349 54.4691 174.349H54.117C47.4149 174.322 40.9972 173.699 35.0804 172.521L34.8909 172.48C26.5369 170.869 19.185 168.243 13.4577 164.871C5.26629 160.132 0.337891 153.918 0.337891 147.148V131.104H0.865933L0.893013 131.239ZM108.059 134.935V147.134C108.059 152.997 104.227 158.413 97.7821 162.813C88.0065 169.475 72.2465 173.794 54.4691 173.794H54.117C47.4556 173.767 41.0649 173.144 35.1887 171.979L34.9856 171.939C26.6994 170.341 19.4151 167.728 13.7285 164.397C5.72664 159.767 0.879473 153.742 0.879473 147.134V134.935C2.15219 139.485 5.67248 143.682 10.8581 147.216C20.7014 153.931 36.5833 158.291 54.4691 158.291C72.3684 158.291 88.2367 153.918 98.08 147.216C103.279 143.682 106.786 139.485 108.059 134.935ZM13.6202 164.912C13.6067 164.912 13.6067 164.912 13.6202 164.912V164.912Z" fill="#505050"/>
<path d="M111.471 171.6C111.322 171.6 111.295 171.6 111.146 171.587C110.767 171.546 110.401 171.451 110.049 171.316C109.914 171.262 109.887 171.248 109.752 171.18L93.0032 162.813C91.5409 162.041 90.6337 160.403 90.7962 158.805C90.9858 156.869 92.7594 155.231 94.7227 155.19C95.3726 155.177 96.0089 155.339 96.6047 155.61L113.367 163.977C114.68 164.668 115.56 166.049 115.587 167.498C115.628 169.596 113.8 171.519 111.647 171.6C111.579 171.6 111.525 171.6 111.471 171.6Z" fill="#CCCCCD"/>
<path fill-rule="evenodd" clip-rule="evenodd" d="M111.471 171.87C111.538 171.87 111.593 171.87 111.647 171.87H111.66C113.962 171.776 115.912 169.731 115.858 167.497C115.83 165.94 114.883 164.478 113.488 163.747L96.7397 155.379C96.1168 155.081 95.4263 154.919 94.7358 154.932C92.6372 154.973 90.7552 156.733 90.5521 158.791C90.3761 160.497 91.3509 162.244 92.8944 163.056L109.643 171.424C109.778 171.491 109.819 171.505 109.954 171.559C110.333 171.708 110.726 171.803 111.132 171.843C111.281 171.857 111.308 171.857 111.471 171.87ZM111.484 171.329C111.349 171.329 111.322 171.329 111.186 171.315C110.834 171.275 110.482 171.193 110.157 171.058C110.035 171.004 109.995 170.99 109.873 170.936L93.1381 162.569C91.7706 161.851 90.9312 160.321 91.0801 158.832C91.2697 157.031 92.908 155.488 94.7493 155.447C95.3586 155.433 95.9544 155.582 96.5095 155.84L113.244 164.207C114.463 164.857 115.302 166.143 115.329 167.497C115.37 169.46 113.664 171.248 111.647 171.329H111.484Z" fill="#505050"/>
<path d="M158.926 200.33C158.629 200.317 158.561 200.317 158.263 200.29C157.383 200.208 156.516 199.992 155.691 199.653C155.42 199.545 155.352 199.504 155.081 199.383L108.14 175.905C105.865 174.713 104.118 172.615 103.468 170.151C102.548 166.63 103.983 162.609 107.029 160.497C109.656 158.669 113.244 158.439 116.182 159.834L163.137 183.311C166.495 185.071 168.567 188.903 167.998 192.68C167.389 196.715 163.801 200.087 159.603 200.317C159.373 200.33 159.143 200.33 158.926 200.33Z" fill="white"/>
<path fill-rule="evenodd" clip-rule="evenodd" d="M158.913 200.602C159.144 200.602 159.374 200.602 159.604 200.588C163.923 200.358 167.633 196.879 168.256 192.736C168.838 188.85 166.699 184.896 163.246 183.082L116.291 159.604C113.272 158.155 109.575 158.399 106.867 160.295C103.726 162.475 102.25 166.618 103.212 170.233C103.875 172.765 105.676 174.931 108.018 176.15L154.973 199.627C155.244 199.763 155.312 199.79 155.596 199.911C156.436 200.264 157.329 200.48 158.237 200.561C158.534 200.588 158.616 200.588 158.913 200.602ZM158.927 200.06C158.643 200.047 158.575 200.047 158.291 200.02C157.438 199.939 156.598 199.735 155.799 199.41C155.529 199.302 155.474 199.262 155.204 199.14L108.248 175.662C106.042 174.511 104.349 172.48 103.713 170.084C102.819 166.672 104.214 162.772 107.165 160.714C109.711 158.941 113.19 158.711 116.047 160.078L163.002 183.556C166.252 185.262 168.283 188.985 167.728 192.654C167.146 196.567 163.652 199.844 159.577 200.06C159.36 200.06 159.144 200.06 158.927 200.06Z" fill="#505050"/>
<path d="M154.026 198.855L113.502 178.587C111.227 177.395 109.481 175.296 108.831 172.832C107.91 169.312 109.345 165.291 112.392 163.179C115.018 161.351 118.606 161.121 121.544 162.515L162.136 182.811L162.055 182.77C159.117 181.362 155.529 181.606 152.902 183.434C149.856 185.559 148.42 189.567 149.341 193.087C150.005 195.565 151.751 197.664 154.026 198.855Z" fill="#B88E61"/>
<path fill-rule="evenodd" clip-rule="evenodd" d="M162.014 183.055L162.041 183.068H162.054H162.068H162.081H162.095H162.108H162.122H162.136H162.149H162.163H162.176H162.19H162.203H162.217H162.23H162.244H162.257H162.271H162.285H162.298L162.312 183.055L162.325 183.041L162.339 183.027L162.352 183.014L162.366 183L162.379 182.987L162.393 182.973L162.406 182.96L162.42 182.946L162.433 182.933V182.919V182.906V182.892V182.879V182.865V182.851V182.838V182.824V182.811V182.797V182.784V182.77V182.757V182.743V182.73V182.716V182.703V182.689V182.675V182.662V182.648V182.635L162.42 182.621L162.406 182.608L162.393 182.594L162.379 182.581L162.366 182.567L162.352 182.554L162.339 182.54L162.325 182.527L162.312 182.513L162.298 182.499H162.285L121.652 162.285C118.633 160.836 114.937 161.08 112.229 162.975C109.088 165.155 107.612 169.298 108.573 172.913C109.237 175.445 111.037 177.612 113.38 178.83L153.904 199.085C154.039 199.153 154.188 199.099 154.256 198.964C154.323 198.828 154.269 198.679 154.147 198.612C151.94 197.461 150.248 195.43 149.611 193.033C148.718 189.621 150.112 185.722 153.064 183.664C155.61 181.89 159.089 181.66 161.946 183.027C161.932 183.027 162.014 183.055 162.014 183.055ZM159.279 181.687C157.004 181.389 154.635 181.904 152.753 183.217C149.611 185.397 148.136 189.54 149.097 193.155C149.503 194.699 150.329 196.107 151.453 197.244C142.449 192.735 113.921 178.478 113.623 178.329C111.416 177.178 109.724 175.147 109.088 172.751C108.194 169.339 109.589 165.44 112.54 163.382C115.086 161.608 118.565 161.378 121.422 162.745L159.279 181.687Z" fill="#505050"/>
<path fill-rule="evenodd" clip-rule="evenodd" d="M21.7308 74.0204C21.9474 94.5058 60.6977 113.014 60.2644 139.295L47.808 133.066C42.3786 98.2698 9.27441 105.053 9.27441 67.7922C9.27441 43.3804 26.5374 14.9203 47.808 4.2917C57.4753 -0.541928 66.3301 -0.866878 73.0864 2.51801L85.5428 8.74621C78.773 5.36132 69.9316 5.68627 60.2644 10.5199C38.9937 21.1484 21.4736 49.5951 21.7308 74.0204Z" fill="#FBDFC0"/>
<path fill-rule="evenodd" clip-rule="evenodd" d="M85.5287 9.00342H85.5422C85.6641 9.00342 85.7724 8.92218 85.7995 8.81386V8.80032C85.8265 8.67847 85.7724 8.55661 85.6641 8.50245L73.2077 2.27426C66.3702 -1.13771 57.4476 -0.839847 47.6856 4.04794C26.3472 14.7171 9.0166 43.2856 9.0166 67.7922C9.0166 86.5309 17.3434 94.2079 26.3472 101.56C35.2427 108.831 44.8423 115.79 47.5367 133.107L47.8074 133.337L47.6856 133.31L60.142 139.538C60.2232 139.579 60.318 139.579 60.3992 139.525C60.4805 139.471 60.5211 139.389 60.5211 139.295C60.7377 126.08 51.1382 114.815 41.4303 104.295C35.6489 98.026 29.8269 92.0145 26.09 86.0029C23.6123 82.0358 22.0417 78.0552 22.001 74.0069C21.7438 49.6898 39.1963 21.338 60.3857 10.75C69.9717 5.95701 78.7318 5.61853 85.4339 8.97634C85.4474 8.98988 85.488 9.00342 85.5287 9.00342ZM72.964 2.74814L81.2231 6.87771C75.1438 5.40189 67.9002 6.37674 60.1284 10.2626C38.7901 20.9453 21.2022 49.5138 21.4595 74.0204C21.5001 78.1635 23.0977 82.2254 25.6296 86.2872C29.3936 92.3259 35.2292 98.3645 41.0377 104.66C50.5424 114.964 59.993 125.972 59.993 138.861L48.0376 132.89C45.2891 115.506 35.6489 108.479 26.6722 101.14C17.7767 93.8694 9.54464 86.3008 9.54464 67.7787C9.54464 43.4481 26.7399 15.1098 47.9293 4.50828C57.5018 -0.271182 66.2619 -0.596132 72.964 2.74814ZM73.0858 2.77522C73.0858 2.77522 72.8556 2.36903 72.8286 2.43673C72.7473 2.69398 73.0858 2.77522 73.0858 2.77522Z" fill="#505050"/>
<path fill-rule="evenodd" clip-rule="evenodd" d="M60.2509 10.5063C81.5215 -0.122227 98.7845 11.075 98.7845 35.4868C98.7845 69.9179 70.5139 95.0067 61.9433 130.359L60.2509 139.295C54.8215 104.498 21.7173 111.281 21.7173 74.0204C21.7308 49.595 38.9938 21.1484 60.2509 10.5063Z" fill="#B88E61"/>
<path fill-rule="evenodd" clip-rule="evenodd" d="M60.2502 10.7772L60.1283 10.2762C38.79 20.9454 21.4594 49.5003 21.4594 74.0205C21.4594 92.7592 29.7862 100.436 38.79 107.788C47.699 115.059 57.2986 122.032 59.9929 139.335C60.0065 139.457 60.1283 139.565 60.2502 139.565C60.3856 139.565 60.4939 139.471 60.521 139.349L62.2134 130.413C66.4919 112.771 75.6988 97.6741 83.8226 82.6993C91.9734 67.6704 99.0546 52.7498 99.0546 35.4869C99.0546 23.1659 94.6813 14.1892 87.6407 9.62633C80.6002 5.0635 70.8787 4.90103 60.1419 10.2627L60.2502 10.7772ZM60.3721 10.7501C70.9058 5.48323 80.4377 5.60508 87.3428 10.0731C94.248 14.5547 98.513 23.3825 98.513 35.4734C98.513 52.6415 91.4589 67.4809 83.3351 82.4421C75.1843 97.4575 65.9639 112.595 61.6718 130.291V130.304L60.2637 137.778C57.2444 121.368 47.875 114.517 39.1285 107.368C30.233 100.098 22.0009 92.5291 22.0009 74.0069C22.0009 49.6899 39.1962 21.338 60.3721 10.7501Z" fill="#505050"/>
<path fill-rule="evenodd" clip-rule="evenodd" d="M86.6123 9.31445C89.5368 11.0069 92.0417 13.4305 93.9914 16.5175L62.9858 74.9407C61.9568 77.0529 60.3997 78.8536 58.6531 79.7337C57.0284 80.5461 55.5525 80.3836 54.5235 79.4764L54.51 79.4629L37.5449 64.1091C37.3418 63.9601 37.1523 63.7841 36.9763 63.5945C36.2316 62.7416 35.7848 61.4282 35.7848 59.7493C35.7848 55.7687 38.3031 51.2871 41.3902 49.73C42.9743 48.9447 44.4095 49.0666 45.425 49.9196C45.4927 49.9738 45.5604 50.0414 45.6281 50.0956L58.6937 61.8886L86.6123 9.31445Z" fill="#505050"/>
<path fill-rule="evenodd" clip-rule="evenodd" d="M45.5872 49.7029C44.477 48.7823 42.947 48.6333 41.2546 49.4728C38.0863 51.0569 35.5002 55.6604 35.5002 59.7358C35.5002 61.4959 35.9741 62.8769 36.7594 63.7706C36.949 63.9872 37.1521 64.1632 37.3687 64.3257L54.3338 79.666L54.3473 79.6795C54.3473 79.6795 54.3473 79.6795 54.3609 79.6931C55.4576 80.6815 57.0281 80.871 58.7883 79.991C60.5755 79.0973 62.1732 77.256 63.2293 75.0896L94.2349 16.68C94.2755 16.5987 94.2755 16.4904 94.2213 16.4092C92.2445 13.2815 89.7126 10.8309 86.7475 9.11135C86.6798 9.07073 86.6121 9.07073 86.5444 9.08427C86.4767 9.09781 86.4225 9.15197 86.3819 9.21966C86.3819 9.21966 60.8869 57.2174 58.6258 61.4824L45.7903 49.8925C45.7226 49.8248 45.6549 49.7571 45.5872 49.7029ZM62.7554 74.8324C61.7535 76.8904 60.2506 78.6505 58.5446 79.49C57.0281 80.2482 55.6742 80.1128 54.7129 79.2598L54.6993 79.2463L37.7207 63.9059C37.7072 63.8924 37.7072 63.8924 37.6937 63.8924C37.5041 63.757 37.3281 63.5945 37.1656 63.4185C36.448 62.6062 36.0418 61.347 36.0418 59.7493C36.0418 55.8634 38.4789 51.4766 41.4983 49.9737C42.9605 49.2426 44.301 49.3374 45.2487 50.1227C45.3164 50.1768 45.3706 50.231 45.4247 50.2851C45.4247 50.2851 45.4247 50.2852 45.4383 50.2987L58.531 62.1052C58.5987 62.1593 58.68 62.1864 58.7612 62.1729C58.8424 62.1593 58.9101 62.1052 58.9508 62.0375C58.9508 62.0375 84.6759 13.5929 86.7339 9.70709C89.4825 11.3454 91.8384 13.6471 93.7068 16.5581C92.0279 19.6587 62.7554 74.8188 62.7554 74.8324ZM54.5098 79.5035C54.5098 79.6118 54.5098 79.7202 54.5098 79.7202H54.5233V79.7337L54.4692 79.7202L54.5098 79.7337L54.4962 79.7202C54.415 79.6389 54.1442 79.3681 54.3879 79.2327C54.4556 79.2192 54.4827 79.3681 54.5098 79.5035ZM62.972 75.2115H62.9856C62.9856 75.2115 62.9855 75.2115 62.972 75.2115ZM62.9856 75.2115L62.8637 74.7105C62.9449 74.6699 62.9856 75.2115 62.9856 75.2115ZM36.9625 63.8518C36.9625 63.8518 36.773 63.3779 36.7323 63.4456L36.9625 63.8518ZM45.5872 49.7029C45.6414 49.7571 45.4112 50.1498 45.4112 50.1633C45.5195 50.1633 45.6278 50.0956 45.6685 49.9873C45.6955 49.8925 45.6685 49.7706 45.5872 49.7029ZM45.4112 50.1768C45.4112 50.1768 45.2081 49.7165 45.181 49.7842C45.0321 50.0279 45.4112 50.1633 45.4112 50.1768Z" fill="#505050"/>
<path fill-rule="evenodd" clip-rule="evenodd" d="M97.6193 8.44783C98.6483 6.24088 100.246 4.34534 102.047 3.45173C105.147 1.90822 107.652 3.885 107.652 7.85209C107.652 9.51745 107.205 11.2776 106.474 12.8753C106.271 13.3085 106.054 13.7283 105.811 14.1209L71.3119 79.1108C70.2829 81.223 68.7259 83.0237 66.9793 83.9038C65.3545 84.7162 63.8787 84.5537 62.8497 83.6466L62.8362 83.633L45.8711 68.2656C45.668 68.1167 45.4785 67.9407 45.3024 67.7511C44.5578 66.8981 44.111 65.5712 44.111 63.9059C44.111 59.9252 46.6293 55.4436 49.7163 53.8866C51.2869 53.0878 52.7221 53.2232 53.7376 54.0626C53.8053 54.1168 53.873 54.1845 53.9407 54.2386L67.0334 66.0451L97.6193 8.44783Z" fill="white"/>
<path fill-rule="evenodd" clip-rule="evenodd" d="M97.3756 8.3258L66.9522 65.6252L54.1167 54.0489C54.049 53.9812 53.9813 53.9135 53.9136 53.8593C53.9136 53.8593 53.9136 53.8593 53.9272 53.8729L53.9136 53.8593C52.8169 52.9522 51.287 52.7897 49.5945 53.6427C46.4263 55.2268 43.8402 59.8167 43.8402 63.8922C43.8402 65.6523 44.3141 67.0333 45.0994 67.9269C45.2889 68.1436 45.492 68.3196 45.7087 68.4821L62.6737 83.8224L62.6873 83.8359C62.6873 83.8359 62.6873 83.8359 62.7008 83.8495C63.7975 84.8379 65.3681 85.0274 67.1283 84.1473C68.9155 83.2537 70.5131 81.4123 71.5692 79.246L106.054 14.2832C106.298 13.877 106.528 13.4438 106.731 13.0105V13.024L106.501 13.1594L106.745 13.0105C107.503 11.3857 107.95 9.58498 107.95 7.879C107.95 5.79391 107.273 4.23685 106.203 3.3974C105.12 2.54441 103.617 2.40901 101.952 3.23493C100.084 4.14208 98.4317 6.06469 97.3756 8.3258ZM106.231 12.7668C106.027 13.1865 105.811 13.6062 105.581 13.9989C105.581 13.9989 105.581 14.0124 105.567 14.0124L71.0818 78.9888V79.0023C70.0799 81.0603 68.577 82.8205 66.871 83.6735C65.3546 84.4317 64.0006 84.2963 63.0393 83.4433L63.0258 83.4297L46.0472 68.0623C46.0336 68.0488 46.0336 68.0488 46.0201 68.0488C45.8305 67.9134 45.6545 67.7509 45.492 67.5749C44.7744 66.7625 44.3683 65.5034 44.3683 63.9057C44.3683 60.0198 46.8054 55.633 49.8247 54.1301C51.287 53.399 52.6274 53.4938 53.5752 54.2791C53.6429 54.3332 53.697 54.3874 53.7512 54.4415C53.7512 54.4415 53.7512 54.4415 53.7647 54.4551L66.8575 66.2616C66.9252 66.3157 67.0064 66.3428 67.0876 66.3293C67.1689 66.3157 67.2366 66.2616 67.2772 66.1939L97.8631 8.59659V8.58305C98.865 6.43026 100.422 4.58888 102.169 3.70881C103.604 2.99121 104.904 3.07245 105.851 3.81713C106.813 4.57534 107.395 5.997 107.395 7.879C107.381 9.4902 106.948 11.2097 106.231 12.7668ZM62.8362 83.6735C62.8362 83.7818 62.8362 83.8901 62.8362 83.8901H62.8498V83.9036L62.7956 83.8901L62.8362 83.9036L62.8227 83.8901C62.7414 83.8088 62.4706 83.5381 62.7144 83.4027C62.7821 83.3756 62.8091 83.5245 62.8362 83.6735ZM71.2984 79.3814H71.312C71.312 79.3814 71.312 79.3814 71.2984 79.3814ZM71.312 79.3814L71.1901 78.8804C71.2714 78.8263 71.312 79.3679 71.312 79.3814ZM45.2889 68.0082C45.2889 68.0082 45.0994 67.5343 45.0588 67.602L45.2889 68.0082ZM53.9136 53.8729C53.9678 53.927 53.7376 54.3197 53.7376 54.3332C53.8459 54.3332 53.9543 54.2655 53.9949 54.1572C54.022 54.0489 53.9949 53.9406 53.9136 53.8729ZM53.7376 54.3332C53.7376 54.3332 53.5345 53.8729 53.5075 53.9406C53.3585 54.1978 53.7376 54.3332 53.7376 54.3332ZM106.704 12.9969L106.474 13.1459C106.569 13.1459 106.664 13.0917 106.704 12.9969ZM106.231 12.7668C106.217 12.7939 106.203 12.8345 106.203 12.8616C106.203 12.9157 106.217 12.9834 106.244 13.024C106.298 13.1053 106.379 13.1459 106.474 13.1459C106.434 13.1459 106.393 13.1323 106.352 13.1188C106.312 13.0917 106.271 13.0646 106.244 13.024C106.217 12.9699 106.203 12.9157 106.203 12.8616C106.203 12.8209 106.217 12.7939 106.231 12.7668ZM106.474 13.1459C106.461 13.1459 106.203 13.0511 106.203 12.8616C106.203 12.8345 106.217 12.7939 106.231 12.7668V12.7532C106.271 12.6855 106.461 13.1323 106.474 13.1459Z" fill="#505050"/>
<path fill-rule="evenodd" clip-rule="evenodd" d="M63.5544 84.1071L58.274 81.4669C58.0303 81.345 57.8001 81.1825 57.5835 81.0065L57.5699 80.993L40.5913 65.6256C40.3882 65.4767 40.1987 65.3006 40.0227 65.1111C39.278 64.2581 38.8312 62.9448 38.8312 61.2659C38.8312 57.2852 41.3495 52.8036 44.4366 51.2466C45.777 50.5831 47.0091 50.5696 47.9704 51.0976L52.9665 53.6025C52.0458 53.2234 50.9355 53.291 49.717 53.9003C46.6164 55.4438 44.1116 59.939 44.1116 63.9196C44.1116 65.5985 44.5584 66.9254 45.3031 67.7648C45.4791 67.9679 45.6687 68.144 45.8717 68.2793L62.8504 83.6197L62.8639 83.6332C63.0805 83.8228 63.3107 83.9852 63.5544 84.1071ZM62.5119 61.9834L92.3395 5.82135C93.3685 3.6144 94.9662 1.71886 96.767 0.825253C98.0668 0.175354 99.2582 0.148275 100.206 0.62216L105.486 3.26237C104.539 2.78849 103.347 2.81557 102.047 3.46547C100.247 4.35908 98.649 6.25462 97.6199 8.46156L67.0205 66.0589L62.5119 61.9834Z" fill="white"/>
<path fill-rule="evenodd" clip-rule="evenodd" d="M63.5408 84.3646H63.5543C63.6762 84.3646 63.7845 84.2834 63.8116 84.1615C63.8251 84.1074 63.8251 84.0532 63.798 84.0126V83.9991C63.771 83.9449 63.7303 83.9043 63.6762 83.8772C63.446 83.7689 63.2429 83.62 63.0534 83.444L63.0398 83.4304L46.0477 68.063C46.0341 68.0495 46.0341 68.0495 46.0206 68.0495C45.831 67.9141 45.655 67.7516 45.4925 67.5756C44.775 66.7632 44.3688 65.504 44.3688 63.9064C44.3688 60.0205 46.8059 55.6337 49.8252 54.1308C50.949 53.5621 51.9915 53.4944 52.8445 53.8465C52.8581 53.8465 52.8716 53.86 52.8851 53.86H52.8987H52.9122H52.9258C53.0476 53.86 53.1559 53.7788 53.183 53.6569C53.1966 53.6028 53.1966 53.5486 53.1695 53.508V53.4944C53.1424 53.4403 53.1018 53.3997 53.0476 53.3726L48.0786 50.8407C47.0496 50.2856 45.7363 50.2856 44.3011 50.9896C41.1328 52.5738 38.5468 57.1637 38.5468 61.2391C38.5468 62.9992 39.0206 64.3803 39.8059 65.2739C39.9955 65.4905 40.1986 65.6665 40.4152 65.829L57.3803 81.1693L57.3938 81.1828C57.3938 81.1828 57.3938 81.1828 57.4074 81.1964C57.6375 81.3995 57.8812 81.5755 58.152 81.6973L63.4325 84.3376C63.4595 84.3511 63.5002 84.3646 63.5408 84.3646ZM62.769 83.4169C62.7555 83.4033 62.7555 83.4033 62.7419 83.4033L62.769 83.4169ZM47.8349 51.3281L51.3823 53.1018C50.8136 53.156 50.2043 53.332 49.5815 53.6434C46.4132 55.2275 43.8272 59.8174 43.8272 63.8928C43.8272 65.653 44.3011 67.034 45.0864 67.9276C45.2759 68.1442 45.479 68.3203 45.6956 68.4827L61.5369 82.8076L58.3822 81.237C58.152 81.1287 57.9489 80.9798 57.7594 80.8037L57.7458 80.7902L40.7672 65.4228C40.7537 65.4093 40.7537 65.4093 40.7402 65.4093C40.5506 65.2739 40.3746 65.1114 40.2121 64.9354C39.4945 64.123 39.0883 62.8638 39.0883 61.2662C39.0883 57.3803 41.5255 52.9935 44.5448 51.4906C45.7904 50.8542 46.9277 50.8272 47.8349 51.3281ZM57.5563 81.0339C57.5563 81.1422 57.5563 81.2505 57.5563 81.2505H57.5698V81.2641L57.5157 81.2505L57.5563 81.2641L57.5428 81.2505C57.4615 81.1693 57.1907 80.8985 57.4344 80.7631C57.5021 80.736 57.5292 80.885 57.5563 81.0339ZM45.2895 68.0089L45.0593 67.6027C45.1134 67.535 45.2895 68.0089 45.2895 68.0089ZM105.459 3.51993H105.473C105.581 3.51993 105.676 3.45223 105.717 3.35746C105.73 3.34392 105.73 3.33037 105.73 3.3033C105.757 3.18144 105.703 3.05959 105.595 3.00543L100.314 0.365213C99.2988 -0.14929 98.026 -0.122211 96.6315 0.568307C94.7901 1.489 93.1383 3.42515 92.0822 5.68626L62.2681 61.8484C62.2139 61.9567 62.2274 62.0921 62.3222 62.1733L66.8444 66.2487C66.9121 66.3029 66.9934 66.3299 67.0746 66.3164C67.1558 66.3029 67.2235 66.2487 67.2642 66.181L97.85 8.58372V8.57019C98.852 6.4174 100.409 4.57602 102.156 3.69595C103.361 3.08667 104.471 3.04605 105.351 3.49285C105.392 3.50639 105.432 3.51993 105.459 3.51993ZM100.084 0.852638L103.74 2.68048C103.171 2.73464 102.562 2.91065 101.925 3.22206C100.084 4.14275 98.4322 6.07891 97.3761 8.34001L66.9527 65.6259L62.8503 61.916C64.7187 58.4093 92.5831 5.92997 92.5831 5.92997V5.91643C93.5851 3.76364 95.1421 1.92226 96.8887 1.04219C98.0802 0.446451 99.1904 0.405833 100.084 0.852638ZM40.009 65.3686C40.009 65.3686 39.8195 64.8948 39.7789 64.9624L40.009 65.3686ZM48.214 51.0032C48.2411 51.0709 47.9703 51.3552 47.9567 51.3552C48.0786 51.3552 48.1869 51.274 48.214 51.1521C48.2275 51.0979 48.2275 51.0438 48.214 51.0032ZM48.0786 50.8542L47.9567 51.3552C47.9567 51.3281 48.1057 50.7865 48.2005 50.9761C48.1734 50.9219 48.1328 50.8813 48.0786 50.8542ZM100.206 0.879715C100.206 0.879715 100.016 0.40583 99.9757 0.473528C99.8133 0.73078 100.192 0.879715 100.206 0.879715Z" fill="#505050"/>
<defs>
<linearGradient id="paint0_linear_392_8333" x1="108" y1="153" x2="1" y2="148.5" gradientUnits="userSpaceOnUse">
<stop offset="0.401042" stop-color="#D4D4D4"/>
<stop offset="0.713542" stop-color="#F4F4F4"/>
</linearGradient>
</defs>
</svg>
