<svg width="24" height="24" viewBox="0 0 24 24" fill="none" xmlns="http://www.w3.org/2000/svg">
<g id="Clip path group">
<mask id="mask0_412_3962" style="mask-type:luminance" maskUnits="userSpaceOnUse" x="0" y="0" width="24" height="24">
<g id="a">
<path id="Vector" d="M0 0H24V24H0V0Z" fill="white"/>
</g>
</mask>
<g mask="url(#mask0_412_3962)">
<g id="Group">
<path id="Vector_2" d="M16.8503 17.1503L18.2903 15.7103L13.4099 10.8299L10.1195 14.1203C10.027 14.213 9.9171 14.2866 9.79612 14.3367C9.67515 14.3869 9.54547 14.4128 9.4145 14.4128C9.28353 14.4128 9.15385 14.3869 9.03288 14.3367C8.9119 14.2866 8.80201 14.213 8.7095 14.1203L2.7095 8.11071C2.61692 8.01813 2.54348 7.90822 2.49337 7.78726C2.44327 7.66629 2.41748 7.53664 2.41748 7.40571C2.41748 7.27478 2.44327 7.14513 2.49337 7.02417C2.54348 6.9032 2.61692 6.79329 2.7095 6.70071C2.80208 6.60813 2.91199 6.53469 3.03296 6.48459C3.15392 6.43448 3.28357 6.40869 3.4145 6.40869C3.54543 6.40869 3.67508 6.43448 3.79604 6.48459C3.91701 6.53469 4.02692 6.60813 4.1195 6.70071L9.4103 11.9999L12.6995 8.71071C12.792 8.61801 12.9019 8.54446 13.0229 8.49428C13.1438 8.4441 13.2735 8.41827 13.4045 8.41827C13.5355 8.41827 13.6652 8.4441 13.7861 8.49428C13.9071 8.54446 14.017 8.61801 14.1095 8.71071L19.7003 14.2907L21.1403 12.8507C21.21 12.782 21.2984 12.7353 21.3944 12.7164C21.4905 12.6975 21.59 12.7073 21.6805 12.7445C21.7711 12.7817 21.8487 12.8447 21.9037 12.9257C21.9587 13.0067 21.9887 13.102 21.9899 13.1999V17.4899C21.9905 17.5558 21.978 17.6212 21.9531 17.6822C21.9282 17.7432 21.8914 17.7986 21.8448 17.8452C21.7982 17.8918 21.7428 17.9286 21.6817 17.9535C21.6207 17.9784 21.5554 17.991 21.4895 17.9903H17.1995C16.7603 17.9999 16.5395 17.4599 16.8503 17.1503Z" fill="#53B374"/>
</g>
</g>
</g>
</svg>
