<svg width="201" height="44" viewBox="0 0 201 44" fill="none" xmlns="http://www.w3.org/2000/svg">
<circle cx="22" cy="22" r="22" fill="white"/>
<path d="M15.4664 28.9054H11.5791V24.9199H15.4664V23.6143H10.3151V19.7205H15.4664V17.5674H19.1153L19.1391 31.0584L19.163 34.1506C19.163 36.0288 19.9023 37.6093 21.5002 38.8691C23.098 37.5635 23.8373 35.9601 23.8373 34.0361V17.5903H27.4862V19.7434H32.6375V23.6372H27.4862V24.9428H31.3735V28.8367H27.5577C27.5577 30.0506 27.5577 31.2417 27.51 32.4556C27.51 34.1048 27.2715 35.8456 26.8661 37.4489C26.6276 38.4339 25.9122 39.3043 25.3875 40.3579C25.8406 40.3121 26.246 40.3579 26.6515 40.2892C30.0857 39.7394 32.2321 37.1741 32.2321 33.5093V30.9897H36.0002V34.0132C36.0002 40.9305 29.0363 45.6947 22.2395 43.4271C21.834 43.2668 21.2617 43.2668 20.8562 43.4271C13.8924 45.6718 7.09555 41.0679 7.04785 33.9903V31.1272H10.7683C10.7683 32.2266 10.7682 33.326 10.8159 34.4255C10.8159 36.235 11.6268 37.7696 13.1054 38.9607C14.4171 39.9914 15.8957 40.5411 17.6128 40.4266C17.5651 40.2663 17.5651 40.1975 17.5413 40.1517C17.422 39.9456 17.3028 39.7624 17.1358 39.5562C16.0388 37.9529 15.4664 36.1434 15.4664 34.1735V31.1501" fill="#65B770"/>
<path d="M22.0485 0.640688C21.7146 0.755213 21.3092 0.755213 21.023 0.640688C14.1785 -1.76434 7.09539 2.88538 7 9.84851C7 11.2228 7 13.2384 7 14.6128H7.69162H10.7681C10.7681 13.1239 10.7681 11.6122 10.7681 10.1692C10.7681 6.77923 13.1053 4.09935 16.4202 3.66415C16.7541 3.61834 17.1118 3.61834 17.6127 3.61834C17.4457 3.93901 17.3742 4.09935 17.2788 4.23678C15.9194 6.11499 15.3947 8.24516 15.4424 10.5357C15.4424 11.91 15.4424 13.2614 15.4424 14.5898H19.1628C19.1628 13.101 19.1628 11.5893 19.1628 10.1005C19.1628 8.35968 19.7352 6.91667 20.9276 5.61108C21.3808 5.10717 21.7385 5.13007 22.1678 5.61108C23.241 6.82505 23.8372 8.24515 23.8372 9.87141C23.8372 11.4977 23.8372 13.1468 23.8372 14.7502H27.5576C27.5576 13.101 27.5576 11.406 27.5576 9.75688C27.5576 7.94739 26.9852 6.25242 26.0074 4.67197C25.7928 4.3513 25.602 4.05354 25.3158 3.64125C28.7977 3.36639 32.1127 6.04627 32.2081 9.29878C32.2558 11.2228 32.2796 13.0094 32.2796 14.7273H35.9761C35.9761 13.1926 35.9761 11.7038 35.9761 10.1692C36.0715 2.99991 29.1316 -1.71853 22.0485 0.640688Z" fill="#65B770"/>
<path d="M64.9043 29C63.9305 29 62.9745 28.834 62.0715 28.502C61.1862 28.17 60.4957 27.7457 60 27.2108L60.5489 26.0857C61.0269 26.5837 61.6643 26.9895 62.461 27.303C63.2577 27.5982 64.0722 27.7457 64.9043 27.7457C66.0906 27.7457 66.9758 27.5244 67.5601 27.0817C68.1444 26.6205 68.4453 26.0303 68.4453 25.3109C68.4453 24.7576 68.286 24.3149 67.9496 24.0013C67.6309 23.6693 67.2414 23.4295 66.7811 23.2635C66.3207 23.0791 65.6656 22.8762 64.8335 22.6733C63.842 22.415 63.0453 22.1568 62.461 21.9355C61.8767 21.6957 61.3633 21.3083 60.9384 20.8103C60.5311 20.3123 60.3187 19.6298 60.3187 18.7813C60.3187 18.0804 60.4957 17.4532 60.8498 16.8999C61.2039 16.3281 61.7351 15.8669 62.4787 15.5165C63.2046 15.1845 64.1076 15 65.1876 15C65.9489 15 66.6748 15.1107 67.4007 15.332C68.1266 15.5349 68.764 15.8301 69.2952 16.2174L68.8171 17.3795C68.2683 16.9921 67.6663 16.7154 67.0466 16.531C66.4092 16.3281 65.8073 16.2358 65.2053 16.2358C64.0545 16.2358 63.1692 16.4756 62.5849 16.9368C62.0007 17.3979 61.7174 17.9882 61.7174 18.726C61.7174 19.2793 61.8767 19.722 62.1954 20.054C62.5141 20.386 62.9213 20.6443 63.3994 20.8287C63.8951 20.9947 64.5502 21.1976 65.3646 21.4005C66.3384 21.6403 67.1175 21.8986 67.7017 22.1384C68.3037 22.3781 68.8172 22.747 69.2244 23.2451C69.6316 23.7246 69.8441 24.3887 69.8441 25.2372C69.8441 25.9381 69.667 26.5652 69.2952 27.137C68.9411 27.7088 68.3922 28.1515 67.6486 28.4835C66.8873 28.834 65.9843 29 64.9043 29ZM80.9901 29C79.2727 29 77.9448 28.4835 76.9888 27.4691C76.0327 26.4546 75.5546 24.9605 75.5546 23.0053V15.1291H76.9533V22.9499C76.9533 24.5547 77.3075 25.7352 77.998 26.5283C78.6885 27.3215 79.6799 27.7088 80.9901 27.7088C82.318 27.7088 83.3095 27.3215 84 26.5283C84.6905 25.7352 85.0446 24.5547 85.0446 22.9499V15.1291H86.4079V23.0053C86.4079 24.9605 85.9298 26.4361 84.9738 27.4691C84.0177 28.502 82.6898 29 80.9901 29ZM104.441 15.1291V28.8893H103.29L94.8097 17.7299V28.8893H93.4109V15.1291H94.5618L103.06 26.2885V15.1291H104.441ZM122.528 15.1291L116.685 28.8893H115.304L109.461 15.1291H110.966L116.012 27.0817L121.111 15.1291H122.528ZM136.595 27.635V28.8893H127.247V15.1291H136.294V16.3834H128.646V21.2714H135.48V22.5073H128.646V27.6166H136.595V27.635ZM146.307 29C145.333 29 144.377 28.834 143.474 28.502C142.589 28.17 141.899 27.7457 141.403 27.2108L141.952 26.0857C142.43 26.5837 143.067 26.9895 143.864 27.303C144.661 27.5982 145.475 27.7457 146.307 27.7457C147.493 27.7457 148.379 27.5244 148.963 27.0817C149.547 26.6205 149.848 26.0303 149.848 25.3109C149.848 24.7576 149.689 24.3149 149.352 24.0013C149.034 23.6693 148.644 23.4295 148.184 23.2635C147.724 23.0791 147.068 22.8762 146.236 22.6733C145.245 22.415 144.448 22.1568 143.864 21.9355C143.28 21.6957 142.766 21.3083 142.341 20.8103C141.934 20.3123 141.721 19.6298 141.721 18.7813C141.721 18.0804 141.899 17.4532 142.253 16.8999C142.607 16.3281 143.138 15.8669 143.882 15.5165C144.607 15.1845 145.51 15 146.59 15C147.352 15 148.078 15.1107 148.804 15.332C149.529 15.5349 150.167 15.8301 150.698 16.2174L150.22 17.3795C149.671 16.9921 149.069 16.7154 148.449 16.531C147.812 16.3281 147.21 16.2358 146.608 16.2358C145.457 16.2358 144.572 16.4756 143.988 16.9368C143.403 17.3979 143.12 17.9882 143.12 18.726C143.12 19.2793 143.28 19.722 143.598 20.054C143.917 20.386 144.324 20.6443 144.802 20.8287C145.298 20.9947 145.953 21.1976 146.767 21.4005C147.741 21.6403 148.52 21.8986 149.105 22.1384C149.706 22.3781 150.22 22.747 150.627 23.2451C151.034 23.7246 151.247 24.3887 151.247 25.2372C151.247 25.9381 151.07 26.5652 150.698 27.137C150.344 27.7088 149.795 28.1515 149.051 28.4835C148.308 28.834 147.387 29 146.307 29ZM159.472 16.3834H154.833V15.1291H165.509V16.3834H160.87V28.8709H159.472V16.3834ZM176.124 29C174.814 29 173.628 28.7049 172.565 28.0962C171.503 27.4875 170.671 26.639 170.069 25.5876C169.484 24.5178 169.184 23.3373 169.184 22.0092C169.184 20.6812 169.484 19.5007 170.069 18.4308C170.671 17.361 171.503 16.531 172.565 15.9407C173.628 15.332 174.814 15.0185 176.124 15.0185C177.434 15.0185 178.603 15.3136 179.647 15.9223C180.71 16.531 181.542 17.361 182.144 18.4308C182.746 19.5007 183.047 20.6812 183.047 22.0092C183.047 23.3373 182.746 24.5362 182.144 25.6061C181.542 26.6759 180.71 27.5059 179.647 28.0962C178.603 28.7049 177.434 29 176.124 29ZM176.124 27.7088C177.169 27.7088 178.107 27.469 178.957 26.9895C179.807 26.4914 180.462 25.809 180.94 24.942C181.418 24.0567 181.648 23.0975 181.648 22.0092C181.648 20.9394 181.418 19.9618 180.94 19.0949C180.462 18.2095 179.807 17.527 178.957 17.0474C178.107 16.5494 177.169 16.3096 176.124 16.3096C175.079 16.3096 174.123 16.5494 173.273 17.0474C172.424 17.527 171.768 18.2095 171.273 19.0949C170.795 19.9618 170.565 20.9209 170.565 22.0092C170.565 23.079 170.795 24.0567 171.273 24.942C171.768 25.809 172.424 26.4914 173.273 26.9895C174.123 27.469 175.079 27.7088 176.124 27.7088ZM200 15.1291V28.8893H198.849L190.368 17.7299V28.8893H188.97V15.1291H190.121L198.619 26.2885V15.1291H200Z" fill="#303135" stroke="#303135" stroke-width="2"/>
</svg>
