<svg width="20" height="20" viewBox="0 0 20 20" fill="none" xmlns="http://www.w3.org/2000/svg">
<g id="27) Icon/pin-fill">
<path id="&#240;&#159;&#142;&#168; Icon &#208;&#161;olor" fill-rule="evenodd" clip-rule="evenodd" d="M10.0002 10.8332C8.39183 10.8332 7.0835 9.52484 7.0835 7.9165C7.0835 6.30817 8.39183 4.99984 10.0002 4.99984C11.6085 4.99984 12.9168 6.30817 12.9168 7.9165C12.9168 9.52484 11.6085 10.8332 10.0002 10.8332ZM10.0002 1.6665C6.32433 1.6665 3.3335 4.62817 3.3335 8.269C3.3335 12.8307 9.20766 17.9182 9.45766 18.1323C9.61433 18.2665 9.80683 18.3332 10.0002 18.3332C10.1935 18.3332 10.386 18.2665 10.5427 18.1323C10.7927 17.9182 16.6668 12.8307 16.6668 8.269C16.6668 4.62817 13.676 1.6665 10.0002 1.6665Z" fill="#65B770"/>
<mask id="mask0_489_414" style="mask-type:luminance" maskUnits="userSpaceOnUse" x="3" y="1" width="14" height="18">
<path id="&#240;&#159;&#142;&#168; Icon &#208;&#161;olor_2" fill-rule="evenodd" clip-rule="evenodd" d="M10.0002 10.8332C8.39183 10.8332 7.0835 9.52484 7.0835 7.9165C7.0835 6.30817 8.39183 4.99984 10.0002 4.99984C11.6085 4.99984 12.9168 6.30817 12.9168 7.9165C12.9168 9.52484 11.6085 10.8332 10.0002 10.8332ZM10.0002 1.6665C6.32433 1.6665 3.3335 4.62817 3.3335 8.269C3.3335 12.8307 9.20766 17.9182 9.45766 18.1323C9.61433 18.2665 9.80683 18.3332 10.0002 18.3332C10.1935 18.3332 10.386 18.2665 10.5427 18.1323C10.7927 17.9182 16.6668 12.8307 16.6668 8.269C16.6668 4.62817 13.676 1.6665 10.0002 1.6665Z" fill="white"/>
</mask>
<g mask="url(#mask0_489_414)">
</g>
</g>
</svg>
