<svg width="48" height="77" viewBox="0 0 48 77" fill="none" xmlns="http://www.w3.org/2000/svg">
<g id="Group 9878">
<ellipse id="Ellipse 97" opacity="0.4" cx="24" cy="71" rx="10" ry="6" fill="url(#paint0_radial_223_5199)"/>
<path id="Rectangle 715" d="M22 48C22 46.8954 22.8954 46 24 46C25.1046 46 26 46.8954 26 48V70C26 71.1046 25.1046 72 24 72C22.8954 72 22 71.1046 22 70V48Z" fill="#B88E61"/>
<g id="Group 9877">
<circle id="Ellipse 96" cx="24" cy="24" r="24" fill="#B88E61"/>
<g id="Group">
<path id="Vector" d="M19.7446 29.1303H16.8566V26.1694H19.7446V25.1994H15.9175V22.3065H19.7446V20.7069H22.4555L22.4732 30.7299L22.4909 33.0273C22.4909 34.4226 23.0402 35.5968 24.2273 36.5328C25.4144 35.5628 25.9637 34.3716 25.9637 32.9422V20.7239H28.6745V22.3235H32.5017V25.2164H28.6745V26.1864H31.5626V29.0793H28.7277C28.7277 29.9812 28.7277 30.8661 28.6923 31.768C28.6923 32.9932 28.5151 34.2865 28.2139 35.4777C28.0367 36.2094 27.5052 36.8561 27.1154 37.6389C27.452 37.6048 27.7532 37.6389 28.0544 37.5878C30.6058 37.1794 32.2005 35.2735 32.2005 32.5508V30.6789H34.9999V32.9252C34.9999 38.0643 29.8262 41.6038 24.7766 39.9192C24.4754 39.8 24.0501 39.8 23.7489 39.9192C18.5752 41.5868 13.5255 38.1664 13.4901 32.9081V30.781H16.2541C16.2541 31.5978 16.2541 32.4146 16.2896 33.2315C16.2896 34.5758 16.892 35.7159 17.9905 36.6008C18.965 37.3666 20.0635 37.775 21.3392 37.6899C21.3038 37.5708 21.3038 37.5198 21.2861 37.4857C21.1975 37.3326 21.1089 37.1964 20.9849 37.0433C20.1698 35.8521 19.7446 34.5077 19.7446 33.0443V30.798" fill="white"/>
<path id="Vector_2" d="M24.6347 8.13127C24.3867 8.21635 24.0855 8.21635 23.8729 8.13127C18.7878 6.34448 13.5255 9.79894 13.4546 14.9721C13.4546 15.9931 13.4546 17.4906 13.4546 18.5117H13.9684H16.2541C16.2541 17.4056 16.2541 16.2824 16.2541 15.2104C16.2541 12.6918 17.9904 10.7008 20.4532 10.3775C20.7013 10.3435 20.9671 10.3435 21.3392 10.3435C21.2151 10.5817 21.162 10.7008 21.0911 10.8029C20.0812 12.1983 19.6914 13.7809 19.7268 15.4826C19.7268 16.5037 19.7268 17.5077 19.7268 18.4946H22.4908C22.4908 17.3885 22.4908 16.2654 22.4908 15.1593C22.4908 13.866 22.9161 12.7939 23.802 11.824C24.1386 11.4496 24.4044 11.4666 24.7233 11.824C25.5206 12.7259 25.9636 13.7809 25.9636 14.9891C25.9636 16.1973 25.9636 17.4226 25.9636 18.6138H28.7276C28.7276 17.3885 28.7276 16.1293 28.7276 14.904C28.7276 13.5597 28.3024 12.3004 27.5759 11.1263C27.4165 10.888 27.2747 10.6668 27.0621 10.3605C29.649 10.1563 32.1118 12.1473 32.1827 14.5637C32.2181 15.9931 32.2358 17.3205 32.2358 18.5967H34.9821C34.9821 17.4566 34.9821 16.3505 34.9821 15.2104C35.053 9.88402 29.897 6.37851 24.6347 8.13127Z" fill="white"/>
</g>
</g>
</g>
<defs>
<radialGradient id="paint0_radial_223_5199" cx="0" cy="0" r="1" gradientUnits="userSpaceOnUse" gradientTransform="translate(24 71) rotate(90) scale(6 10)">
<stop stop-color="#3D4248"/>
<stop offset="1" stop-color="#3D4248" stop-opacity="0"/>
</radialGradient>
</defs>
</svg>
