<svg width="20" height="20" viewBox="0 0 20 20" fill="none" xmlns="http://www.w3.org/2000/svg">
<g id="metro_icon" clip-path="url(#clip0_609_2970)">
<path id="Vector" d="M12.5634 14.0128H12.0132L12.4504 13.2936L12.7015 14.0128H12.5634ZM10.4765 16.5406L12.0037 14.0285V14.5725V16.1306V16.6903H12.5634H18.75H19.3097V16.1306V14.5725V14.0128H18.75H17.9269L13.9717 4.01124L13.5431 2.92748L12.9652 3.9395L9.99852 9.13423L7.03497 3.93971L6.45735 2.92725L6.02837 4.01109L2.06972 14.0128H1.25003H0.690308V14.5725V16.1306V16.6903H1.25003H7.43661H7.99633V16.1306V14.5725V14.0308L9.51982 16.5403L9.99795 17.3279L10.4765 16.5406ZM7.43661 14.0128H7.29851L7.54933 13.2945L7.98539 14.0128H7.43661Z" fill="#EC1A37" stroke="white" stroke-width="1.4"/>
</g>
<defs>
<clipPath id="clip0_609_2970">
<rect width="20" height="20" fill="white"/>
</clipPath>
</defs>
</svg>
