<svg width="20" height="20" viewBox="0 0 20 20" fill="none" xmlns="http://www.w3.org/2000/svg">
<g id="metro_icon" clip-path="url(#clip0_489_426)">
<path id="Vector" d="M12.5635 14.0128H12.0133L12.4506 13.2936L12.7016 14.0128H12.5635ZM10.4766 16.5406L12.0038 14.0285V14.5725V16.1306V16.6903H12.5635H18.7501H19.3098V16.1306V14.5725V14.0128H18.7501H17.927L13.9718 4.01124L13.5433 2.92748L12.9654 3.9395L9.99864 9.13423L7.03509 3.93971L6.45747 2.92725L6.02849 4.01109L2.06984 14.0128H1.25015H0.69043V14.5725V16.1306V16.6903H1.25015H7.43673H7.99645V16.1306V14.5725V14.0308L9.51994 16.5403L9.99807 17.3279L10.4766 16.5406ZM7.43673 14.0128H7.29863L7.54945 13.2945L7.98551 14.0128H7.43673Z" fill="#45B85C" stroke="white" stroke-width="1.4"/>
</g>
<defs>
<clipPath id="clip0_489_426">
<rect width="20" height="20" fill="white"/>
</clipPath>
</defs>
</svg>
