<svg width="20" height="20" viewBox="0 0 20 20" fill="none" xmlns="http://www.w3.org/2000/svg">
<g clip-path="url(#clip0_790_4309)">
<g clip-path="url(#clip1_790_4309)">
<path d="M18.8731 14.0128H18.3229L18.7601 13.2936L19.0112 14.0128H18.8731ZM16.7862 16.5406L18.3134 14.0285V14.5725V16.1306V16.6903H18.8731H25.0597H25.6194V16.1306V14.5725V14.0128H25.0597H24.2366L20.2814 4.01124L19.8528 2.92748L19.2749 3.9395L16.3082 9.13423L13.3447 3.93971L12.767 2.92725L12.3381 4.01109L8.37941 14.0128H7.55972H7V14.5725V16.1306V16.6903H7.55972H13.7463H14.306V16.1306V14.5725V14.0308L15.8295 16.5403L16.3076 17.3279L16.7862 16.5406ZM13.7463 14.0128H13.6082L13.859 13.2945L14.2951 14.0128H13.7463Z" fill="#FAA400" stroke="white" stroke-width="1.4"/>
</g>
<path d="M12.5635 14.0128H12.0133L12.4506 13.2936L12.7016 14.0128H12.5635ZM10.4766 16.5406L12.0038 14.0285V14.5725V16.1306V16.6903H12.5635H18.7501H19.3098V16.1306V14.5725V14.0128H18.7501H17.927L13.9718 4.01124L13.5433 2.92748L12.9654 3.9395L9.99864 9.13423L7.03509 3.93971L6.45747 2.92725L6.02849 4.01109L2.06984 14.0128H1.25015H0.69043V14.5725V16.1306V16.6903H1.25015H7.43673H7.99645V16.1306V14.5725V14.0308L9.51994 16.5403L9.99807 17.3279L10.4766 16.5406ZM7.43673 14.0128H7.29863L7.54945 13.2945L7.98551 14.0128H7.43673Z" fill="#5BBEBB" stroke="white" stroke-width="1.4"/>
</g>
<defs>
<clipPath id="clip0_790_4309">
<rect width="20" height="20" fill="white"/>
</clipPath>
<clipPath id="clip1_790_4309">
<rect width="12" height="18" fill="white" transform="translate(14 1)"/>
</clipPath>
</defs>
</svg>
