<svg width="26" height="20" viewBox="0 0 26 20" fill="none" xmlns="http://www.w3.org/2000/svg">
<g clip-path="url(#clip0_223_5049)">
<g clip-path="url(#clip1_223_5049)">
<path d="M18.8731 14.0128H18.3229L18.7601 13.2936L19.0112 14.0128H18.8731ZM16.7862 16.5406L18.3134 14.0285V14.5725V16.1306V16.6903H18.8731H25.0597H25.6194V16.1306V14.5725V14.0128H25.0597H24.2366L20.2814 4.01124L19.8528 2.92748L19.2749 3.9395L16.3082 9.13423L13.3447 3.93971L12.767 2.92725L12.3381 4.01109L8.37941 14.0128H7.55972H7V14.5725V16.1306V16.6903H7.55972H13.7463H14.306V16.1306V14.5725V14.0308L15.8295 16.5403L16.3076 17.3279L16.7862 16.5406ZM13.7463 14.0128H13.6082L13.859 13.2945L14.2951 14.0128H13.7463Z" fill="#FAA400" stroke="white" stroke-width="1.4"/>
</g>
<path d="M12.5634 14.0128H12.0132L12.4504 13.2936L12.7015 14.0128H12.5634ZM10.4765 16.5406L12.0037 14.0285V14.5725V16.1306V16.6903H12.5634H18.75H19.3097V16.1306V14.5725V14.0128H18.75H17.9269L13.9717 4.01124L13.5431 2.92748L12.9652 3.9395L9.99852 9.13423L7.03497 3.93971L6.45735 2.92725L6.02837 4.01109L2.06972 14.0128H1.25003H0.690308V14.5725V16.1306V16.6903H1.25003H7.43661H7.99633V16.1306V14.5725V14.0308L9.51982 16.5403L9.99795 17.3279L10.4765 16.5406ZM7.43661 14.0128H7.29851L7.54933 13.2945L7.98539 14.0128H7.43661Z" fill="#5BBEBB" stroke="white" stroke-width="1.4"/>
</g>
<defs>
<clipPath id="clip0_223_5049">
<rect width="26" height="20" fill="white"/>
</clipPath>
<clipPath id="clip1_223_5049">
<rect width="12" height="18" fill="white" transform="translate(14 1)"/>
</clipPath>
</defs>
</svg>
