<svg width="49" height="48" viewBox="0 0 49 48" fill="none" xmlns="http://www.w3.org/2000/svg">
<circle cx="24.2002" cy="24" r="24" fill="#F5F5F7"/>
<path fill-rule="evenodd" clip-rule="evenodd" d="M26.3635 28.9347C27.4518 28.6954 28.5014 28.2797 29.4682 27.6936C30.1998 27.2483 30.4202 26.3148 29.9593 25.6086C29.4986 24.9008 28.5321 24.6877 27.7992 25.133C25.6092 26.4624 22.7895 26.4621 20.6007 25.133C19.8678 24.6877 18.901 24.9008 18.4413 25.6086C17.9803 26.3154 18.2001 27.2483 18.9317 27.6936C19.8985 28.2791 20.9481 28.6954 22.0364 28.9347L19.0472 31.8202C18.4362 32.4106 18.4362 33.3679 19.0479 33.9583C19.354 34.2532 19.7545 34.4008 20.1551 34.4008C20.5562 34.4008 20.9574 34.2532 21.2635 33.9583L24.1996 31.1229L27.1383 33.9583C27.7493 34.5487 28.7407 34.5487 29.3524 33.9583C29.9647 33.3679 29.9647 32.41 29.3524 31.8202L26.3635 28.9347Z" fill="#656565"/>
<path fill-rule="evenodd" clip-rule="evenodd" d="M29.534 19.5617C29.534 22.407 27.1366 24.7215 24.1874 24.7215C21.2388 24.7215 18.8408 22.407 18.8408 19.5617C18.8408 16.7155 21.2388 14.4004 24.1874 14.4004C27.1366 14.4004 29.534 16.7155 29.534 19.5617ZM26.3963 19.5624C26.3963 18.384 25.4034 17.4258 24.1827 17.4258C22.9629 17.4258 21.969 18.384 21.969 19.5624C21.969 20.7398 22.9629 21.6987 24.1827 21.6987C25.4034 21.6987 26.3963 20.7398 26.3963 19.5624Z" fill="#656565"/>
</svg>
