<?xml version="1.0" encoding="utf-8"?><svg xmlns="http://www.w3.org/2000/svg" xmlns:xlink="http://www.w3.org/1999/xlink"><symbol viewBox="0 0 22 24" id="basket" xmlns="http://www.w3.org/2000/svg"><g clip-path="url(#aaa)"><path d="M10.363 18.443a2.046 2.046 0 0 0-2.045 2.042 2.046 2.046 0 0 0 4.09 0 2.046 2.046 0 0 0-2.045-2.042Zm6.134 0a2.046 2.046 0 0 0-2.045 2.042 2.046 2.046 0 0 0 4.089 0 2.046 2.046 0 0 0-2.044-2.042Zm3.978-8.199L7.413 6.891a.614.614 0 0 0-.75.73L8.67 16.4h-.786L5.482 5.895a.613.613 0 0 0-.474-.464l-4.27-.882A.614.614 0 0 0 .489 5.75l3.885.802L6.797 17.15a.613.613 0 0 0 .598.477h12.07a.615.615 0 0 0 .607-.53l.858-6.175a.613.613 0 0 0-.455-.678Zm-8.14 3.91a.613.613 0 0 1-1.227 0v-2.696a.613.613 0 0 1 1.227 0v2.696Zm2.625 0a.613.613 0 0 1-1.227 0v-1.88a.613.613 0 0 1 1.227 0v1.88Zm2.625 0a.613.613 0 0 1-1.227 0v-1.226a.613.613 0 0 1 1.227 0v1.226Z"/></g><path fill-rule="evenodd" clip-rule="evenodd" d="M16.268 4.568a2.996 2.996 0 0 0-1.693-.523c-.627 0-1.21.193-1.693.523-.28-.843-.492-1.752-.492-2.383C12.39.98 13.37 0 14.575 0s2.185.98 2.185 2.185c0 .631-.212 1.54-.492 2.383Zm-4.722 2.274.024.006v-.011l-.024.005Zm4.972 1.217c-1.333-.33-2.766-.681-4.129-1.013a2.185 2.185 0 1 1 4.129 1.013Zm4.436 1.103c-.866-.217-2.155-.538-3.618-.9a2.995 2.995 0 0 0 .243-1.425c.87.18 1.762.45 2.308.765.596.344.969.928 1.067 1.56ZM9.869 6.439c-.36-.086-.706-.167-1.03-.243a2.19 2.19 0 0 1-.376-2.667 2.188 2.188 0 0 1 3.147-.7c.098.738.338 1.599.61 2.353a3.01 3.01 0 0 0-.449.774c-.628.113-1.305.278-1.902.483Zm10.124.075a3.43 3.43 0 0 1-.217.114c-.696-.295-1.587-.526-2.397-.672a3.01 3.01 0 0 0-.449-.774c.262-.727.494-1.553.599-2.273.095-.067.189-.128.278-.18a2.188 2.188 0 0 1 2.986.8 2.188 2.188 0 0 1-.8 2.985Z"/><defs><clipPath id="aaa"><path transform="translate(0 3.064)" d="M0 0h20.936v20.936H0z"/></clipPath></defs></symbol><symbol viewBox="0 0 56 56" id="broker" xmlns="http://www.w3.org/2000/svg"><g clip-path="url(#aba)"><path d="M51.078 0H23.516a4.927 4.927 0 0 0-4.922 4.922v1.64h-4.922c-4.523 0-8.203 3.68-8.203 8.204a4.93 4.93 0 0 0 3.281 4.64v4.11a10.39 10.39 0 0 0 4.922 8.83v2.446l-2.795 2.395h-.486C4.66 37.188 0 41.85 0 47.578v6.781C0 55.265.735 56 1.64 56h35a1.64 1.64 0 0 0 1.641-1.64v-6.782c0-5.73-4.661-10.39-10.39-10.39h-.487l-2.795-2.396v-2.445a10.467 10.467 0 0 0 2.102-1.722h24.367A4.928 4.928 0 0 0 56 25.703V4.922A4.927 4.927 0 0 0 51.078 0ZM13.672 9.844h8.75a3.828 3.828 0 0 1 3.828 3.828v2.444a4.812 4.812 0 0 1-2.244-1.688l-.257-.354a1.64 1.64 0 0 0-2.712.085l-.014.023a4.78 4.78 0 0 1-4.052 2.224h-6.572c-.917 0-1.654-.75-1.649-1.666a4.928 4.928 0 0 1 4.922-4.896Zm-1.64 9.844h4.939c2.059 0 3.992-.77 5.463-2.122a8.128 8.128 0 0 0 3.816 1.95v4c0 3.92-3.19 7.109-7.11 7.109-3.92 0-7.109-3.19-7.109-7.11v-3.828Zm7.109 19.165-2.188-3.75v-1.43a10.39 10.39 0 0 0 4.375 0v1.43l-2.187 3.75Zm-4.254-.78 2.123 3.64-2.438 1.95-1.221-4.274 1.536-1.316ZM3.28 47.578c0-3.872 3.113-7.03 6.967-7.106l1.846 6.463a1.64 1.64 0 0 0 2.603.83l2.803-2.242v7.196H3.281v-5.14Zm22.906-.643 1.846-6.463C31.888 40.55 35 43.706 35 47.578v5.14H20.781v-7.195l2.803 2.242a1.64 1.64 0 0 0 2.603-.83Zm-2.478-3.272-2.438-1.95 2.124-3.64 1.535 1.316-1.22 4.274Zm29.01-17.96c0 .905-.736 1.64-1.64 1.64H28.8c.472-1.184.731-2.476.731-3.827v-9.844c0-3.92-3.189-7.11-7.11-7.11h-.546v-1.64c0-.905.736-1.64 1.64-1.64h27.563c.905 0 1.64.735 1.64 1.64v20.781Z"/><path d="M34.672 16.406a1.64 1.64 0 0 0-1.64 1.641v4.375a1.64 1.64 0 0 0 3.28 0v-4.375a1.64 1.64 0 0 0-1.64-1.64Zm6.562 2.188a1.64 1.64 0 0 0-1.64 1.64v2.188a1.64 1.64 0 0 0 3.281 0v-2.188a1.64 1.64 0 0 0-1.64-1.64Zm6.563-3.281a1.64 1.64 0 0 0-1.64 1.64v5.469a1.64 1.64 0 0 0 3.28 0v-5.469a1.64 1.64 0 0 0-1.64-1.64Zm-1.05-8.37-5.091 4.242L39.36 7.36a1.64 1.64 0 0 0-2.567-.316l-3.281 3.282a1.64 1.64 0 1 0 2.32 2.32l1.795-1.796 2.2 3.667a1.64 1.64 0 0 0 2.458.416l6.562-5.468a1.64 1.64 0 1 0-2.1-2.521Z"/></g><defs><clipPath id="aba"><path d="M0 0h56v56H0z"/></clipPath></defs></symbol><symbol viewBox="0 0 26 26" id="chat" xmlns="http://www.w3.org/2000/svg"><path d="M21.647 9.445H4.353A1.24 1.24 0 0 1 3.118 8.2a1.24 1.24 0 0 1 1.235-1.246h17.294A1.24 1.24 0 0 1 22.882 8.2a1.24 1.24 0 0 1-1.235 1.246v-.001ZM4.353 14.428a1.241 1.241 0 0 1-1.235-1.246 1.24 1.24 0 0 1 1.235-1.245h9.882a1.24 1.24 0 0 1 1.236 1.245 1.24 1.24 0 0 1-1.236 1.246H4.353Zm18.53-12.457H3.117a2.482 2.482 0 0 0-2.47 2.492v12.455a2.481 2.481 0 0 0 2.47 2.492h8.648l6.09 4.384c.91.656 2.146-.155 1.92-1.261l-.599-3.122h3.706a2.481 2.481 0 0 0 2.47-2.492V4.463a2.482 2.482 0 0 0-2.47-2.492Z"/></symbol><symbol viewBox="0 0 24 24" id="check" xmlns="http://www.w3.org/2000/svg"><path fill-rule="evenodd" clip-rule="evenodd" d="M21.53 5.47a.75.75 0 0 1 0 1.06L10 18c-.5.5-.805.195-1 0l-6.53-6.47a.75.75 0 1 1 1.06-1.06l5.97 5.97L20.47 5.47a.75.75 0 0 1 1.06 0Z"/></symbol><symbol viewBox="0 0 48 48" id="check-circle" xmlns="http://www.w3.org/2000/svg"><rect width="48" height="48" rx="24"/><path fill-rule="evenodd" clip-rule="evenodd" d="M33.53 17.47a.75.75 0 0 1 0 1.06L22 30c-.5.5-.805.195-1 0l-6.53-6.47a.75.75 0 1 1 1.06-1.06l5.97 5.97 10.97-10.97a.75.75 0 0 1 1.06 0Z"/></symbol><symbol viewBox="0 0 24 24" id="chevron-down" xmlns="http://www.w3.org/2000/svg"><path fill-rule="evenodd" clip-rule="evenodd" d="M12 15.5a.997.997 0 0 1-.707-.293l-4-4a.999.999 0 1 1 1.414-1.414l3.305 3.305 3.293-3.18a1 1 0 0 1 1.39 1.439l-4 3.862a.997.997 0 0 1-.695.28Z"/></symbol><symbol viewBox="0 0 24 24" id="chevron-left" xmlns="http://www.w3.org/2000/svg"><path fill-rule="evenodd" clip-rule="evenodd" d="M13.362 17a.996.996 0 0 1-.719-.305l-3.863-4a1 1 0 0 1 .013-1.402l4-4a.999.999 0 1 1 1.414 1.414l-3.305 3.305 3.18 3.293a1 1 0 0 1-.72 1.695Z"/></symbol><symbol viewBox="0 0 32 32" id="chevron-left-2" xmlns="http://www.w3.org/2000/svg"><path fill-rule="evenodd" clip-rule="evenodd" d="M18 22.667a1.332 1.332 0 0 0 .943-2.276l-4.407-4.407 4.24-4.39a1.334 1.334 0 0 0-1.919-1.854l-5.149 5.333a1.333 1.333 0 0 0 .016 1.87l5.333 5.333c.26.26.602.39.943.39Z"/></symbol><symbol viewBox="0 0 24 24" id="chevron-right" xmlns="http://www.w3.org/2000/svg"><path fill-rule="evenodd" clip-rule="evenodd" d="M10.5 17a.999.999 0 0 1-.707-1.707l3.305-3.305-3.18-3.293a1 1 0 0 1 1.439-1.39l3.862 4a1 1 0 0 1-.012 1.402l-4 4A.997.997 0 0 1 10.5 17Z"/></symbol><symbol viewBox="0 0 32 32" id="chevron-right-2" xmlns="http://www.w3.org/2000/svg"><path fill-rule="evenodd" clip-rule="evenodd" d="M14 22.667a1.332 1.332 0 0 1-.943-2.276l4.407-4.407-4.24-4.39a1.334 1.334 0 0 1 1.919-1.854l5.149 5.333a1.333 1.333 0 0 1-.016 1.87l-5.333 5.333c-.26.26-.602.39-.943.39Z"/></symbol><symbol viewBox="0 0 24 24" id="chevron-up" xmlns="http://www.w3.org/2000/svg"><path fill-rule="evenodd" clip-rule="evenodd" d="M12 8.5c.256 0 .512.098.707.293l4 4a.999.999 0 1 1-1.414 1.414l-3.305-3.305-3.293 3.18a1 1 0 0 1-1.39-1.439l4-3.862a.998.998 0 0 1 .695-.28"/></symbol><symbol viewBox="0 0 24 24" id="close" xmlns="http://www.w3.org/2000/svg"><path fill-rule="evenodd" clip-rule="evenodd" d="m13.414 12 4.293-4.293a.999.999 0 1 0-1.414-1.414L12 10.586 7.707 6.293a.999.999 0 1 0-1.414 1.414L10.586 12l-4.293 4.293a.999.999 0 1 0 1.414 1.414L12 13.414l4.293 4.293a.997.997 0 0 0 1.414 0 .999.999 0 0 0 0-1.414L13.414 12Z"/></symbol><symbol viewBox="0 0 24 24" id="delete" xmlns="http://www.w3.org/2000/svg"><path fill-rule="evenodd" clip-rule="evenodd" d="M10 16c0 .55-.45 1-1 1s-1-.45-1-1v-4c0-.55.45-1 1-1s1 .45 1 1v4Zm6 0c0 .55-.45 1-1 1s-1-.45-1-1v-4c0-.55.45-1 1-1s1 .45 1 1v4Zm2 3c0 .551-.448 1-1 1H7c-.552 0-1-.449-1-1V8h12v11ZM10 4.328c0-.155.214-.328.5-.328h3c.286 0 .5.173.5.328V6h-4V4.328ZM21 6h-5V4.328C16 3.044 14.879 2 13.5 2h-3C9.121 2 8 3.044 8 4.328V6H3c-.55 0-1 .45-1 1s.45 1 1 1h1v11c0 1.654 1.346 3 3 3h10c1.654 0 3-1.346 3-3V8h1c.55 0 1-.45 1-1s-.45-1-1-1Z"/></symbol><symbol viewBox="0 0 32 32" id="download" xmlns="http://www.w3.org/2000/svg"><path fill-rule="evenodd" clip-rule="evenodd" d="M9.768 18a.75.75 0 0 1 .75.75V21a.5.5 0 0 0 .5.5h10a.5.5 0 0 0 .5-.5v-2.25a.75.75 0 0 1 1.5 0V21a2 2 0 0 1-2 2h-10a2 2 0 0 1-2-2v-2.25a.75.75 0 0 1 .75-.75Z"/><path fill-rule="evenodd" clip-rule="evenodd" d="M16 9a.75.75 0 0 1 .75.75v5.793l1.37-1.371a.75.75 0 0 1 1.061 1.06l-2.475 2.475a1 1 0 0 1-1.414 0l-2.475-2.475a.75.75 0 0 1 1.061-1.06l1.371 1.37V9.75A.75.75 0 0 1 16 9Z"/></symbol><symbol viewBox="0 0 25 24" id="email" xmlns="http://www.w3.org/2000/svg"><path fill-rule="evenodd" clip-rule="evenodd" d="M19.25 18h-14c-.551 0-1-.448-1-1V7.25l7.4 5.55a.995.995 0 0 0 1.2 0l7.4-5.55V17c0 .552-.449 1-1 1Zm-.667-12-6.333 4.75L5.917 6h12.666Zm.667-2h-14c-1.654 0-3 1.346-3 3v10c0 1.654 1.346 3 3 3h14c1.654 0 3-1.346 3-3V7c0-1.654-1.346-3-3-3Z"/></symbol><symbol viewBox="0 0 24 24" id="fb" xmlns="http://www.w3.org/2000/svg"><path d="M13.397 20.997v-8.196h2.765l.411-3.209h-3.176V7.548c0-.926.258-1.56 1.587-1.56h1.684v-2.86A22.108 22.108 0 0 0 14.201 3c-2.444 0-4.122 1.492-4.122 4.231v2.355H7.332v3.21h2.753v8.201h3.312Z"/></symbol><symbol viewBox="0 0 24 24" id="filter" xmlns="http://www.w3.org/2000/svg"><path fill-rule="evenodd" clip-rule="evenodd" d="M11 19a1 1 0 1 1 0-2 1 1 0 0 1 0 2Zm10-2h-7.185A2.995 2.995 0 0 0 11 15a2.995 2.995 0 0 0-2.815 2H3a1 1 0 1 0 0 2h5.185A2.995 2.995 0 0 0 11 21a2.995 2.995 0 0 0 2.815-2H21a1 1 0 1 0 0-2Zm-2-4a1 1 0 1 1 0-2 1 1 0 0 1 0 2Zm0-4a2.995 2.995 0 0 0-2.815 2H3a1 1 0 1 0 0 2h13.185A2.995 2.995 0 0 0 19 15c1.654 0 3-1.346 3-3s-1.346-3-3-3ZM7 5a1 1 0 1 1 0 2 1 1 0 0 1 0-2ZM3 7h1.185A2.995 2.995 0 0 0 7 9a2.995 2.995 0 0 0 2.815-2H21a1 1 0 1 0 0-2H9.815A2.995 2.995 0 0 0 7 3a2.995 2.995 0 0 0-2.815 2H3a1 1 0 1 0 0 2Z"/></symbol><symbol viewBox="0 0 24 24" id="grid" xmlns="http://www.w3.org/2000/svg"><path fill-rule="evenodd" clip-rule="evenodd" d="M15 19v-4h4l.001 4H15Zm4-6h-4c-1.103 0-2 .897-2 2v4c0 1.103.897 2 2 2h4c1.103 0 2-.897 2-2v-4c0-1.103-.897-2-2-2ZM5 19v-4h4l.001 4H5Zm4-6H5c-1.103 0-2 .897-2 2v4c0 1.103.897 2 2 2h4c1.103 0 2-.897 2-2v-4c0-1.103-.897-2-2-2Zm6-4V5h4l.001 4H15Zm4-6h-4c-1.103 0-2 .897-2 2v4c0 1.103.897 2 2 2h4c1.103 0 2-.897 2-2V5c0-1.103-.897-2-2-2ZM5 9V5h4l.001 4H5Zm4-6H5c-1.103 0-2 .897-2 2v4c0 1.103.897 2 2 2h4c1.103 0 2-.897 2-2V5c0-1.103-.897-2-2-2Z"/></symbol><symbol viewBox="0 0 24 24" id="height" xmlns="http://www.w3.org/2000/svg"><path fill-rule="evenodd" clip-rule="evenodd" d="M3 4h7c.55 0 1 .45 1 1s-.45 1-1 1H3c-.55 0-1-.45-1-1s.45-1 1-1Zm3 7h4c.55 0 1 .45 1 1s-.45 1-1 1H6c-.55 0-1-.45-1-1s.45-1 1-1Zm4 7H8c-.55 0-1 .45-1 1s.45 1 1 1h2c.55 0 1-.45 1-1s-.45-1-1-1Zm9-1.356 1.305-1.26a1 1 0 0 1 1.39 1.439l-3 2.897a1.005 1.005 0 0 1-1.402-.013l-3-3a.999.999 0 1 1 1.414-1.414L17 16.586v-9.23l-1.305 1.26a1 1 0 0 1-1.39-1.44l3-2.896a1.002 1.002 0 0 1 1.402.013l3 3a1 1 0 0 1-1.414 1.414L19 7.414v9.23Z"/></symbol><symbol viewBox="0 0 10 10" id="home" xmlns="http://www.w3.org/2000/svg"><path fill-rule="evenodd" clip-rule="evenodd" d="M5.298.959 8.51 4.244c.152.156.24.375.24.6v3.49c0 .459-.353.833-.787.833H6.667v-3.75A.417.417 0 0 0 6.25 5h-2.5a.417.417 0 0 0-.417.417v3.75H2.037c-.434 0-.787-.374-.787-.834v-3.49a.86.86 0 0 1 .24-.599L4.701.96a.429.429 0 0 1 .596 0Zm.535 7.791H4.167V5.833h1.666V8.75Z"/></symbol><symbol viewBox="0 0 24 24" id="instagram" xmlns="http://www.w3.org/2000/svg"><path d="M11.999 7.377a4.624 4.624 0 1 0 0 9.248 4.624 4.624 0 0 0 0-9.248Zm0 7.627a3.004 3.004 0 1 1 0-6.008 3.004 3.004 0 0 1 0 6.008Zm4.807-6.719a1.078 1.078 0 1 0 0-2.156 1.078 1.078 0 0 0 0 2.156Z"/><path d="M20.533 6.11A4.605 4.605 0 0 0 17.9 3.48a6.607 6.607 0 0 0-2.186-.42c-.963-.042-1.268-.054-3.71-.054s-2.755 0-3.71.054a6.554 6.554 0 0 0-2.184.42 4.6 4.6 0 0 0-2.633 2.63 6.585 6.585 0 0 0-.419 2.186c-.043.962-.056 1.267-.056 3.71 0 2.442 0 2.753.056 3.71.015.748.156 1.486.419 2.187a4.61 4.61 0 0 0 2.634 2.632 6.583 6.583 0 0 0 2.185.45c.963.042 1.268.055 3.71.055s2.755 0 3.71-.055a6.616 6.616 0 0 0 2.186-.42 4.613 4.613 0 0 0 2.633-2.632c.263-.7.404-1.438.419-2.186.043-.962.056-1.267.056-3.71s0-2.753-.056-3.71a6.583 6.583 0 0 0-.421-2.217Zm-1.218 9.533a5.046 5.046 0 0 1-.311 1.688 2.987 2.987 0 0 1-1.712 1.71c-.535.2-1.1.305-1.67.312-.95.044-1.218.055-3.654.055-2.438 0-2.687 0-3.655-.055a4.961 4.961 0 0 1-1.67-.311 2.984 2.984 0 0 1-1.718-1.711 5.08 5.08 0 0 1-.311-1.67c-.043-.95-.053-1.217-.053-3.653 0-2.437 0-2.686.053-3.655a5.038 5.038 0 0 1 .311-1.687c.305-.79.93-1.41 1.719-1.712a5.01 5.01 0 0 1 1.669-.311c.95-.043 1.218-.055 3.655-.055s2.687 0 3.654.055a4.96 4.96 0 0 1 1.67.31 2.99 2.99 0 0 1 1.712 1.713 5.06 5.06 0 0 1 .311 1.669c.043.95.054 1.218.054 3.655 0 2.436 0 2.698-.043 3.654h-.011v-.001Z"/></symbol><symbol viewBox="0 0 57 56" id="invest" xmlns="http://www.w3.org/2000/svg"><g clip-path="url(#ava)" fill-rule="evenodd" clip-rule="evenodd"><path d="M25.052 18.416a1.64 1.64 0 0 0 1.64-1.64v-7.48a1.64 1.64 0 0 0-1.64-1.64h-.414l3.695-3.695 3.696 3.695h-.415a1.64 1.64 0 0 0-1.64 1.64v7.48a1.64 1.64 0 1 0 3.281 0v-5.839h2.734a1.64 1.64 0 0 0 1.16-2.8L29.494.48a1.64 1.64 0 0 0-2.32 0l-7.656 7.657a1.64 1.64 0 0 0 1.16 2.8h2.734v5.838a1.64 1.64 0 0 0 1.641 1.641Z"/><path d="M13.649 28.313a1.64 1.64 0 0 0 1.012-1.516v-2.735h6.016a2.734 2.734 0 0 1 2.734 2.735 1.64 1.64 0 1 0 3.282 0 6.016 6.016 0 0 0-6.016-6.016h-7.656a1.64 1.64 0 0 0-1.64 1.64v.415l-3.696-3.695 3.695-3.696v.414c0 .906.735 1.641 1.64 1.641h7.657a9.257 9.257 0 0 1 6.507 2.663 1.64 1.64 0 1 0 2.298-2.342 12.538 12.538 0 0 0-8.805-3.602h-6.016v-2.735a1.64 1.64 0 0 0-2.8-1.16L4.204 17.98a1.64 1.64 0 0 0 0 2.32l7.657 7.657a1.64 1.64 0 0 0 1.788.356Zm4.773 19.397c2.62 1.091 6.124 1.727 9.911 1.727s7.292-.636 9.912-1.727c1.306-.545 2.47-1.235 3.333-2.084.869-.856 1.52-1.971 1.52-3.298v-6.562a1.64 1.64 0 1 0-3.28 0v6.562c0 .184-.083.507-.543.96-.465.459-1.223.947-2.292 1.393-2.13.888-5.188 1.475-8.65 1.475-3.462 0-6.519-.587-8.65-1.475-1.068-.446-1.826-.934-2.292-1.393-.46-.453-.542-.776-.542-.96v-6.562a1.64 1.64 0 0 0-3.281 0v6.562c0 1.327.652 2.442 1.52 3.298.863.85 2.027 1.54 3.334 2.084Z"/><path d="M18.422 54.272C21.042 55.364 24.546 56 28.333 56s7.292-.636 9.912-1.728c1.306-.544 2.47-1.234 3.333-2.084.869-.855 1.52-1.97 1.52-3.297v-6.563a1.64 1.64 0 1 0-3.28 0v6.563c0 .183-.083.507-.543.96-.465.458-1.223.947-2.292 1.392-2.13.888-5.188 1.476-8.65 1.476-3.462 0-6.519-.588-8.65-1.476-1.068-.445-1.826-.934-2.292-1.393-.46-.452-.542-.776-.542-.96v-6.562a1.64 1.64 0 0 0-3.281 0v6.563c0 1.326.652 2.442 1.52 3.297.863.85 2.027 1.54 3.334 2.084Z"/><path d="M18.422 41.147c2.62 1.092 6.124 1.728 9.911 1.728s7.292-.636 9.912-1.728c1.306-.544 2.47-1.234 3.333-2.084.869-.855 1.52-1.97 1.52-3.297 0-1.327-.651-2.442-1.52-3.298-.863-.85-2.027-1.54-3.333-2.084-2.62-1.091-6.125-1.728-9.912-1.728-3.787 0-7.292.637-9.911 1.728-1.307.544-2.471 1.234-3.334 2.084-.868.856-1.52 1.971-1.52 3.298 0 1.326.652 2.442 1.52 3.297.863.85 2.027 1.54 3.334 2.084Zm-1.031-4.422c-.46-.452-.542-.776-.542-.96 0-.183.082-.506.542-.96.466-.458 1.224-.947 2.293-1.392 2.13-.888 5.187-1.475 8.65-1.475 3.461 0 6.518.587 8.649 1.475 1.069.446 1.827.934 2.292 1.393.46.453.543.776.543.96 0 .183-.083.507-.543.96-.465.458-1.223.947-2.292 1.392-2.13.888-5.188 1.476-8.65 1.476-3.462 0-6.519-.588-8.65-1.476-1.068-.445-1.826-.934-2.292-1.393Z"/><path d="M25.052 32.117a1.64 1.64 0 0 0 1.64-1.64v-3.68A9.297 9.297 0 0 1 35.99 17.5h7.657a1.64 1.64 0 0 0 1.64-1.64v-.414l3.696 3.695-3.696 3.696v-.415a1.64 1.64 0 0 0-1.64-1.64H35.99a6.016 6.016 0 0 0-6.015 6.015v3.68a1.64 1.64 0 1 0 3.281 0v-3.68a2.734 2.734 0 0 1 2.734-2.734h6.016v2.734a1.64 1.64 0 0 0 2.8 1.16l7.657-7.656a1.64 1.64 0 0 0 0-2.32l-7.656-7.656a1.64 1.64 0 0 0-2.8 1.16v2.734H35.99c-6.946 0-12.578 5.632-12.578 12.578v3.68c0 .906.735 1.64 1.641 1.64Zm-8.204 12.432a1.64 1.64 0 0 0-1.583-1.697c-3.215-.11-6.002-.726-7.925-1.591-.965-.434-1.637-.897-2.047-1.323-.401-.419-.475-.716-.475-.892 0-.183.082-.506.542-.96.465-.458 1.223-.947 2.292-1.392 2.128-.887 5.18-1.474 8.637-1.476a1.64 1.64 0 0 0 .05-3.28h-.037c-3.787 0-7.292.636-9.912 1.727-1.306.544-2.47 1.234-3.333 2.084-.868.856-1.52 1.97-1.52 3.297 0 1.258.587 2.33 1.39 3.164.793.827 1.865 1.503 3.067 2.044 2.408 1.083 5.637 1.757 9.158 1.878a1.64 1.64 0 0 0 1.696-1.583Zm22.971.001a1.64 1.64 0 0 0 1.696 1.583c3.52-.122 6.75-.795 9.158-1.879 1.201-.54 2.273-1.216 3.067-2.043.802-.835 1.39-1.905 1.39-3.163 0-1.327-.652-2.442-1.52-3.298-.863-.85-2.027-1.54-3.334-2.084-2.62-1.091-6.125-1.728-9.912-1.728h-.037a1.64 1.64 0 0 0 .05 3.281c3.457.002 6.51.59 8.637 1.476 1.07.445 1.827.934 2.293 1.393.46.453.542.776.542.96 0 .175-.074.472-.476.89-.41.427-1.082.89-2.046 1.324-1.924.865-4.71 1.48-7.925 1.591a1.64 1.64 0 0 0-1.583 1.697Z"/><path d="M5.36 46.57c-.46-.454-.542-.777-.542-.96v-6.563a1.64 1.64 0 1 0-3.282 0v6.562c0 1.327.653 2.442 1.521 3.298.863.85 2.027 1.54 3.333 2.084 2.62 1.091 6.125 1.728 9.912 1.728h.038a1.64 1.64 0 0 0-.051-3.282c-3.457-.001-6.509-.588-8.637-1.475-1.069-.445-1.827-.934-2.292-1.393Zm34.973 6.148h.032c3.786 0 7.292-.636 9.911-1.727 1.307-.544 2.47-1.234 3.334-2.084.868-.856 1.52-1.971 1.52-3.298v-6.562a1.64 1.64 0 1 0-3.281 0v6.562c0 .184-.082.507-.542.96-.466.459-1.224.948-2.293 1.393-2.128.887-5.18 1.474-8.636 1.475a1.64 1.64 0 0 0-.051 3.281h.006Z"/></g><defs><clipPath id="ava"><path transform="translate(.333)" d="M0 0h56v56H0z"/></clipPath></defs></symbol><symbol viewBox="0 0 57 56" id="keys" xmlns="http://www.w3.org/2000/svg"><g clip-path="url(#awa)" fill-rule="evenodd" clip-rule="evenodd"><path d="M6.878 13.585C6.878 6.082 12.96 0 20.463 0c7.441 0 13.483 5.982 13.583 13.4l-3.28.043c-.076-5.625-4.66-10.162-10.303-10.162-5.69 0-10.304 4.613-10.304 10.304 0 5.132 3.753 9.388 8.664 10.174v-1.621h3.28v6.783h-3.28v-1.849c-6.73-.81-11.945-6.54-11.945-13.487Z"/><path d="M21.418 14.54c4.362-4.363 11.436-4.363 15.799 0a11.161 11.161 0 0 1 2.986 10.403l3.227 3.227.45 2.443 2.442.45 4.133 4.132v8.383h-8.382L31.821 33.325c-1.308.3-2.662.363-3.997.184l.436-3.252a7.935 7.935 0 0 0 3.533-.326l.959-.315 10.68 10.68h3.742v-3.742l-2.45-2.45-3.662-.673-.674-3.663-3.895-3.895.316-.959a7.89 7.89 0 0 0-13.765-7.258l-2.612-1.986c.303-.398.631-.775.983-1.128l.002-.001v-.001Z"/><path d="M9.292 26.106c0-6.17 5.001-11.171 11.171-11.171 6.17 0 11.172 5.001 11.172 11.171 0 3.995-2.098 7.495-5.245 9.469v4.563l-1.41 2.045 1.41 2.045v5.845L20.463 56l-5.927-5.927V35.575a11.16 11.16 0 0 1-5.244-9.469Zm11.171-7.89a7.89 7.89 0 0 0-3.547 14.938l.901.455v15.105l2.646 2.646 2.646-2.646V45.25l-2.114-3.066 2.114-3.067v-5.508l.902-.455a7.89 7.89 0 0 0-3.548-14.939Z"/></g><defs><clipPath id="awa"><path transform="translate(.667)" d="M0 0h56v56H0z"/></clipPath></defs></symbol><symbol viewBox="0 0 24 24" id="layout" xmlns="http://www.w3.org/2000/svg"><path fill-rule="evenodd" clip-rule="evenodd" d="M18 19h-5v-9h6v8c0 .552-.449 1-1 1ZM5 18v-8h6v9H6c-.551 0-1-.448-1-1ZM6 5h12c.551 0 1 .448 1 1v2H5V6c0-.552.449-1 1-1Zm12-2H6C4.346 3 3 4.346 3 6v12c0 1.654 1.346 3 3 3h12c1.654 0 3-1.346 3-3V6c0-1.654-1.346-3-3-3Z"/></symbol><symbol viewBox="0 0 24 24" id="like" xmlns="http://www.w3.org/2000/svg"><path fill-rule="evenodd" clip-rule="evenodd" d="M7.22 6c-.864 0-1.674.334-2.28.941a3.241 3.241 0 0 0 .001 4.573l7.06 7.071 7.06-7.071a3.24 3.24 0 0 0 0-4.573c-1.213-1.215-3.349-1.213-4.56 0l-1.793 1.795a1.028 1.028 0 0 1-1.416 0L9.5 6.94A3.2 3.2 0 0 0 7.22 6ZM12 21a.994.994 0 0 1-.707-.294l-7.768-7.78a5.245 5.245 0 0 1 0-7.399A5.19 5.19 0 0 1 7.22 4c1.399 0 2.712.543 3.695 1.527L12 6.614l1.085-1.086A5.187 5.187 0 0 1 16.781 4c1.398 0 2.711.543 3.694 1.527a5.244 5.244 0 0 1 .001 7.399l-7.768 7.781A1 1 0 0 1 12 21Z"/></symbol><symbol viewBox="0 0 24 24" id="map" xmlns="http://www.w3.org/2000/svg"><path d="m21.32 5.05-6-2h-.07a.7.7 0 0 0-.14 0h-.43L9 5 3.32 3.05a1 1 0 0 0-.9.14A1 1 0 0 0 2 4v14a1 1 0 0 0 .68.95l6 2a1 1 0 0 0 .62 0l5.7-1.9L20.68 21c.106.014.214.014.32 0a.94.94 0 0 0 .58-.19A1.001 1.001 0 0 0 22 20V6a1 1 0 0 0-.68-.95ZM8 18.61l-4-1.33V5.39l4 1.33v11.89Zm6-1.33-4 1.33V6.72l4-1.33v11.89Zm6 1.33-4-1.33V5.39l4 1.33v11.89Z"/></symbol><symbol viewBox="0 0 16 16" id="open-link" xmlns="http://www.w3.org/2000/svg"><path fill-rule="evenodd" clip-rule="evenodd" d="M12.667 12V8A.666.666 0 1 1 14 8v4c0 1.103-.897 2-2 2H4c-1.103 0-2-.897-2-2V4c0-1.103.897-2 2-2h4a.666.666 0 1 1 0 1.333H4c-.368 0-.667.3-.667.667v8c0 .367.299.667.667.667h8c.368 0 .667-.3.667-.667Zm-.948-8.661-1.056-.006A.666.666 0 0 1 10.667 2h.003l2.665.013c.366.002.663.3.663.666L14 5.333a.666.666 0 1 1-1.333.001V4.277L8.47 8.47a.665.665 0 0 1-.942 0 .666.666 0 0 1 0-.942l4.19-4.19Z"/></symbol><symbol viewBox="0 0 25 24" id="phone" xmlns="http://www.w3.org/2000/svg"><path fill-rule="evenodd" clip-rule="evenodd" d="M6.85 4a2.602 2.602 0 0 0-2.6 2.6c0 7.388 6.011 13.4 13.4 13.4a2.603 2.603 0 0 0 2.579-2.928l-4.62-1.06-.285.545c-.456.87-.786 1.502-1.628 1.163-3.306-1.16-6.005-3.86-7.18-7.206-.357-.785.323-1.141 1.185-1.591l.537-.281-1.06-4.621A2.604 2.604 0 0 0 6.85 4Zm10.8 18c-8.492 0-15.4-6.908-15.4-15.4a4.605 4.605 0 0 1 6.091-4.352c.325.113.57.386.647.722l1.369 5.964a.997.997 0 0 1-.253.916c-.136.142-.139.145-1.379.794a9.949 9.949 0 0 0 4.879 4.883c.65-1.241.654-1.245.796-1.381a1.01 1.01 0 0 1 .916-.253l5.965 1.369a.998.998 0 0 1 .72.646 4.553 4.553 0 0 1 .249 1.492c0 2.537-2.064 4.6-4.6 4.6Z"/></symbol><symbol viewBox="0 0 24 24" id="refresh" xmlns="http://www.w3.org/2000/svg"><path fill-rule="evenodd" clip-rule="evenodd" d="M20.303 13.426a1.001 1.001 0 0 0-1.256.65C18.11 17.022 15.352 19 12.184 19 8.222 19 5 15.86 5 12s3.222-7 7.184-7c1.728 0 3.358.602 4.645 1.67l-2.166-.357a.99.99 0 0 0-1.15.823.999.999 0 0 0 .824 1.149l4.246.702a1.025 1.025 0 0 0 .507-.048c.037-.014.067-.04.103-.06.066-.033.135-.063.192-.111.036-.03.06-.071.09-.105.047-.05.097-.096.132-.156.025-.043.035-.094.054-.142.024-.06.056-.114.068-.18l.754-4a1 1 0 1 0-1.966-.37l-.272 1.44A9.23 9.23 0 0 0 12.185 3C7.12 3 3 7.037 3 12s4.12 9 9.184 9c4.042 0 7.566-2.54 8.77-6.318a1.001 1.001 0 0 0-.65-1.256Z"/></symbol><symbol viewBox="0 0 24 24" id="save-search" xmlns="http://www.w3.org/2000/svg"><path d="M19.823 3c-1.204 0-2.418.63-2.817 1.892C16.606 3.631 15.392 3 14.189 3c-.803 0-1.601.28-2.149.842a3.648 3.648 0 0 0 0 5.079l4.25 4.348a1 1 0 0 0 1.431 0l4.251-4.349a3.65 3.65 0 0 0 0-5.078C21.423 3.281 20.626 3 19.823 3Zm-5.634 2c1.023 0 2.576 1.565 2.817 2.088C17.247 6.565 18.777 5 19.823 5c.299 0 .767.33.912.479.654.603.422 1.414-.193 2.044l-3.536 3.616-3.536-3.616c-.616-.63-.846-1.452-.152-2.1.145-.147.572-.423.871-.423Zm.412 10.186 4.4 4.4A1 1 0 1 1 17.585 21l-4.399-4.4A6.962 6.962 0 0 1 9 18a7 7 0 0 1-.997-13.929C8.55 3.993 9 4.448 9 5s-.452.99-.994 1.1A5.009 5.009 0 0 0 4 11c0 2.757 2.243 5 5 5a5.015 5.015 0 0 0 4.167-2.248l1.434 1.434Z"/></symbol><symbol viewBox="0 0 24 24" id="search" xmlns="http://www.w3.org/2000/svg"><path fill-rule="evenodd" clip-rule="evenodd" d="M5 11c0-3.309 2.691-6 6-6s6 2.691 6 6-2.691 6-6 6-6-2.691-6-6Zm15.707 8.293-3.395-3.396A7.952 7.952 0 0 0 19 11c0-4.411-3.589-8-8-8s-8 3.589-8 8 3.589 8 8 8a7.952 7.952 0 0 0 4.897-1.688l3.396 3.395a.997.997 0 0 0 1.414 0 .999.999 0 0 0 0-1.414Z"/></symbol><symbol viewBox="0 0 24 24" id="share" xmlns="http://www.w3.org/2000/svg"><path fill-rule="evenodd" clip-rule="evenodd" d="M18 19a1 1 0 1 1 0-2 1 1 0 0 1 0 2ZM5 13a1 1 0 1 1 0-2 1 1 0 0 1 0 2Zm13-8a1 1 0 1 1 0 2 1 1 0 0 1 0-2Zm0 10c-.817 0-1.557.33-2.099.861l-7.935-3.526C7.979 12.224 8 12.114 8 12c0-.114-.021-.224-.034-.335l7.935-3.526A2.991 2.991 0 0 0 18 9c1.654 0 3-1.346 3-3s-1.346-3-3-3-3 1.346-3 3c0 .114.021.224.034.335L7.099 9.861A2.991 2.991 0 0 0 5 9c-1.654 0-3 1.346-3 3s1.346 3 3 3c.817 0 1.557-.33 2.099-.861l7.935 3.526c-.013.111-.034.221-.034.335 0 1.654 1.346 3 3 3s3-1.346 3-3-1.346-3-3-3Z"/></symbol><symbol viewBox="0 0 16 16" id="telegram" xmlns="http://www.w3.org/2000/svg"><path d="m14.629 3.698-2.012 9.618c-.152.679-.548.848-1.11.528l-3.066-2.29-1.48 1.442c-.163.166-.3.305-.616.305l.22-3.165 5.683-5.204c.247-.223-.054-.347-.384-.123L4.839 9.29l-3.024-.959c-.658-.208-.67-.667.137-.986L13.78 2.727c.548-.208 1.027.124.849.971Z"/></symbol><symbol viewBox="0 0 16 16" id="viber" xmlns="http://www.w3.org/2000/svg"><path d="M8 1.335c-1.071.013-3.374.19-4.662 1.37-.958.948-1.292 2.35-1.331 4.084-.033 1.728-.072 4.973 3.058 5.856v1.346s-.02.538.337.648c.438.14.688-.275 1.105-.72l.778-.879c2.142.178 3.782-.232 3.97-.293.435-.139 2.883-.451 3.283-3.696.41-3.351-.2-5.463-1.301-6.418h-.007c-.332-.306-1.668-1.279-4.652-1.29 0 0-.222-.014-.578-.008Zm.037.942a7.02 7.02 0 0 1 .488.011c2.527.007 3.732.767 4.017 1.023.927.794 1.405 2.697 1.055 5.495-.332 2.713-2.317 2.885-2.685 3.002-.156.05-1.6.406-3.42.289 0 0-1.356 1.634-1.78 2.055-.067.074-.146.095-.196.085-.071-.018-.093-.107-.089-.229l.013-2.233c-2.655-.733-2.498-3.5-2.47-4.946.033-1.446.304-2.628 1.113-3.43 1.088-.982 3.043-1.115 3.953-1.122Zm.2 1.446a.166.166 0 1 0 0 .332 3.136 3.136 0 0 1 2.242.883c.606.588.9 1.378.912 2.411 0 .092.074.167.167.167V7.51a.167.167 0 0 0 .168-.165 3.588 3.588 0 0 0-1.009-2.646c-.66-.645-1.496-.977-2.48-.977Zm-2.198.382a.523.523 0 0 0-.342.067H5.69a2.61 2.61 0 0 0-.637.523 1.003 1.003 0 0 0-.256.525.71.71 0 0 0 .026.302l.01.006c.172.504.396.988.67 1.444a8.48 8.48 0 0 0 1.29 1.762l.015.022.024.017.015.018.017.015c.532.505 1.127.94 1.769 1.295.734.4 1.18.588 1.447.667v.004c.078.024.15.034.221.034.228-.016.444-.109.613-.262a2.53 2.53 0 0 0 .517-.638v-.004c.128-.241.085-.469-.1-.623-.37-.323-.77-.61-1.195-.857-.285-.155-.574-.061-.69.095l-.25.315c-.129.156-.361.134-.361.134l-.007.004C7.093 8.527 6.63 6.772 6.63 6.772s-.022-.239.139-.36l.312-.252c.15-.122.254-.41.094-.695a7.498 7.498 0 0 0-.856-1.194.475.475 0 0 0-.28-.167Zm2.486.495c-.221 0-.221.334.003.334A2.098 2.098 0 0 1 10 5.572 1.94 1.94 0 0 1 10.5 7a.168.168 0 0 0 .167.165l.007.009a.169.169 0 0 0 .167-.167c.015-.662-.191-1.218-.595-1.663C9.84 4.9 9.273 4.65 8.549 4.6h-.024Zm.274.898c-.228-.006-.236.335-.01.341.55.029.816.306.851.877a.166.166 0 0 0 .165.163h.007a.168.168 0 0 0 .16-.178c-.039-.744-.445-1.164-1.166-1.202H8.8Z"/></symbol><symbol viewBox="0 0 24 24" id="vk" xmlns="http://www.w3.org/2000/svg"><path d="M21.579 6.855c.14-.465 0-.806-.662-.806h-2.193c-.558 0-.813.295-.953.619 0 0-1.115 2.719-2.695 4.482-.51.513-.743.675-1.021.675-.139 0-.341-.162-.341-.627V6.855c0-.558-.161-.806-.626-.806H9.642c-.348 0-.558.258-.558.504 0 .528.79.65.871 2.138v3.228c0 .707-.127.836-.407.836-.743 0-2.551-2.73-3.624-5.853-.209-.607-.42-.852-.98-.852H2.752c-.627 0-.752.295-.752.619 0 .582.743 3.462 3.461 7.27 1.812 2.602 4.363 4.012 6.687 4.012 1.393 0 1.565-.313 1.565-.853v-1.966c0-.626.133-.752.574-.752.324 0 .882.164 2.183 1.417 1.486 1.486 1.732 2.153 2.567 2.153h2.192c.626 0 .939-.313.759-.931-.197-.615-.907-1.51-1.849-2.57-.512-.603-1.277-1.253-1.51-1.578-.325-.42-.231-.604 0-.976.001 0 2.672-3.761 2.95-5.04Z"/></symbol><symbol viewBox="0 0 16 16" id="whatsapp" xmlns="http://www.w3.org/2000/svg"><path fill-rule="evenodd" clip-rule="evenodd" d="M12.269 3.755A5.947 5.947 0 0 0 8.035 2 5.994 5.994 0 0 0 2.05 7.985a5.98 5.98 0 0 0 .799 2.992L2 14.077l3.173-.832c.877.477 1.86.728 2.86.728h.002a5.993 5.993 0 0 0 5.533-8.276 5.953 5.953 0 0 0-1.3-1.942Zm-4.234 9.208h-.002c-.89 0-1.765-.24-2.532-.694l-.181-.108-1.883.494.502-1.835-.118-.188a4.965 4.965 0 0 1-.76-2.647 4.982 4.982 0 0 1 6.88-4.597c.604.25 1.152.618 1.613 1.081a4.946 4.946 0 0 1 1.455 3.52 4.982 4.982 0 0 1-4.974 4.974Zm2.729-3.726c-.15-.075-.885-.436-1.022-.486-.137-.05-.236-.075-.336.074-.1.15-.387.486-.474.586-.087.1-.175.112-.324.038-.15-.075-.631-.233-1.203-.742a4.505 4.505 0 0 1-.832-1.036c-.087-.15-.009-.231.066-.306.068-.066.15-.174.224-.262.075-.087.1-.149.15-.249.05-.1.025-.187-.013-.262-.037-.075-.337-.811-.461-1.11-.121-.29-.244-.252-.336-.256a6.418 6.418 0 0 0-.286-.005.55.55 0 0 0-.4.186c-.137.15-.523.512-.523 1.248s.536 1.447.61 1.547c.075.1 1.055 1.61 2.555 2.258.358.154.636.246.853.315.358.114.684.098.942.06.287-.043.885-.362 1.01-.711.124-.35.124-.649.087-.711-.038-.063-.138-.101-.287-.176Z"/></symbol></svg>