<svg width="20" height="20" viewBox="0 0 20 20" fill="none" xmlns="http://www.w3.org/2000/svg">
<path fill-rule="evenodd" clip-rule="evenodd" d="M14 15C14 13.8954 14.8954 13 16 13C17.1046 13 18 13.8954 18 15C18 16.1046 17.1046 17 16 17C14.8954 17 14 16.1046 14 15ZM16 14.6C15.7791 14.6 15.6 14.7791 15.6 15C15.6 15.2209 15.7791 15.4 16 15.4C16.2209 15.4 16.4 15.2209 16.4 15C16.4 14.7791 16.2209 14.6 16 14.6Z" fill="#B88E61"/>
<path fill-rule="evenodd" clip-rule="evenodd" d="M2.24408 12.2441C2.56951 11.9186 3.09715 11.9186 3.42259 12.2441L6.75592 15.5774C7.08136 15.9028 7.08136 16.4305 6.75592 16.7559C6.43049 17.0814 5.90285 17.0814 5.57741 16.7559L2.24408 13.4226C1.91864 13.0972 1.91864 12.5695 2.24408 12.2441Z" fill="#B88E61"/>
<path d="M7.95972 14.5701L7.95973 14.5701C8.05436 14.7208 8.2073 14.8135 8.31688 14.8698C8.40345 14.9142 8.50111 14.9539 8.57043 14.982C8.59103 14.9903 8.60912 14.9977 8.62367 15.0038L8.74041 14.7275L8.62367 15.0038C8.76777 15.0647 8.91745 15.1183 9.05903 15.169C9.07154 15.1735 9.08398 15.1779 9.09635 15.1823C9.25209 15.2382 9.39878 15.2918 9.53858 15.3538C9.66591 15.4103 9.72355 15.4482 9.74498 15.4644C9.75064 15.4731 9.75809 15.4836 9.76732 15.4946C9.78408 15.5145 9.84099 15.578 9.94287 15.5969C10.0596 15.6185 10.1462 15.5672 10.185 15.5362C10.2182 15.5097 10.2379 15.4821 10.244 15.4733C10.265 15.4572 10.326 15.4165 10.4671 15.3538C10.6069 15.2918 10.7536 15.2382 10.9094 15.1823C10.9217 15.1779 10.9342 15.1734 10.9467 15.169C11.0883 15.1183 11.2379 15.0647 11.382 15.0038C11.3966 14.9977 11.4147 14.9903 11.4353 14.982C11.5046 14.9539 11.6023 14.9142 11.6888 14.8698C11.7984 14.8135 11.9513 14.7208 12.046 14.5701L12.046 14.5701C12.0972 14.4885 12.1346 14.3997 12.146 14.3009C12.1574 14.201 12.1393 14.1153 12.1162 14.0467C12.0554 13.8652 11.9084 13.6675 11.6769 13.4824C11.3611 13.2297 11.0935 12.9937 10.9301 12.7956C10.8538 12.7031 10.769 12.5827 10.7365 12.4471C10.7186 12.372 10.7127 12.2752 10.7499 12.1755C10.8376 11.9401 11.1607 11.8169 11.4075 11.9461C11.546 12.0186 11.6196 12.1473 11.6601 12.2344C11.687 12.2921 11.7185 12.3795 11.7387 12.4366C11.7848 12.567 11.8915 12.6236 11.9376 12.644C11.993 12.6684 12.0489 12.6793 12.092 12.6845C12.1774 12.6948 12.2782 12.6907 12.3654 12.6675C12.4436 12.6468 12.5651 12.611 12.6752 12.5704C12.7295 12.5503 12.7884 12.5264 12.8401 12.4997C12.8658 12.4865 12.8959 12.4694 12.925 12.4482C12.949 12.4307 12.9977 12.3925 13.0337 12.3305C13.1329 12.1591 13.1864 11.9062 13.0797 11.6749L12.8073 11.8007L13.0797 11.6749C13.024 11.5543 12.9274 11.4214 12.7775 11.2591C12.6277 11.0969 12.4398 10.9211 12.2114 10.7088C12.0991 10.6043 12.0786 10.4214 12.1705 10.2905C12.2586 10.1651 12.4146 10.1362 12.5338 10.2098C13.1142 10.568 13.588 10.7758 13.9601 10.8718C14.3366 10.9689 14.5831 10.9452 14.7298 10.8795C14.9605 10.776 15.2127 10.6601 15.487 10.3519C15.7659 10.0385 16.0834 9.50727 16.392 8.54757C16.6949 7.60565 16.7439 6.57592 16.6813 5.68797C16.6777 5.63702 16.6742 5.5834 16.6706 5.52764C16.6536 5.26869 16.6336 4.9636 16.589 4.66556C16.5349 4.30475 16.4406 3.91885 16.2484 3.60305C16.2178 3.5526 16.1637 3.49806 16.0822 3.47178C16.0055 3.44706 15.9388 3.45851 15.8991 3.47073C15.8314 3.49158 15.7883 3.53115 15.7776 3.54089L15.7771 3.54135C15.7473 3.5687 15.7245 3.59945 15.7139 3.6141C15.6875 3.65032 15.6575 3.69801 15.6304 3.7419C15.6117 3.77235 15.5931 3.80302 15.5749 3.83307C15.5346 3.89953 15.4962 3.96299 15.4618 4.01443C15.1557 4.47258 14.7644 5.05893 14.4759 5.52243C14.2204 5.93292 13.7693 6.47872 13.3414 6.91948C13.1265 7.14083 12.9105 7.34285 12.721 7.49174C12.6266 7.56591 12.5331 7.63136 12.4457 7.67955C12.3672 7.72279 12.2593 7.77192 12.146 7.77192C11.975 7.77192 11.8367 7.68792 11.7457 7.55632C11.6661 7.44122 11.6328 7.30506 11.6162 7.1978C11.59 7.02785 11.5939 6.81105 11.5965 6.68587C11.6021 6.41816 11.6531 6.1561 11.7478 5.90425C11.7941 5.78118 11.8565 5.64917 11.9385 5.54243L11.7273 5.38013L11.9385 5.54243C12.0173 5.43982 12.1518 5.31357 12.3414 5.31357C12.5094 5.31357 12.6293 5.40507 12.7043 5.47927L12.9152 5.26596L12.7043 5.47927C12.7356 5.51022 12.7644 5.54356 12.788 5.57178L12.788 5.5718C12.8219 5.61239 12.9045 5.68576 13.0336 5.67917C13.1486 5.67329 13.2172 5.60647 13.2393 5.58248C13.2814 5.53665 13.2982 5.48809 13.2997 5.48351L13.2999 5.48319C13.308 5.46124 13.3117 5.44264 13.3123 5.4397L13.3123 5.4394C13.3144 5.42935 13.3156 5.42097 13.3158 5.41889L13.3159 5.41873C13.3167 5.41259 13.3174 5.40665 13.3178 5.40313L13.3207 5.37406C13.3227 5.35229 13.3253 5.32366 13.3278 5.29545L13.3345 5.2165L13.3367 5.18874L13.3375 5.17885L13.3378 5.17346L13.3381 5.16866L13.3381 5.16854C13.3381 5.1675 13.3384 5.16142 13.3384 5.15397C13.3384 5.03933 13.3303 4.87829 13.2934 4.71717L13.001 4.78404L13.2934 4.71717C13.2562 4.55431 13.1947 4.41324 13.1027 4.31465C13.0285 4.23513 12.9992 4.11564 13.032 4.00386C13.0828 3.83074 13.1066 3.69696 13.1075 3.62204C13.109 3.50365 13.0408 3.39544 12.9333 3.34582C12.8149 3.29118 12.6458 3.2321 12.4703 3.20387C12.3077 3.17771 12.0737 3.16691 11.8779 3.28333C11.8432 3.30393 11.8131 3.33129 11.7893 3.36379C11.7184 3.46048 11.7059 3.57139 11.703 3.62891C11.6996 3.69601 11.7064 3.76827 11.7235 3.83045L12.0128 3.75112L11.7235 3.83046C11.7647 3.98078 11.6945 4.13168 11.5746 4.19401C11.3228 4.32484 11.0446 4.56594 10.7961 4.84132C10.548 5.11624 10.3505 5.40205 10.2512 5.60232L10.52 5.73556L10.2512 5.60232C10.1998 5.706 10.1019 5.76369 10.0029 5.76369C9.90384 5.76369 9.80589 5.706 9.75449 5.60232C9.65522 5.40205 9.45766 5.11624 9.2096 4.84132C8.96112 4.56595 8.68288 4.32484 8.4311 4.194C8.31117 4.13168 8.24103 3.98078 8.28225 3.83046C8.29369 3.78876 8.29597 3.74509 8.28895 3.70242L8.28895 3.70242L8.28895 3.7024L8.28893 3.7023L8.28886 3.70186L8.28857 3.70012L8.28747 3.69339L8.28354 3.66924L8.27181 3.59616C8.26758 3.56942 8.26363 3.54394 8.26098 3.52567L8.25961 3.51582C8.25171 3.39512 8.17078 3.28663 8.04902 3.24888C7.70671 3.14275 7.31667 3.23308 7.07242 3.34582C6.96491 3.39545 6.89665 3.50366 6.89817 3.62205C6.89913 3.69697 6.92287 3.83074 6.97372 4.00386C7.00655 4.11564 6.97722 4.23513 6.90301 4.31465C6.81102 4.41324 6.7495 4.55431 6.71226 4.71717C6.67542 4.87829 6.66726 5.03933 6.66726 5.15397C6.66726 5.1826 6.67201 5.25828 6.67914 5.32095C6.68253 5.35076 6.6883 5.39533 6.69857 5.43498C6.69866 5.43534 6.69878 5.43579 6.69891 5.43632C6.70198 5.44842 6.71596 5.50367 6.75414 5.55593C6.77218 5.58063 6.84105 5.66795 6.97168 5.68054C7.11655 5.69449 7.20579 5.60681 7.23503 5.57178C7.25093 5.55274 7.26342 5.53479 7.27168 5.52256L7.28284 5.50577L7.29072 5.49387C7.29924 5.4812 7.30138 5.47932 7.30143 5.47927L7.09048 5.26596L7.30143 5.47927C7.37646 5.40507 7.49627 5.31357 7.66432 5.31357C7.85387 5.31357 7.98837 5.43982 8.06721 5.54243C8.14922 5.64917 8.21157 5.78118 8.25788 5.90425C8.35265 6.1561 8.40357 6.41816 8.40921 6.68587C8.41185 6.81105 8.41567 7.02785 8.38946 7.1978C8.37292 7.30506 8.33959 7.44122 8.26 7.55633C8.16903 7.68792 8.0307 7.77192 7.85973 7.77192C7.7464 7.77192 7.63848 7.72279 7.56001 7.67955C7.47258 7.63136 7.37911 7.56591 7.28472 7.49174L7.09938 7.72765L7.28472 7.49174C7.09521 7.34285 6.87924 7.14083 6.66434 6.91947C6.23641 6.47871 5.78533 5.93292 5.52981 5.52243C5.24129 5.05894 4.85 4.47261 4.54393 4.01446C4.43584 3.85266 4.33882 3.70743 4.26411 3.59398C4.2442 3.56375 4.20717 3.51961 4.14534 3.48921C4.07845 3.45633 4.00764 3.45194 3.94658 3.46566C3.84883 3.48761 3.79463 3.5507 3.784 3.56308C3.7838 3.56332 3.7836 3.56354 3.78343 3.56374C3.75395 3.59794 3.73798 3.63262 3.73445 3.64027C3.73431 3.64058 3.73419 3.64085 3.73409 3.64107C3.72287 3.6652 3.71388 3.69115 3.70787 3.70928C3.69429 3.75024 3.67816 3.80616 3.66088 3.87043C3.62582 4.00076 3.58145 4.18257 3.53649 4.38679C3.44743 4.79132 3.35139 5.30473 3.32439 5.68797C3.26182 6.57592 3.31085 7.60565 3.6137 8.54757C3.92227 9.50727 4.23981 10.0385 4.51869 10.3519L4.74278 10.1524L4.51869 10.3519C4.79302 10.6601 5.04519 10.776 5.27589 10.8795C5.42257 10.9452 5.66909 10.9689 6.04562 10.8718C6.41775 10.7758 6.8915 10.568 7.4719 10.2098C7.59107 10.1362 7.74714 10.1651 7.83523 10.2905C7.92715 10.4214 7.90663 10.6043 7.79428 10.7088C7.56592 10.9211 7.378 11.0969 7.22826 11.2591C7.07834 11.4214 6.98173 11.5543 6.92605 11.6749C6.87378 11.7881 6.85621 11.8932 6.87119 12.0123C6.8814 12.0935 6.90767 12.1879 6.95674 12.3002C6.99239 12.3818 7.05437 12.4286 7.07147 12.4415L7.07202 12.4419C7.09968 12.4628 7.12866 12.4799 7.15277 12.493C7.20205 12.5197 7.25988 12.5451 7.31556 12.5671C7.42459 12.6102 7.56031 12.6538 7.66325 12.6726C7.73914 12.6865 7.83095 12.6925 7.9163 12.6829C7.95801 12.6782 8.01443 12.668 8.07097 12.6429C8.12268 12.6198 8.2226 12.5621 8.26701 12.4366C8.2872 12.3795 8.31874 12.2921 8.34561 12.2344L8.07365 12.1077L8.34562 12.2344C8.38615 12.1473 8.45968 12.0186 8.59818 11.9461C8.84347 11.8177 9.16841 11.941 9.25583 12.1755C9.29298 12.2752 9.28712 12.372 9.26916 12.4471C9.23675 12.5827 9.15188 12.7031 9.0756 12.7956C8.91219 12.9937 8.64464 13.2297 8.32883 13.4824C8.09734 13.6675 7.95035 13.8652 7.88946 14.0467C7.86643 14.1153 7.84832 14.201 7.85975 14.3009C7.87106 14.3997 7.90849 14.4885 7.95972 14.5701ZM8.25865 3.50883C8.25857 3.50816 8.25858 3.50823 8.25865 3.50888L8.25865 3.50883ZM7.67088 3.45576C7.6658 3.4742 7.66318 3.49091 7.66181 3.50322L7.96018 3.53542L8.02768 3.24312C7.97127 3.23009 7.90804 3.23283 7.84739 3.25743C7.79022 3.28062 7.75211 3.31634 7.7293 3.34383C7.6885 3.39297 7.67467 3.44204 7.67088 3.45576ZM16.2007 3.96478C16.2018 3.96342 16.2023 3.96282 16.2022 3.96286C16.2022 3.9629 16.2017 3.96358 16.2007 3.96478Z" fill="#B88E61" stroke="#B88E61" stroke-width="0.6" stroke-linecap="round" stroke-linejoin="round"/>
</svg>
