<svg width="20" height="20" viewBox="0 0 20 20" fill="none" xmlns="http://www.w3.org/2000/svg">
<g id="Clip path group">
<mask id="mask0_790_4207" style="mask-type:luminance" maskUnits="userSpaceOnUse" x="0" y="0" width="20" height="20">
<g id="a">
<path id="Vector" d="M0 0H20V20H0V0Z" fill="white"/>
</g>
</mask>
<g mask="url(#mask0_790_4207)">
<g id="Group">
<path id="Vector_2" d="M14.04 5.70809L15.24 6.90809L11.174 10.9751L8.43202 8.23309C8.35493 8.15583 8.26335 8.09455 8.16254 8.05273C8.06173 8.01091 7.95366 7.98938 7.84452 7.98938C7.73538 7.98938 7.62731 8.01091 7.5265 8.05273C7.42569 8.09455 7.33412 8.15583 7.25702 8.23309L2.25702 13.2421C2.17987 13.3192 2.11867 13.4108 2.07692 13.5116C2.03516 13.6124 2.01367 13.7205 2.01367 13.8296C2.01367 13.9387 2.03516 14.0467 2.07692 14.1475C2.11867 14.2483 2.17987 14.3399 2.25702 14.4171C2.33417 14.4942 2.42577 14.5554 2.52657 14.5972C2.62737 14.6389 2.73541 14.6604 2.84452 14.6604C2.95363 14.6604 3.06167 14.6389 3.16248 14.5972C3.26328 14.5554 3.35487 14.4942 3.43202 14.4171L7.84102 10.0001L10.582 12.7421C10.6591 12.8193 10.7507 12.8806 10.8515 12.9224C10.9523 12.9643 11.0604 12.9858 11.1695 12.9858C11.2787 12.9858 11.3867 12.9643 11.4875 12.9224C11.5884 12.8806 11.6799 12.8193 11.757 12.7421L16.416 8.09209L17.616 9.29209C17.6742 9.34941 17.7479 9.38835 17.8281 9.40405C17.9082 9.41975 17.9912 9.41152 18.0667 9.38039C18.1421 9.34925 18.2068 9.29659 18.2526 9.22897C18.2983 9.16134 18.3232 9.08174 18.324 9.00009V5.41709C18.3264 5.36247 18.3175 5.30794 18.2979 5.25689C18.2784 5.20584 18.2485 5.15934 18.2103 5.12026C18.1721 5.08118 18.1262 5.05036 18.0756 5.02969C18.025 5.00902 17.9707 4.99894 17.916 5.00009H14.34C14.2579 4.99983 14.1775 5.02382 14.109 5.06906C14.0404 5.1143 13.9868 5.17878 13.9547 5.25439C13.9227 5.33001 13.9137 5.41341 13.9289 5.49412C13.944 5.57483 13.9827 5.64927 14.04 5.70809Z" fill="#FF6A59"/>
</g>
</g>
</g>
</svg>
