<svg width="49" height="48" viewBox="0 0 49 48" fill="none" xmlns="http://www.w3.org/2000/svg">
<circle cx="24.2002" cy="24" r="24" fill="#F5F5F7"/>
<path fill-rule="evenodd" clip-rule="evenodd" d="M25.2594 31.2456C25.2594 31.2456 25.6493 31.2031 25.8489 30.9926C26.0317 30.7997 26.0254 30.4357 26.0254 30.4357C26.0254 30.4357 26.0011 28.7361 26.805 28.4851C27.5974 28.2383 28.6148 30.1288 29.6945 30.8557C30.51 31.4053 31.1291 31.285 31.1291 31.285L34.0143 31.2456C34.0143 31.2456 35.5229 31.1544 34.8077 29.9898C34.7485 29.8944 34.3904 29.1281 32.6631 27.5539C30.8534 25.9061 31.0964 26.1726 33.2748 23.3218C34.6017 21.5858 35.132 20.526 34.9662 20.0728C34.8088 19.6394 33.8326 19.7545 33.8326 19.7545L30.585 19.7742C30.585 19.7742 30.3442 19.742 30.1656 19.8468C29.9913 19.9494 29.8783 20.189 29.8783 20.189C29.8783 20.189 29.3648 21.5319 28.6792 22.6747C27.2329 25.0847 26.655 25.2123 26.4184 25.063C25.868 24.7135 26.0053 23.6609 26.0053 22.9132C26.0053 20.5768 26.3666 19.6031 25.3028 19.3511C24.9499 19.2671 24.69 19.2121 23.7867 19.2028C22.6278 19.1914 21.6474 19.2069 21.0917 19.4735C20.722 19.6508 20.4367 20.0469 20.611 20.0697C20.8255 20.0977 21.3115 20.1983 21.5692 20.5426C21.902 20.9875 21.8904 21.9851 21.8904 21.9851C21.8904 21.9851 22.0816 24.7353 21.4435 25.0764C21.0061 25.3108 20.4061 24.8327 19.1161 22.6457C18.4559 21.5257 17.9572 20.2875 17.9572 20.2875C17.9572 20.2875 17.8611 20.0563 17.6889 19.9318C17.4808 19.7814 17.1902 19.7348 17.1902 19.7348L14.1043 19.7545C14.1043 19.7545 13.6405 19.7669 13.4704 19.965C13.3194 20.1403 13.4588 20.5042 13.4588 20.5042C13.4588 20.5042 15.8749 26.0533 18.6112 28.8501C21.1202 31.4136 23.9685 31.2456 23.9685 31.2456H25.2594Z" fill="#656565"/>
</svg>
