<svg width="49" height="48" viewBox="0 0 49 48" fill="none" xmlns="http://www.w3.org/2000/svg">
<circle cx="24.2002" cy="24" r="24" fill="#F5F5F7"/>
<path fill-rule="evenodd" clip-rule="evenodd" d="M32.8447 17.8293C33.4201 18.4246 33.6079 19.7766 33.6079 19.7766C33.6079 19.7766 33.7999 21.3647 33.7999 22.9521V24.4408C33.7999 26.0288 33.6079 27.6163 33.6079 27.6163C33.6079 27.6163 33.4201 28.9682 32.8447 29.5636C32.1868 30.2679 31.4574 30.3407 31.0451 30.3818C30.9997 30.3863 30.9582 30.3905 30.9211 30.395C28.2343 30.5937 24.1999 30.5998 24.1999 30.5998C24.1999 30.5998 19.2079 30.5532 17.6719 30.4024C17.5991 30.3885 17.5109 30.3777 17.411 30.3654C16.9244 30.3058 16.1608 30.2122 15.5545 29.5636C14.9791 28.9682 14.7919 27.6163 14.7919 27.6163C14.7919 27.6163 14.5999 26.0288 14.5999 24.4408V22.9521C14.5999 21.3647 14.7919 19.7766 14.7919 19.7766C14.7919 19.7766 14.9791 18.4246 15.5545 17.8293C16.2138 17.124 16.9439 17.052 17.3562 17.0113C17.4009 17.0069 17.4419 17.0029 17.4787 16.9985C20.1655 16.7998 24.1957 16.7998 24.1957 16.7998H24.2041C24.2041 16.7998 28.2343 16.7998 30.9211 16.9985C30.9578 17.0029 30.9988 17.007 31.0435 17.0114C31.4556 17.052 32.186 17.1241 32.8447 17.8293ZM22.2156 20.7324L22.2162 26.2452L27.4032 23.4983L22.2156 20.7324Z" fill="#656565"/>
</svg>
