<svg width="49" height="48" viewBox="0 0 49 48" fill="none" xmlns="http://www.w3.org/2000/svg">
<circle cx="24.2002" cy="24" r="24" fill="#F5F5F7"/>
<path d="M6.60579 24.2177C7.69479 24.2617 8.78379 24.2892 9.87279 24.3442C11.9463 24.4432 14.0253 24.5422 16.0658 24.9878C17.8478 25.3784 19.4483 26.11 20.7573 27.4082C22.0828 28.7229 22.8253 30.3401 23.2158 32.1389C23.5348 33.5856 23.6778 35.0489 23.7603 36.5231C23.8483 38.2119 23.9143 39.9061 23.9858 41.6004C24.1343 41.6004 24.2773 41.6004 24.4258 41.6004C24.4808 40.2197 24.5248 38.839 24.5963 37.4582C24.7008 35.4559 24.8218 33.4536 25.3553 31.5063C26.3123 28.0188 28.5893 25.9009 32.0763 25.0538C33.6053 24.6797 35.1618 24.5312 36.7238 24.4487C38.4123 24.3552 40.1063 24.2947 41.8003 24.2232C41.8003 24.0747 41.8003 23.9316 41.8003 23.7831C40.7113 23.7391 39.6223 23.7116 38.5333 23.6566C36.4598 23.5576 34.3808 23.4586 32.3403 23.013C30.5583 22.6224 28.9578 21.8908 27.6488 20.5926C26.3233 19.2779 25.5808 17.6607 25.1903 15.8619C24.8713 14.4096 24.7283 12.9354 24.6458 11.4502C24.5578 9.76692 24.4918 8.08365 24.4203 6.40039C24.2718 6.40039 24.1288 6.40039 23.9803 6.40039C23.9363 7.48956 23.9033 8.57873 23.8538 9.6624C23.7603 11.6537 23.6613 13.6505 23.2653 15.6143C22.8803 17.5011 22.1433 19.2119 20.7518 20.5871C19.4428 21.8853 17.8423 22.6169 16.0603 23.0075C14.6138 23.3265 13.1508 23.4696 11.6768 23.5521C9.98829 23.6401 8.29429 23.7061 6.60029 23.7776C6.60579 23.9261 6.60579 24.0692 6.60579 24.2177Z" fill="#656565"/>
</svg>
