<svg width="56" height="56" viewBox="0 0 56 56" fill="none" xmlns="http://www.w3.org/2000/svg">
<g clip-path="url(#clip0_392_8906)">
<path d="M51.0781 0H23.5156C20.8017 0 18.5938 2.20795 18.5938 4.92188V6.5625H13.6719C9.14867 6.5625 5.46875 10.2424 5.46875 14.7656C5.46875 16.9045 6.84042 18.7281 8.75 19.4053V23.5156C8.75 27.2398 10.7198 30.512 13.6719 32.3468V34.7923L10.8775 37.1875H10.3906C4.66123 37.1875 0 41.8487 0 47.5781V54.3594C0 55.2654 0.734562 56 1.64062 56H36.6406C37.5467 56 38.2812 55.2654 38.2812 54.3594V47.5781C38.2812 41.8487 33.62 37.1875 27.8906 37.1875H27.4038L24.6094 34.7923V32.3468C25.3817 31.8666 26.0882 31.2878 26.7109 30.625H51.0781C53.792 30.625 56 28.417 56 25.7031V4.92188C56 2.20795 53.792 0 51.0781 0ZM13.6719 9.84375H22.4219C24.5361 9.84375 26.25 11.5577 26.25 13.6719V16.1157C25.3617 15.792 24.5744 15.2094 24.0063 14.4281L23.7487 14.0739C23.068 13.138 21.6583 13.1821 21.0374 14.1588L21.0227 14.1818C20.1364 15.5747 18.6215 16.4062 16.9706 16.4062H10.3986C9.48194 16.4062 8.7453 15.6562 8.75 14.7395C8.76422 12.0375 10.9667 9.84375 13.6719 9.84375ZM12.0312 19.6875H16.9706C19.03 19.6875 20.9634 18.9189 22.4339 17.5664C23.5064 18.5455 24.8286 19.2194 26.25 19.5159V23.5156C26.25 27.4357 23.0607 30.625 19.1406 30.625C15.2205 30.625 12.0312 27.4357 12.0312 23.5156V19.6875ZM19.1406 38.8533L16.9531 35.1034V33.6738C17.6587 33.8256 18.3903 33.9062 19.1406 33.9062C19.8909 33.9062 20.6225 33.8256 21.3281 33.6738V35.1034L19.1406 38.8533ZM14.8866 38.0728L17.01 41.7129L14.5721 43.6632L13.351 39.389L14.8866 38.0728ZM3.28125 47.5781C3.28125 43.7058 6.39363 40.5489 10.2479 40.4724L12.0944 46.9351C12.4163 48.0619 13.7817 48.4975 14.6967 47.7655L17.5 45.5229V52.7188H3.28125V47.5781ZM26.1869 46.9351L28.0334 40.4724C31.8876 40.5489 35 43.7058 35 47.5781V52.7188H20.7812V45.5229L23.5844 47.7655C24.4996 48.4975 25.8649 48.0619 26.1869 46.9351ZM23.7092 43.6632L21.2714 41.7129L23.3948 38.0728L24.9305 39.3891L23.7092 43.6632ZM52.7188 25.7031C52.7188 26.6078 51.9828 27.3438 51.0781 27.3438H28.8004C29.2718 26.1585 29.5312 24.8668 29.5312 23.5156V13.6719C29.5312 9.75177 26.342 6.5625 22.4219 6.5625H21.875V4.92188C21.875 4.01723 22.611 3.28125 23.5156 3.28125H51.0781C51.9828 3.28125 52.7188 4.01723 52.7188 4.92188V25.7031Z" fill="#65B770"/>
<path d="M34.6719 16.4064C33.7659 16.4064 33.0313 17.1409 33.0313 18.047V22.422C33.0313 23.328 33.7659 24.0626 34.6719 24.0626C35.578 24.0626 36.3126 23.328 36.3126 22.422V18.047C36.3126 17.1409 35.578 16.4064 34.6719 16.4064ZM41.2344 18.5939C40.3284 18.5939 39.5938 19.3284 39.5938 20.2345V22.422C39.5938 23.328 40.3284 24.0626 41.2344 24.0626C42.1405 24.0626 42.8751 23.328 42.8751 22.422V20.2345C42.8751 19.3284 42.1405 18.5939 41.2344 18.5939ZM47.7969 15.3126C46.8909 15.3126 46.1563 16.0472 46.1563 16.9532V22.422C46.1563 23.328 46.8909 24.0626 47.7969 24.0626C48.703 24.0626 49.4376 23.328 49.4376 22.422V16.9532C49.4376 16.0472 48.703 15.3126 47.7969 15.3126ZM46.7466 6.94291L41.6556 11.1853L39.36 7.35919C38.8108 6.44394 37.5477 6.28841 36.793 7.0432L33.5118 10.3245C32.8711 10.9652 32.8711 12.0039 33.5118 12.6446C34.1525 13.2853 35.1912 13.2853 35.832 12.6446L37.6274 10.8492L39.8275 14.5161C40.3454 15.3793 41.5114 15.5769 42.2846 14.9324L48.8471 9.46367C49.5432 8.88366 49.6373 7.84908 49.0571 7.15302C48.4772 6.45684 47.4427 6.36278 46.7466 6.94291Z" fill="#65B770"/>
</g>
<defs>
<clipPath id="clip0_392_8906">
<rect width="56" height="56" fill="white"/>
</clipPath>
</defs>
</svg>
