<svg width="26" height="26" viewBox="0 0 26 26" fill="none" xmlns="http://www.w3.org/2000/svg">
<path d="M21.647 9.44472H4.35286C3.6708 9.44472 3.11756 8.88707 3.11756 8.19972C3.11756 7.51149 3.6708 6.95384 4.35286 6.95384H21.647C22.329 6.95384 22.8823 7.5106 22.8823 8.19972C22.8823 8.88796 22.329 9.4456 21.647 9.4456V9.44472ZM4.35286 14.4283C3.6708 14.4283 3.11756 13.8697 3.11756 13.1824C3.11756 12.4941 3.6708 11.9365 4.35286 11.9365H14.2352C14.9173 11.9365 15.4705 12.4933 15.4705 13.1824C15.4705 13.8706 14.9173 14.4283 14.2352 14.4283H4.35286V14.4283ZM22.8823 1.97119H3.11756C1.75344 1.97119 0.646973 3.08737 0.646973 4.46296V16.9183C0.646973 18.2947 1.75344 19.41 3.11756 19.41H11.7646L17.8546 23.7935C18.7652 24.45 20.0014 23.6391 19.7755 22.5327L19.1764 19.4109H22.8823C24.2464 19.4109 25.3529 18.2956 25.3529 16.9191V4.46296C25.3529 3.08737 24.2464 1.97119 22.8823 1.97119Z" fill="white"/>
</svg>
