<svg width="32" height="32" viewBox="0 0 32 32" fill="none" xmlns="http://www.w3.org/2000/svg">
<path fill-rule="evenodd" clip-rule="evenodd" d="M9.76758 18C10.1818 18 10.5176 18.3358 10.5176 18.75V21C10.5176 21.2761 10.7414 21.5 11.0176 21.5H21.0176C21.2937 21.5 21.5176 21.2761 21.5176 21V18.75C21.5176 18.3358 21.8534 18 22.2676 18C22.6818 18 23.0176 18.3358 23.0176 18.75V21C23.0176 22.1046 22.1221 23 21.0176 23H11.0176C9.91301 23 9.01758 22.1046 9.01758 21V18.75C9.01758 18.3358 9.35336 18 9.76758 18Z" fill="#303135"/>
<path fill-rule="evenodd" clip-rule="evenodd" d="M15.9993 9C16.4135 9 16.7493 9.33579 16.7493 9.75V15.5429L18.1206 14.1716C18.4135 13.8787 18.8884 13.8787 19.1813 14.1716C19.4742 14.4645 19.4742 14.9394 19.1813 15.2323L16.7064 17.7071C16.3159 18.0977 15.6827 18.0977 15.2922 17.7071L12.8173 15.2323C12.5244 14.9394 12.5244 14.4645 12.8173 14.1716C13.1102 13.8787 13.5851 13.8787 13.878 14.1716L15.2493 15.5429V9.75C15.2493 9.33579 15.5851 9 15.9993 9Z" fill="#303135"/>
</svg>
