<svg width="25" height="24" viewBox="0 0 25 24" fill="none" xmlns="http://www.w3.org/2000/svg">
<path fill-rule="evenodd" clip-rule="evenodd" d="M19.25 18H5.25C4.699 18 4.25 17.552 4.25 17V7.25L11.65 12.8C11.828 12.934 12.039 13 12.25 13C12.461 13 12.672 12.934 12.85 12.8L20.25 7.25V17C20.25 17.552 19.801 18 19.25 18ZM18.583 6L12.25 10.75L5.917 6H18.583ZM19.25 4H5.25C3.596 4 2.25 5.346 2.25 7V17C2.25 18.654 3.596 20 5.25 20H19.25C20.904 20 22.25 18.654 22.25 17V7C22.25 5.346 20.904 4 19.25 4Z" fill="#65B770"/>
</svg>
