<svg width="10" height="10" viewBox="0 0 10 10" fill="none" xmlns="http://www.w3.org/2000/svg">
<g id="27) Icon/home-fill">
<path id="&#240;&#159;&#142;&#168; Icon &#208;&#161;olor" fill-rule="evenodd" clip-rule="evenodd" d="M5.29779 0.958691L8.50988 4.24369C8.66238 4.40036 8.74988 4.61869 8.74988 4.84327V8.33327C8.74988 8.79286 8.39696 9.16661 7.96321 9.16661H6.66654V5.41661C6.66654 5.18661 6.48029 4.99994 6.24988 4.99994H3.74988C3.51946 4.99994 3.33321 5.18661 3.33321 5.41661V9.16661H2.03696C1.60321 9.16661 1.24988 8.79286 1.24988 8.33327V4.84327C1.24988 4.61869 1.33738 4.40036 1.48946 4.24411L4.70196 0.958691C4.85904 0.798275 5.14071 0.798275 5.29779 0.958691ZM5.83329 8.75011H4.16663V5.83344H5.83329V8.75011Z" fill="white"/>
<mask id="mask0_724_2178" style="mask-type:luminance" maskUnits="userSpaceOnUse" x="1" y="0" width="8" height="10">
<path id="&#240;&#159;&#142;&#168; Icon &#208;&#161;olor_2" fill-rule="evenodd" clip-rule="evenodd" d="M5.29779 0.958691L8.50988 4.24369C8.66238 4.40036 8.74988 4.61869 8.74988 4.84327V8.33327C8.74988 8.79286 8.39696 9.16661 7.96321 9.16661H6.66654V5.41661C6.66654 5.18661 6.48029 4.99994 6.24988 4.99994H3.74988C3.51946 4.99994 3.33321 5.18661 3.33321 5.41661V9.16661H2.03696C1.60321 9.16661 1.24988 8.79286 1.24988 8.33327V4.84327C1.24988 4.61869 1.33738 4.40036 1.48946 4.24411L4.70196 0.958691C4.85904 0.798275 5.14071 0.798275 5.29779 0.958691ZM5.83329 8.75011H4.16663V5.83344H5.83329V8.75011Z" fill="white"/>
</mask>
<g mask="url(#mask0_724_2178)">
</g>
</g>
</svg>
