<svg width="57" height="56" viewBox="0 0 57 56" fill="none" xmlns="http://www.w3.org/2000/svg">
<g clip-path="url(#clip0_392_8913)">
<path fill-rule="evenodd" clip-rule="evenodd" d="M25.052 18.416C25.9581 18.416 26.6927 17.6815 26.6927 16.7754V9.29668C26.6927 8.39059 25.9581 7.65606 25.052 7.65606H24.6379L28.3333 3.96064L32.0287 7.65606H31.6145C30.7084 7.65606 29.9739 8.39059 29.9739 9.29668V16.7754C29.9739 17.6815 30.7084 18.416 31.6145 18.416C32.5206 18.416 33.2551 17.6815 33.2551 16.7754V10.9373H35.9895C36.6531 10.9373 37.2513 10.5376 37.5052 9.92452C37.7592 9.31146 37.6188 8.6058 37.1496 8.13659L29.4934 0.480364C28.8527 -0.160339 27.8139 -0.160339 27.1732 0.480364L19.517 8.13659C19.0477 8.6058 18.9074 9.31146 19.1613 9.92452C19.4152 10.5376 20.0135 10.9373 20.677 10.9373H23.4114V16.7754C23.4114 17.6815 24.1459 18.416 25.052 18.416Z" fill="#B88E61"/>
<path fill-rule="evenodd" clip-rule="evenodd" d="M13.6486 28.3126C14.2616 28.0586 14.6613 27.4604 14.6613 26.7968V24.0625H20.677C22.1871 24.0625 23.4113 25.2867 23.4113 26.7968C23.4113 27.7029 24.1458 28.4375 25.0519 28.4375C25.958 28.4375 26.6926 27.7029 26.6926 26.7968C26.6926 23.4746 23.9994 20.7812 20.677 20.7812H13.0207C12.1146 20.7812 11.3801 21.5158 11.3801 22.4218V22.836L7.68468 19.1406L11.3801 15.4452V15.8594C11.3801 16.7655 12.1146 17.5 13.0207 17.5H20.677C23.2109 17.5 25.5041 18.515 27.1842 20.1634C27.831 20.798 28.8697 20.7881 29.5043 20.1413C30.1388 19.4945 30.1289 18.4557 29.4822 17.8212C27.2161 15.5979 24.1081 14.2187 20.677 14.2187H14.6613V11.4844C14.6613 10.8208 14.2616 10.2226 13.6486 9.96864C13.0355 9.7147 12.3298 9.85507 11.8606 10.3243L4.2044 17.9805C3.5637 18.6212 3.5637 19.66 4.2044 20.3007L11.8606 27.9569C12.3298 28.4261 13.0355 28.5665 13.6486 28.3126Z" fill="#B88E61"/>
<path fill-rule="evenodd" clip-rule="evenodd" d="M18.4215 47.7095C21.0411 48.8011 24.5464 49.4375 28.3332 49.4375C32.12 49.4375 35.6253 48.8011 38.245 47.7095C39.5512 47.1653 40.7154 46.4754 41.5781 45.6256C42.4466 44.77 43.0988 43.6547 43.0988 42.3281V35.7657C43.0988 34.8596 42.3643 34.125 41.4582 34.125C40.5521 34.125 39.8176 34.8596 39.8176 35.7657V42.3281C39.8176 42.5117 39.7352 42.8351 39.2754 43.288C38.8098 43.7467 38.0519 44.2353 36.9829 44.6807C34.8523 45.5685 31.7951 46.1563 28.3332 46.1563C24.8713 46.1563 21.8141 45.5685 19.6835 44.6807C18.6146 44.2353 17.8566 43.7467 17.391 43.288C16.9312 42.8351 16.8489 42.5117 16.8489 42.3281V35.7657C16.8489 34.8596 16.1143 34.125 15.2082 34.125C14.3022 34.125 13.5676 34.8596 13.5676 35.7657V42.3281C13.5676 43.6547 14.2198 44.77 15.0883 45.6256C15.951 46.4754 17.1152 47.1653 18.4215 47.7095Z" fill="#B88E61"/>
<path fill-rule="evenodd" clip-rule="evenodd" d="M18.4215 54.272C21.0411 55.3636 24.5464 56 28.3332 56C32.12 56 35.6253 55.3636 38.245 54.272C39.5512 53.7278 40.7154 53.0379 41.5781 52.1881C42.4466 51.3325 43.0988 50.2172 43.0988 48.8906V42.3282C43.0988 41.4221 42.3643 40.6875 41.4582 40.6875C40.5521 40.6875 39.8176 41.4221 39.8176 42.3282V48.8906C39.8176 49.0742 39.7352 49.3976 39.2754 49.8505C38.8098 50.3092 38.0519 50.7978 36.9829 51.2432C34.8523 52.131 31.7951 52.7188 28.3332 52.7188C24.8713 52.7188 21.8141 52.131 19.6835 51.2432C18.6146 50.7978 17.8566 50.3092 17.391 49.8505C16.9312 49.3976 16.8489 49.0742 16.8489 48.8906V42.3282C16.8489 41.4221 16.1143 40.6875 15.2082 40.6875C14.3022 40.6875 13.5676 41.4221 13.5676 42.3282V48.8906C13.5676 50.2172 14.2198 51.3325 15.0883 52.1881C15.951 53.0379 17.1152 53.7278 18.4215 54.272Z" fill="#B88E61"/>
<path fill-rule="evenodd" clip-rule="evenodd" d="M18.4215 41.147C21.0411 42.2386 24.5464 42.875 28.3332 42.875C32.12 42.875 35.6253 42.2386 38.245 41.147C39.5512 40.6028 40.7154 39.9129 41.5781 39.0631C42.4466 38.2075 43.0988 37.0922 43.0988 35.7656C43.0988 34.4391 42.4466 33.3238 41.5781 32.4682C40.7154 31.6184 39.5512 30.9285 38.245 30.3843C35.6253 29.2927 32.12 28.6563 28.3332 28.6563C24.5464 28.6563 21.0411 29.2927 18.4215 30.3843C17.1152 30.9285 15.951 31.6184 15.0883 32.4682C14.2198 33.3238 13.5676 34.4391 13.5676 35.7656C13.5676 37.0922 14.2198 38.2075 15.0883 39.0631C15.951 39.9129 17.1152 40.6028 18.4215 41.147ZM17.391 36.7255C16.9312 36.2726 16.8489 35.9492 16.8489 35.7656C16.8489 35.5821 16.9312 35.2587 17.391 34.8057C17.8566 34.3471 18.6146 33.8585 19.6835 33.4131C21.8141 32.5253 24.8713 31.9375 28.3332 31.9375C31.7951 31.9375 34.8523 32.5253 36.9829 33.4131C38.0519 33.8585 38.8098 34.3471 39.2754 34.8057C39.7352 35.2587 39.8176 35.5821 39.8176 35.7656C39.8176 35.9492 39.7352 36.2726 39.2754 36.7255C38.8098 37.1842 38.0519 37.6728 36.9829 38.1182C34.8523 39.006 31.7951 39.5938 28.3332 39.5938C24.8713 39.5938 21.8141 39.006 19.6835 38.1182C18.6146 37.6728 17.8566 37.1842 17.391 36.7255Z" fill="#B88E61"/>
<path fill-rule="evenodd" clip-rule="evenodd" d="M25.052 32.1172C25.9581 32.1172 26.6926 31.3827 26.6926 30.4766V26.7973C26.6926 21.6628 30.8549 17.5005 35.9895 17.5005H43.6457C44.5518 17.5005 45.2863 16.7659 45.2863 15.8598V15.4457L48.9817 19.1411L45.2863 22.8365V22.4223C45.2863 21.5162 44.5518 20.7817 43.6457 20.7817H35.9895C32.667 20.7817 29.9739 23.4751 29.9739 26.7973V30.4766C29.9739 31.3827 30.7084 32.1172 31.6145 32.1172C32.5206 32.1172 33.2551 31.3827 33.2551 30.4766V26.7973C33.2551 25.2872 34.4793 24.0629 35.9895 24.0629H42.0051V26.7973C42.0051 27.4609 42.4048 28.0591 43.0179 28.313C43.6309 28.567 44.3366 28.4266 44.8058 27.9574L52.462 20.3012C52.7697 19.9935 52.9425 19.5762 52.9425 19.1411C52.9425 18.706 52.7697 18.2887 52.462 17.981L44.8058 10.3248C44.3366 9.85555 43.6309 9.71519 43.0179 9.96912C42.4048 10.2231 42.0051 10.8213 42.0051 11.4849V14.2192H35.9895C29.0427 14.2192 23.4114 19.8507 23.4114 26.7973V30.4766C23.4114 31.3827 24.1459 32.1172 25.052 32.1172Z" fill="#B88E61"/>
<path fill-rule="evenodd" clip-rule="evenodd" d="M16.8479 44.5487C16.8791 43.6431 16.1703 42.8837 15.2647 42.8525C12.0496 42.7417 9.26307 42.126 7.33966 41.261C6.3755 40.8273 5.70265 40.3644 5.29318 39.9378C4.89152 39.5194 4.81762 39.2217 4.81762 39.0465C4.81762 38.863 4.89995 38.5396 5.35978 38.0866C5.82539 37.6279 6.58331 37.1393 7.65222 36.694C9.78017 35.8073 12.8323 35.2199 16.2887 35.2184C17.1886 35.2289 17.9302 34.5115 17.9478 33.61C17.9656 32.7041 17.2456 31.9553 16.3397 31.9376L16.3341 31.9375C16.3234 31.9373 16.3127 31.9372 16.302 31.9372C12.5151 31.9372 9.00985 32.5736 6.39021 33.6651C5.08397 34.2094 3.91978 34.8992 3.05707 35.7491C2.18858 36.6046 1.53638 37.7199 1.53638 39.0465C1.53638 40.3045 2.12441 41.3751 2.92615 42.2102C3.72007 43.0372 4.79207 43.713 5.99375 44.2535C8.40201 45.3366 11.6311 46.0105 15.1517 46.1318C16.0573 46.163 16.8167 45.4542 16.8479 44.5487Z" fill="#B88E61"/>
<path fill-rule="evenodd" clip-rule="evenodd" d="M39.8186 44.5496C39.8498 45.4552 40.6092 46.164 41.5147 46.1328C45.0353 46.0115 48.2644 45.3376 50.6727 44.2544C51.8744 43.714 52.9464 43.0382 53.7403 42.2112C54.542 41.3761 55.13 40.3055 55.13 39.0475C55.13 37.7209 54.4778 36.6056 53.6094 35.7501C52.7466 34.9002 51.5825 34.2104 50.2762 33.6661C47.6566 32.5746 44.1513 31.9381 40.3645 31.9381C40.3538 31.9381 40.343 31.9382 40.3323 31.9385L40.3267 31.9386C39.4208 31.9563 38.7008 32.7051 38.7186 33.611C38.7362 34.5125 39.4778 35.2299 40.3777 35.2194C43.8341 35.2209 46.8862 35.8083 49.0142 36.6949C50.0831 37.1403 50.841 37.6289 51.3066 38.0876C51.7665 38.5406 51.8488 38.8639 51.8488 39.0475C51.8488 39.2227 51.7749 39.5204 51.3732 39.9388C50.9638 40.3653 50.2909 40.8283 49.3268 41.2619C47.4033 42.127 44.6168 42.7427 41.4017 42.8535C40.4962 42.8847 39.7874 43.6441 39.8186 44.5496Z" fill="#B88E61"/>
<path fill-rule="evenodd" clip-rule="evenodd" d="M5.35978 46.5693C4.89995 46.1163 4.81762 45.7929 4.81762 45.6094V39.0469C4.81762 38.1408 4.08309 37.4063 3.177 37.4063C2.27091 37.4063 1.53638 38.1408 1.53638 39.0469V45.6094C1.53638 46.936 2.18858 48.0513 3.05707 48.9068C3.91978 49.7567 5.08397 50.4465 6.39021 50.9908C9.00985 52.0823 12.5151 52.7188 16.302 52.7188C16.3127 52.7188 16.3234 52.7186 16.3341 52.7184L16.3397 52.7183C17.2456 52.7006 17.9656 51.9518 17.9478 51.0459C17.9302 50.1444 17.1887 49.427 16.2887 49.4375C12.8323 49.436 9.78018 48.8486 7.65222 47.9619C6.58331 47.5166 5.82539 47.028 5.35978 46.5693Z" fill="#B88E61"/>
<path fill-rule="evenodd" clip-rule="evenodd" d="M40.3325 52.7184C40.3433 52.7186 40.354 52.7188 40.3647 52.7188C44.1515 52.7188 47.6568 52.0823 50.2765 50.9908C51.5827 50.4465 52.7469 49.7567 53.6096 48.9068C54.4781 48.0513 55.1303 46.936 55.1303 45.6094V39.0469C55.1303 38.1408 54.3958 37.4063 53.4897 37.4063C52.5836 37.4063 51.849 38.1408 51.849 39.0469V45.6094C51.849 45.7929 51.7667 46.1163 51.3069 46.5693C50.8413 47.028 50.0834 47.5166 49.0144 47.9619C46.8865 48.8486 43.8344 49.436 40.3779 49.4375C39.478 49.427 38.7365 50.1444 38.7188 51.0459C38.7011 51.9518 39.4211 52.7006 40.327 52.7183L40.3325 52.7184Z" fill="#B88E61"/>
</g>
<defs>
<clipPath id="clip0_392_8913">
<rect width="56" height="56" fill="white" transform="translate(0.333252)"/>
</clipPath>
</defs>
</svg>
