<svg width="57" height="56" viewBox="0 0 57 56" fill="none" xmlns="http://www.w3.org/2000/svg">
<g clip-path="url(#clip0_392_8898)">
<path fill-rule="evenodd" clip-rule="evenodd" d="M6.87817 13.585C6.87817 6.08225 12.9604 0 20.4632 0C27.904 0 33.9461 5.98203 34.046 13.3991L30.7653 13.4433C30.6895 7.81802 26.1063 3.28104 20.4632 3.28104C14.7725 3.28104 10.1592 7.89432 10.1592 13.585C10.1592 18.7174 13.9117 22.9734 18.8227 23.7591V22.1377H22.1037V28.9213H18.8227V27.072C12.0935 26.262 6.87817 20.5326 6.87817 13.585Z" fill="#65B770"/>
<path fill-rule="evenodd" clip-rule="evenodd" d="M21.4175 14.5397C25.7803 10.1769 32.8538 10.1769 37.2166 14.5397C40.0414 17.3645 41.0331 21.3231 40.2034 24.9434L43.4303 28.1702L43.8796 30.6131L46.3225 31.0624L50.4553 35.1952V43.5775H42.073L31.8208 33.3253C30.513 33.6249 29.1592 33.688 27.8239 33.5087L28.2605 30.2568C29.4475 30.4162 30.6552 30.3048 31.7931 29.931L32.7517 29.6161L43.432 40.2964H47.1742V36.5542L44.7246 34.1046L41.0618 33.431L40.3881 29.7681L36.4933 25.8734L36.8092 24.9143C37.713 22.17 37.073 19.0362 34.8965 16.8597C31.8154 13.7786 26.8201 13.7783 23.7386 16.8587C23.4895 17.1087 23.2574 17.375 23.0437 17.6559L20.4323 15.6696C20.7345 15.2722 21.063 14.8954 21.4154 14.5417L21.4165 14.5407L21.4175 14.5397Z" fill="#65B770"/>
<path fill-rule="evenodd" clip-rule="evenodd" d="M9.29163 26.1062C9.29163 19.9363 14.2933 14.9346 20.4632 14.9346C26.6331 14.9346 31.6348 19.9363 31.6348 26.1062C31.6348 30.1011 29.537 33.6015 26.3903 35.5748V40.1383L24.9807 42.1833L26.3905 44.2283V50.073L20.4633 56.0002L14.5361 50.073V35.5747C11.3894 33.6015 9.29163 30.101 9.29163 26.1062ZM20.4632 18.2156C16.1054 18.2156 12.5727 21.7483 12.5727 26.1062C12.5727 29.1842 14.336 31.8526 16.9156 33.154L17.8172 33.6089V48.7139L20.4633 51.3601L23.1095 48.7139V45.2497L20.9955 42.1835L23.1093 39.117V33.609L24.0108 33.1542C26.5905 31.8526 28.3538 29.1842 28.3538 26.1062C28.3538 21.7483 24.8211 18.2156 20.4632 18.2156Z" fill="#65B770"/>
</g>
<defs>
<clipPath id="clip0_392_8898">
<rect width="56" height="56" fill="white" transform="translate(0.666626)"/>
</clipPath>
</defs>
</svg>
