<svg width="24" height="24" viewBox="0 0 24 24" fill="none" xmlns="http://www.w3.org/2000/svg">
<g id="Icons / Heart">
<path id="Color" fill-rule="evenodd" clip-rule="evenodd" d="M7.22045 6C6.35645 6 5.54645 6.334 4.94045 6.941C3.68245 8.201 3.68245 10.252 4.94145 11.514L12.0004 18.585L19.0604 11.514C20.3194 10.252 20.3194 8.201 19.0604 6.941C17.8484 5.726 15.7124 5.728 14.5004 6.941L12.7084 8.736C12.3324 9.113 11.6684 9.113 11.2924 8.736L9.50045 6.94C8.89445 6.334 8.08545 6 7.22045 6ZM12 21C11.735 21 11.48 20.895 11.293 20.706L3.52505 12.926C1.48905 10.886 1.48905 7.567 3.52505 5.527C4.50905 4.543 5.82105 4 7.22005 4C8.61905 4 9.93205 4.543 10.915 5.527L12 6.614L13.085 5.528C14.069 4.543 15.381 4 16.781 4C18.179 4 19.492 4.543 20.475 5.527C22.512 7.567 22.512 10.886 20.476 12.926L12.708 20.707C12.52 20.895 12.266 21 12 21Z" fill="#65B770"/>
</g>
</svg>
