<svg width="25" height="24" viewBox="0 0 25 24" fill="none" xmlns="http://www.w3.org/2000/svg">
<path fill-rule="evenodd" clip-rule="evenodd" d="M6.85 4C5.416 4 4.25 5.166 4.25 6.6C4.25 13.988 10.261 20 17.65 20C19.083 20 20.25 18.834 20.25 17.4C20.25 17.289 20.243 17.18 20.229 17.072L15.609 16.012C15.517 16.188 15.416 16.379 15.324 16.557C14.868 17.427 14.538 18.059 13.696 17.72C10.39 16.56 7.691 13.86 6.516 10.514C6.159 9.729 6.839 9.373 7.701 8.923C7.876 8.831 8.065 8.732 8.238 8.642L7.178 4.021C7.067 4.007 6.959 4 6.85 4ZM17.65 22C9.158 22 2.25 15.092 2.25 6.6C2.25 4.063 4.313 2 6.85 2C7.11 2 7.367 2.022 7.616 2.065C7.859 2.104 8.103 2.166 8.341 2.248C8.666 2.361 8.911 2.634 8.988 2.97L10.357 8.934C10.433 9.262 10.338 9.606 10.104 9.85C9.968 9.992 9.965 9.995 8.725 10.644C9.729 12.818 11.474 14.557 13.604 15.527C14.254 14.286 14.258 14.282 14.4 14.146C14.644 13.912 14.99 13.821 15.316 13.893L21.281 15.262C21.616 15.339 21.889 15.583 22.001 15.908C22.083 16.144 22.145 16.388 22.186 16.639C22.228 16.886 22.25 17.142 22.25 17.4C22.25 19.937 20.186 22 17.65 22Z" fill="#65B770"/>
</svg>
