<svg width="24" height="24" viewBox="0 0 24 24" fill="none" xmlns="http://www.w3.org/2000/svg">
<g id="Icons / Save_search">
<path id="Vector" d="M19.823 3C18.619 3 17.405 3.63 17.006 4.892C16.606 3.631 15.392 3 14.189 3C13.386 3 12.588 3.28 12.04 3.842C11.38 4.52262 11.0109 5.43344 11.0109 6.3815C11.0109 7.32956 11.38 8.24038 12.04 8.921L16.2909 13.2686C16.6832 13.6699 17.3288 13.6698 17.721 13.2686L21.972 8.92C22.6312 8.23918 22.9998 7.32867 22.9998 6.381C22.9998 5.43333 22.6312 4.52282 21.972 3.842C21.423 3.281 20.626 3 19.823 3ZM14.189 5C15.212 5 16.765 6.565 17.006 7.088C17.247 6.565 18.777 5 19.823 5C20.122 5 20.59 5.33 20.735 5.479C21.389 6.082 21.157 6.893 20.542 7.523L17.006 11.139L13.47 7.523C12.854 6.893 12.624 6.071 13.318 5.423C13.463 5.276 13.89 5 14.189 5ZM14.601 15.186L19.0005 19.5855C19.3912 19.9762 19.3911 20.6097 19.0003 21.0002C18.6096 21.3906 17.9765 21.3904 17.586 20.9999L13.187 16.6C11.9802 17.5085 10.5106 17.9999 9 18C7.14348 18 5.36301 17.2625 4.05025 15.9497C2.7375 14.637 2 12.8565 2 11C2 9.14348 2.7375 7.36301 4.05025 6.05025C5.12579 4.97471 6.5153 4.28531 8.00335 4.07129C8.55001 3.99266 9 4.44772 9 5C9 5.55228 8.54775 5.98958 8.00644 6.09915C5.72376 6.56119 4 8.58309 4 11C4 13.757 6.243 16 9 16C9.82598 15.9974 10.6385 15.7909 11.3655 15.3987C12.0924 15.0065 12.7113 14.4409 13.167 13.752L14.601 15.186Z" fill="#65B770"/>
</g>
</svg>
